<?xml version="1.0" encoding="utf-8"?>
<!-- Generator: Adobe Illustrator 22.0.1, SVG Export Plug-In . SVG Version: 6.00 Build 0)  -->
<svg version="1.1" xmlns="http://www.w3.org/2000/svg" xmlns:xlink="http://www.w3.org/1999/xlink" x="0px" y="0px"
	 viewBox="0 0 2272 1872" style="enable-background:new 0 0 2272 1872;" xml:space="preserve">
<style type="text/css">
	.st0{fill:#FB7086;}
	.st1{fill:#D1526B;}
	.st2{fill:#5B91B5;}
	.st3{fill:#FFC95F;}
	.st4{fill:#BC8731;}
	.st5{fill:#A34569;}
	.st6{fill:#F190AC;}
	.st7{fill:#EAB353;}
	.st8{fill:#B28134;}
	.st9{fill:#CE9B49;}
	.st10{fill:#386177;}
	.st11{fill:#FFC39A;}
	.st12{fill:#F48E69;}
	.st13{fill:#EDA677;}
	.st14{fill:#A4C2DB;}
	.st15{fill:#BC5F42;}
	.st16{fill:#FFFFFF;}
	.st17{fill:#2D3532;}
	.st18{fill:#4A7796;}
	.st19{fill:#759FBC;}
	.st20{fill:#2E3734;}
	.st21{fill:#52635D;}
	.st22{fill:#DD7657;}
	.st23{fill:#C46283;}
	.st24{fill:#FFD6BB;}
	.st25{fill:#8E644D;}
	.st26{fill:#68422F;}
	.st27{fill:#B25A46;}
	.st28{fill:#913E30;}
	.st29{fill:#893C2F;}
	.st30{fill:#1C211F;}
	.st31{fill:#FF99AD;}
	.st32{fill:#D2EDFF;}
</style>
<g id="Background">
	<g id="Layer_1_1_">
	</g>
	<g id="Layer_2">
	</g>
</g>
<g id="object">
	<g>
		<g>
			<path class="st0" d="M1455.3,0c-36.9,16-74.2,30.8-112.6,43c-104,33.2-213,47.4-319,73.4s-212.2,65.8-291.5,140.8
				s-126.6,191.4-95.5,296c29.2,98.4,121.9,176.8,121.1,279.4c-0.9,114-116.5,195.8-140.8,307.2c-16.9,77.6,13.2,157.6,50.1,228
				c36.9,70.4,81.8,138.5,97.9,216.4c0.2,1,0.4,1.9,0.6,2.9c32.6,165.6,178.2,284.8,346.9,284.8H2272V0H1455.3z"/>
			<path class="st1" d="M1893.7,1363.3c-25.8,1.5-55.6-0.3-71.6-20.6c-10.8-13.6-12.3-32.4-10.1-49.6
				c12.3-95,114.6-145.3,183.9-211.4c12.2-11.6,24.2-25.2,26.6-41.9c5.8-39.8-42.9-67.2-50.9-106.6c-9-44,33.9-79.8,71.7-104.2
				c76.2-49.2,152.5-98.4,228.7-147.7V337.3c-20.1,6.5-39.7,14.8-58.1,24.2c-73.5,37.7-137.5,92.3-212,127.8
				c-94.3,45-204.2,59-286.7,123.1c-61.7,47.9-100.8,118.6-137.1,187.7c-36.3,69.2-72.9,140.6-131.4,192.3
				c-58.5,51.7-145.4,79.6-216.4,47c-20.3-9.3-39-23.8-48.6-43.9c-15.2-31.6-5.3-69.4,8.8-101.5c30.9-70.4,81.2-132.1,144-176.5
				c59.3-42,138.2-83,139-155.7c0.3-33.9-18.2-65.5-20.3-99.3c-4.3-67,54.4-120.5,112.4-154.2C1787.3,179.1,2077,172.9,2265.6,0
				h-611.7c-21.7,15-43.2,30.2-64.8,45.1c-100,69.6-204.9,137.4-323.6,164.8c-80.7,18.6-164.9,17.7-245.8,35.3
				c-167.3,36.5-309.4,160.2-380.7,315c31.4,95.2,119.7,172.3,118.9,272.5c-0.9,114-116.5,195.8-140.8,307.2
				c-16.9,77.6,13.2,157.6,50.1,228c36.9,70.4,81.8,138.5,97.9,216.4c0.2,1,0.4,1.9,0.6,2.9c32.6,165.6,178.2,284.8,346.9,284.8
				h1089.9c24.1-21.1,47.4-43.2,69.6-66.3v-484.9C2148.9,1312.9,2020,1356.1,1893.7,1363.3z"/>
			<g>
				<g>
					<path class="st0" d="M717.6,780.7C685.1,711.2,615.2,654.7,615.5,578c0.1-16.4,3.5-33.2-0.4-49.1c-4-16-19.2-31.1-35.1-27.1
						c-12.7,3.2-19.9,16.5-24.1,28.9c-16.8,49.3-11.3,105.7,14.8,150.7c20.8,36,54.3,65.9,63.8,106.5
						c9.4,40.4-14.6,179.1,64.6,174.6C763.5,958.8,734.1,815.9,717.6,780.7z"/>
					<path class="st0" d="M788.5,161.1c45.5-29.9,103.4-48.9,128.3-97.4c5.3-10.4,8.8-22.4,6.4-33.9S910.9,8,899.2,7.8
						c-21.7-0.4-29.1,27.8-38.4,47.5c-24.6,52.2-93.3,62.7-139.6,97.1c-36.6,27.2-59.3,70.7-66.4,115.7
						c-6.5,41.1-2.6,89.1,13.6,127.7C680.3,301.5,702.6,217.5,788.5,161.1z"/>
					<path class="st0" d="M691.8,383.5c-1,7.1-35.5-99.7,66.4-183.7s224.8-60.4,361.3-200.2h110.4c0,0-40.5,27.9-221.4,113.2
						S722.5,155.8,691.8,383.5z"/>
					<path class="st2" d="M939.9,837.4c24-3.1,77.5,23.3,128.7,221.7c51.2,198.4,25.7,403.7,25.7,403.7s-389.7-217.9-388.4-232.7
						s6.3-283.5,6.3-283.5L939.9,837.4z"/>
					<path class="st3" d="M787.9,313.7c-10,0-103.9-7.8-145.3,214.5h30.9c0,0-19.6,145.5-5.8,164.9c13.8,19.4,64,4.5,64,4.5
						s32.1,155,10,203.4c-22.1,48.3,145.9-27.1,182.2-82.6c0,0-13.3-177.2-7-248.1S1004.7,313.6,787.9,313.7z"/>
					<path class="st4" d="M742.6,589.7c27.3-14.7,44.5-46.1,42.4-77c-27.3,35.9-71.6,58.2-116.7,59.2c-1.2,11.3-2.4,23.8-3.3,36.5
						c14.7-0.9,29.3-3.5,43.7-6.9C720.4,598.7,732.1,595.4,742.6,589.7z"/>
					<path class="st4" d="M667.7,693.2c13.8,19.4,64,4.5,64,4.5s32.1,155,10,203.4c-12.3,26.9,34.2,15.5,84.2-9.5V644.3L667.7,693.2
						z"/>
					<path class="st5" d="M922.9,771c-49.9,26.2-170.2,96.1-204.5,176.9c0,0,167.5-100.3,227.8-109.3c49.3-7.4,33.4-31.5,12.7-59.4
						C950.6,768,935.3,764.5,922.9,771z"/>
					<path class="st6" d="M960,797c-59,21.2-202.5,79.9-252.8,163.8c0,0,200.2-84.9,268.1-85.7c55.5-0.6,41.7-29.6,23.1-63.6
						C991,797.9,974.7,791.7,960,797z"/>
					<path class="st7" d="M1741.1,548.5c0,0,412.1-119.7,530.9,132.8V1872h-443.5c0,0,111.1-744.3-197.6-922.7
						C1631,949.3,1605.9,618.1,1741.1,548.5z"/>
					<g>
						<g>
							<path class="st8" d="M2156.7,882c-0.2,125.8-2,251.7-2.6,377.5c-0.6,125.8-1.2,251.7-1.4,377.5
								c-0.1,70.6-0.6,141.2,0.1,211.7c0.1,11.5,18,11.5,17.9,0c0-0.7,0-1.3,0-2c-0.1-11.5-17.7-11.5-17.8,0c0,0.7,0,1.3,0,2
								c-0.1,11.5,17.7,11.5,17.9,0c1.2-125.8,0.2-251.7-0.3-377.5c-0.6-125.8-1.1-251.7-2-377.5c-0.5-70.6-1.5-141.2-1.6-211.7
								C2166.9,875.5,2156.7,875.5,2156.7,882L2156.7,882z"/>
						</g>
						<g>
							<path class="st8" d="M2107.8,919.7c-0.4,14.4,1.7,28.6,4.2,42.8c2.6,14.6,7.3,28.6,10.7,43c3,12.8,8,24.4,14.2,36
								c3.1,5.7,5.2,12.1,8.6,17.5c2.6,4.1,7.4,10,12.3,10.9c3.8,0.7,6.5-2.2,5.9-5.9c-0.7-4.6-5.4-8.7-7.8-12.7
								c-3-5.2-5.2-11-8.2-16.3c-3-5.5-6-11-8.7-16.7c-2.7-5.7-4.2-11.7-6-17.7c-7.7-26.8-16.9-52.8-18.1-80.9
								C2115,915,2107.9,915,2107.8,919.7L2107.8,919.7z"/>
						</g>
					</g>
					<path class="st9" d="M2073.5,722.9c-42.1-95.6-328.7-98.9-387.3-54.9c0,0-9.4,191.9,12.9,336.3c39,42.2,68.3,96.1,90.1,156.5
						C1917.2,1143.7,2115.7,818.5,2073.5,722.9z"/>
					<g>
						<path class="st2" d="M1506.5,1764.5c0,0,152-116.2,241.4-134.3s227.6,129.8,280.4,242H1554L1506.5,1764.5z"/>
						<g>
							<path class="st10" d="M1613.4,1709.7c11.7,7.7,24.2,13.4,37.1,18.8c26.1,10.9,52.6,20.8,80.8,24.5c29.1,3.8,59,5.4,88.4,4.4
								c30.4-1.1,60.6-5.5,90.4-11.2c9.6-1.8,19.2-3.8,28.8-5.8c-4.4-4.9-8.9-9.8-13.4-14.5c-2.8,0.6-5.7,1.2-8.5,1.8
								c-28.3,5.9-56.9,10.6-85.7,12.6c-28.8,2-57.9,1.3-86.6-1.2c-27.2-2.4-52.7-9.4-78.3-18.9c-14.3-5.3-28.8-10.7-42.1-18.4
								c-4.5-2.6-8.8-5.4-13.1-8.4c-3.7,2.3-7.4,4.6-11.1,6.9C1604.4,1703.4,1608.8,1706.7,1613.4,1709.7z"/>
							<path class="st10" d="M1662.9,1697.3c23.7,13.1,49,21.5,75.8,25.1c54.4,7.4,110.5-1.4,164.5-8.7c3-0.4,6.1-0.8,9.2-1.2
								c-5-4.9-10-9.6-15-14.2c-21.6,3.3-43.3,6-65,8.4c-51,5.6-102.6,6.6-150.6-14c-12.6-5.4-24.7-12-36.3-19.4
								c-3.4,1.9-6.9,3.9-10.3,5.8C1643.9,1685.8,1653.1,1691.9,1662.9,1697.3z"/>
							<path class="st10" d="M1630,1752.2c26.8,11.6,55,18.1,83.9,21.8c30.2,3.9,60.6,5.3,91,7c30.9,1.8,61.9,3,92.8,0.5
								c22.5-1.8,44.8-5.3,66.7-10.7c-3.7-4.8-7.6-9.5-11.5-14.2c-15.2,3.3-30.5,6-45.9,7.6c-30,3.3-60.1,3.1-90.2,2
								c-29.8-1.1-59.8-2.3-89.5-5c-28.4-2.6-57-7.1-84-16.7c-22.3-8-43.1-19.3-63.3-31.7c-3.2,2.1-6.3,4.2-9.4,6.2
								C1589.6,1731.6,1609.1,1743.2,1630,1752.2z"/>
							<path class="st10" d="M1563.6,1761.9c15.3,12.3,32.2,22.8,49.3,32.3c34.1,19,71.8,31.2,110,39c81.2,16.6,165,13.3,246.6,1.1
								c11.6-1.7,23.2-3.8,34.7-6.2c-3.1-5.1-6.4-10.2-9.7-15.3c-5.1,1-10.2,1.9-15.3,2.8c-40.1,7.1-81,10.9-121.6,12.3
								c-39.3,1.4-78.6-0.8-117.4-7.2c-37.3-6.2-74.3-15.6-108.6-31.9c-19.2-9.1-37.9-19.7-55.4-31.8c-9.8-6.8-18.8-14.7-27.2-23.1
								c-3,2.1-5.9,4.1-8.7,6.1C1547.6,1747.7,1555.2,1755.2,1563.6,1761.9z"/>
							<path class="st10" d="M2012.2,1841.3c-15.5,3.5-31.1,6.8-46.7,9.9c-40.1,8-80.5,14.6-121.1,19.2c-5.3,0.6-10.6,1.2-15.8,1.7
								h118.6c2.2-0.4,4.4-0.8,6.6-1.2c22.4-4.1,44.8-8.6,67.1-13.8C2018.1,1851.9,2015.2,1846.7,2012.2,1841.3z"/>
							<path class="st10" d="M1730.4,1872.1c-1.3-0.2-2.5-0.3-3.8-0.5c-38.1-5.6-74.4-18.4-108.2-36.7
								c-37.7-20.4-71.8-46.5-105.6-72.7c-0.6-0.5-1.3-0.8-1.9-0.9c-2.8,2.1-4.4,3.3-4.4,3.3l3.3,7.4
								c49.1,39.6,100,78.5,159.2,100.2H1730.4z"/>
						</g>
						<g>
							<g>
								<g>
									<g>
										<path class="st11" d="M2113.5,650.2c0.7-12.7,2.2-26.4,10.8-35.8c1.8-1.9,4.3-3.8,6.9-3c3.4,1,3.9,5.5,3.7,9.1
											c-0.8,17.7-1.6,35.5-2.4,53.2c2.3,1.7,5.2-1.4,6.2-4.1c4.5-11.9,3.8-25.1,7.2-37.4c3.4-12.2,13.7-24.5,26.3-23
											c-4.3,18.4-8.6,36.9-12.9,55.3c-0.9,3.8-1.2,8.9,2.4,10.5c3.8,1.7,7.5-2.6,9.4-6.3c8-15.8,13.9-33.9,28.3-44.2
											c1.6-1.1,3.4-2.2,5.3-2c2.9,0.3,4.8,3.3,4.9,6.2c0.1,2.9-1.2,5.6-2.4,8.2c-9.5,19.8-19,39.7-28.5,59.5
											c8.3-1.6,15.3-6.8,22.7-10.8c7.4-4,16.3-7,24.2-3.9c0.7,8.7-6.9,15.4-13.1,21.4c-10.5,10.3-18.6,22.9-23.7,36.7
											c-6.6,17.9-8.9,39.2-23.8,51.1c-10.5,8.3-26.1,9.6-37.8,3c-11.3-6.3-18.2-18.7-20.7-31.4c-3.5-17.4,1.1-30.1,4.6-46.4
											C2115.5,695.5,2112.3,671.5,2113.5,650.2z"/>
										<path class="st11" d="M2063,627.6c10.6-8.4,27.2-1.5,34.6,9.7c7.4,11.3,8.6,25.4,11.5,38.5c0.6,2.9,1.4,5.9,3.3,8.3
											c2.5,3.1,6.4,4.6,10.1,6.1c20.2,8.1,39.6,20.9,49.9,40.1c10.3,19.2,9.2,45.5-6.9,60.3c-27.5,25.4-75.4,5.6-77.7-30.4
											c-1.4-21.6,1-42.7-2.5-64.3C2084.2,689.7,2064.5,626.4,2063,627.6z"/>
									</g>
									<polygon class="st12" points="1326.5,601.7 1233,1002.6 1154.1,865.7 1154.1,678.7 									"/>
									<g>
										<path class="st13" d="M967.7,553.5c3.3,7.6,7.4,15,13.7,20.5c6.2,5.4,15,8.6,22.9,6.4c48.5-13.4,36.8-141.3,1-165.8
											c-25.8-17.6-38.6,14.8-44.6,36.2C951.2,484.4,953.5,521.4,967.7,553.5z"/>
										<path class="st11" d="M1068.9,315.5c0,0-197.7,164.5-7.4,525.9c0,0,310.1-66.1,326.1-392.1
											C1403.5,123.3,1126.9,233.3,1068.9,315.5z"/>
										<path class="st12" d="M1174.1,243.6c-39.8,51.3-119.3,174.9-125.8,349.8h41.8c0,0-44.7,116.8-28.6,248
											c0,0,310.1-66.1,326.1-392.1C1398.4,226.9,1273.2,207.4,1174.1,243.6z"/>
										<path class="st12" d="M1359.3,463.4c16-8,35.8-11.4,51.3-2.6c14.5,8.2,21.9,25.1,25,41.5c4.4,22.8,2.4,47.1-7.9,67.9
											c-10.3,20.8-29.3,37.6-51.8,43.1c-17.2,4.2-37,1.2-49.4-11.5c-10.8-11.1-14.3-27.3-15.4-42.7
											C1308.2,515.5,1316.6,484.7,1359.3,463.4z"/>
									</g>
									<path class="st14" d="M2073.5,722.9c-1.3-0.9-3.1-0.4-3.8,1.1c-118,238.4-519.7,168.7-618.6,136.6
										c-99.3-32.2-151.1-7.2-151.1-7.2l-167.4,62.4l-54.9,56.9l-47.3,134.5l59.8,269.2c0,0,86.3,163.2,188.5,169
										c102.2,5.8,93.6-219.1,83.9-329.1c-9.7-109.9,53.4-168.4,53.4-168.4s478.3,99.9,752.6-251.1
										C2169.5,795.5,2073.5,722.9,2073.5,722.9z"/>
									<g>
										<g>
											<path class="st2" d="M1449.7,975.3c8.2,1.5,15.7,1.6,23.6-1.2c3.6-1.3,2.9-6.2-0.9-6.5c-6.8-0.6-13.6,0-20.3-1.1
												C1446.4,965.6,1443.9,974.2,1449.7,975.3L1449.7,975.3z"/>
										</g>
										<g>
											<path class="st2" d="M1456.7,956.5c6.5-1.7,13.1-2.6,19.3-5.4c4.1-1.9,1.1-7.9-3-7c-6.2,1.3-12.4,2.6-18.6,4.2
												C1449.1,949.7,1451.4,958,1456.7,956.5L1456.7,956.5z"/>
										</g>
										<g>
											<path class="st2" d="M1454,931c8.9-0.4,18.4-0.7,26.5-4.7c3.6-1.7,1.4-6.5-1.8-6.8c-8.2-0.8-16.5,1.4-24.6,2
												C1448,921.9,1447.9,931.3,1454,931L1454,931z"/>
										</g>
										<g>
											<path class="st2" d="M1444.8,897.5c2.1,0,4.1,0,6.2,0c2.7,0,5.3-2.4,5.2-5.2c-0.1-2.8-2.3-5.2-5.2-5.2
												c-2.1,0-4.1,0-6.2,0c-2.7,0-5.2,2.3-5.1,5.1C1439.8,895.2,1441.9,897.5,1444.8,897.5L1444.8,897.5z"/>
										</g>
										<g>
											<path class="st2" d="M1538.6,978.9c4.5,0.1,9,0.4,13.5,0.2c4.4-0.2,8.4-1.8,12.7-2.2c4.7-0.4,6.5-7.9,1.2-8.8
												c-4.7-0.8-8.4,0.4-13,0.9c-4.8,0.5-9.6,0.1-14.4,0.1C1532.3,969,1532.3,978.8,1538.6,978.9L1538.6,978.9z"/>
										</g>
										<g>
											<path class="st2" d="M1515.5,960.1c8-0.6,16.3-2.2,24.1-3.9c4.2-0.9,3.4-6.4,0-7.7c-7.8-2.9-16.3,1.5-24.1,2.3
												C1509.7,951.4,1509.5,960.6,1515.5,960.1L1515.5,960.1z"/>
										</g>
										<g>
											<path class="st2" d="M1518.6,934.6c5.7-0.4,11.3-0.7,15.6-5c3.7-3.7-1.1-10.2-5.7-7.4c-2.8,1.7-6.7,1.6-9.9,1.9
												c-2.8,0.2-5.2,2.3-5.2,5.2C1513.4,932,1515.8,934.8,1518.6,934.6L1518.6,934.6z"/>
										</g>
										<g>
											<path class="st2" d="M1506.3,906.7c5.1,0,10.3,0,15.4,0c6.4,0,6.4-9.9,0-9.9c-5.1,0-10.3,0-15.4,0
												C1499.9,896.6,1499.9,906.7,1506.3,906.7L1506.3,906.7z"/>
										</g>
										<g>
											<path class="st2" d="M1612.5,980.6c17.8-2.1,36.2-1.9,53.4-7.2c4.3-1.3,3.7-8.4-1.1-8.1c-17.9,1.1-35.9,2.9-53.7,5.4
												C1605.6,971.4,1606.8,981.2,1612.5,980.6L1612.5,980.6z"/>
										</g>
										<g>
											<path class="st2" d="M1631,958.6c7.6-0.3,15.2,0.4,21.3-4.9c3.6-3.1-1-8.7-4.9-6.4c-4.6,2.6-11.3,1.7-16.4,1.9
												C1625,949.6,1624.9,958.9,1631,958.6L1631,958.6z"/>
										</g>
										<g>
											<path class="st2" d="M1652.5,931.5c9-0.3,17-0.8,25.3-4.6c4.7-2.1,1.1-8.7-3.3-7.9c-7.2,1.3-14.7,1.6-21.9,2
												C1645.8,921.4,1645.8,931.7,1652.5,931.5L1652.5,931.5z"/>
										</g>
										<g>
											<path class="st2" d="M1695.6,958.5c12.1,1,23.3,1.6,34.8-2.6c2.7-1,3.8-5,0.9-6.5c-5.1-2.6-9.9-0.6-15.3,0
												c-6.8,0.7-13.6,0.4-20.3,0.2C1689.7,949.2,1689.9,958,1695.6,958.5L1695.6,958.5z"/>
										</g>
										<g>
											<path class="st2" d="M1704.8,934.4c6.2,0.1,12.3,0.5,18.5-0.1c5.8-0.5,10.6-2.1,15.8-4.6c3.8-1.8,1.6-7.1-2-7.3
												c-5.4-0.3-10.4,1.1-15.8,1.6c-5.5,0.5-11,0.4-16.5,0.4C1698.3,924.4,1698.4,934.2,1704.8,934.4L1704.8,934.4z"/>
										</g>
										<g>
											<path class="st2" d="M1740.2,906.9c6,0.1,12.4-0.5,18.3-1.8c5.9-1.2,4.3-10-1.4-10.2c-5.6-0.2-11.3,1.4-16.9,1.5
												C1733.4,896.5,1733.4,906.8,1740.2,906.9L1740.2,906.9z"/>
										</g>
										<g>
											<path class="st2" d="M1773.2,934.6c3.6,3.7,9.1,3.4,13.9,2.7c2.7-0.4,5.5-0.6,8.1-1.3c3.8-1,5.9-4,9.4-5.4
												c2.9-1.2,2.6-5.4-0.8-5.6c-4.5-0.3-9.4,1.6-13.8,2.3c-1.9,0.3-9.2,2.6-10.8,1.3C1775.1,925.1,1769.3,930.6,1773.2,934.6
												L1773.2,934.6z"/>
										</g>
										<g>
											<path class="st2" d="M1805,912.6c11.3,0,21.5-2,32.2-5.6c3.8-1.3,2.3-6.9-1.6-6c-10.3,2.4-20.7,5.5-31.2,7
												C1801.8,908.4,1802.5,912.6,1805,912.6L1805,912.6z"/>
										</g>
										<g>
											<path class="st2" d="M1860,927.8c8.8-2.6,17.5-4.1,25.6-8.6c3-1.7,1-6.4-2.3-5.5c-8.4,2.4-17,4.1-25.3,6.7
												C1853.3,921.9,1855.2,929.2,1860,927.8L1860,927.8z"/>
										</g>
										<g>
											<path class="st2" d="M1884.1,894.8c4.8-1.3,9.8-2.4,14.5-3.9c4.4-1.4,8.2-4.1,12.5-5.6c2.4-0.8,2.9-4.8,0-5.3
												c-4.4-0.9-9,0.4-13.3,1.4c-5.5,1.2-10.9,2.7-16.3,4.2C1875.6,887.2,1878.1,896.5,1884.1,894.8L1884.1,894.8z"/>
										</g>
										<g>
											<path class="st2" d="M1910.4,929.8c5.2-0.2,9.9-1.2,14.7-3.3c4.5-1.9,1.3-9.1-3.3-7.8c-3.8,1.1-7.5,1.9-11.4,2.2
												C1904.7,921.2,1904.6,930.1,1910.4,929.8L1910.4,929.8z"/>
										</g>
										<g>
											<path class="st2" d="M1997,895.1c7.9-3.1,15-6.6,21.6-12c3.8-3.1-1-8.3-4.9-6.4c-6.4,3-12.8,6.2-19.3,8.7
												C1988.3,887.7,1991,897.4,1997,895.1L1997,895.1z"/>
										</g>
										<g>
											<path class="st2" d="M1949.3,897.3c8.1-3.1,16-6.5,23.8-10.4c5.6-2.8,0.7-11.3-4.9-8.4c-7,3.6-14.1,6.8-21.4,9.7
												C1941.2,890.4,1943.6,899.5,1949.3,897.3L1949.3,897.3z"/>
										</g>
										<g>
											<path class="st2" d="M1973.2,859.9c6.5-2.7,12.7-5.7,18.8-9.2c5.6-3.3,0.5-12.1-5.1-8.7c-5.6,3.4-11.5,6.3-17.5,8.9
												C1964.2,853,1967.9,862.1,1973.2,859.9L1973.2,859.9z"/>
										</g>
										<g>
											<path class="st2" d="M2041.9,858c4.6-1.7,9.3-3.3,13.5-5.9c4.6-2.9,8.1-6.8,11.7-10.8c2.5-2.8-0.7-7.7-4.2-5.4
												c-3.9,2.5-7.4,5.5-11.3,8.2c-3.6,2.6-7.8,4.2-12,5.7C2034.6,851.7,2036.7,859.8,2041.9,858L2041.9,858z"/>
										</g>
										<g>
											<path class="st2" d="M2032.5,830.4c2.5-1.7,5-3.3,7.5-5c1.5-1,2.1-2.9,1.2-4.6c-0.9-1.5-3.1-2.2-4.6-1.2
												c-2.5,1.7-5,3.3-7.5,5c-1.5,1-2.1,2.9-1.2,4.6C2028.8,830.7,2031,831.4,2032.5,830.4L2032.5,830.4z"/>
										</g>
										<g>
											<path class="st2" d="M2053.8,790.4c4.6-4.2,9.3-8.2,13.5-12.9c2.6-3-0.9-8.6-4.5-5.9c-5.3,3.9-10.1,8.3-14.9,12.8
												C2043.9,788.2,2049.8,794,2053.8,790.4L2053.8,790.4z"/>
										</g>
										<g>
											<path class="st2" d="M2088.1,804.8c5.9-3.3,11.7-6.6,16.7-11.1c3.1-2.8-0.9-7.4-4.3-5.6c-5.7,2.9-11.1,6.3-16.6,9.5
												C2079.2,800.3,2083.4,807.4,2088.1,804.8L2088.1,804.8z"/>
										</g>
										<g>
											<path class="st2" d="M1352.9,1005.6c-0.1,7.4,0.1,14.4-1.2,21.7c-0.6,3.5,4,5.9,6,2.5c4.3-7.2,2-16.4,1.7-24.2
												C1359.1,1001.5,1352.9,1001.4,1352.9,1005.6L1352.9,1005.6z"/>
										</g>
										<g>
											<path class="st2" d="M1338.3,959.2c0,4.1-0.9,8-1.2,12c-0.2,2.7,1.2,6.2,0.3,8.6c-0.6,1.8,1.3,3.6,3.1,3.1
												c3.7-1.2,4.7-4.6,4.6-8.2c-0.1-5.2,1.2-10.3,1.2-15.5C1346.3,954.1,1338.4,954.1,1338.3,959.2L1338.3,959.2z"/>
										</g>
										<g>
											<path class="st2" d="M1297.5,950.7c-1.3,3.5-1.9,7.7-4,10.8c-1.9,2.9,2.1,5.1,4.3,3.4c3.9-3,4.9-7.9,6.5-12.3
												C1305.9,948.3,1299,946.5,1297.5,950.7L1297.5,950.7z"/>
										</g>
										<g>
											<path class="st2" d="M1330.4,917.4c0.7,4.3,1.1,9.8,4,13.3c1.2,1.5,3.4,0.5,3.9-1c1.5-4.2-0.9-9.8-1.6-14
												C1335.9,911.6,1329.7,913.4,1330.4,917.4L1330.4,917.4z"/>
										</g>
										<g>
											<path class="st2" d="M1347.8,882.4c3.1,7.6,7,15.4,8.4,23.6c0.5,2.9,5,2.1,5-0.7c-0.1-9-3.3-16.6-6.8-24.7
												C1352.7,876.6,1346.1,878.2,1347.8,882.4L1347.8,882.4z"/>
										</g>
										<g>
											<path class="st2" d="M1380,978.9c-0.4-0.8,0.1,0.2,0.1,0.4c0.1,0.4,0.3,0.8,0.4,1.2c0.2,0.8,0.4,1.5,0.6,2.3
												c0.4,1.9,2.5,3.1,4.4,2.9c2-0.3,3.4-1.9,3.5-3.9c0.1-2.1-0.3-4.2-1.1-6.2c-0.9-2.4-3.2-3.8-5.8-2.8
												c-1.1,0.4-1.8,1.2-2.3,2.3C1379.2,976.5,1379.4,977.6,1380,978.9L1380,978.9z"/>
										</g>
										<g>
											<path class="st2" d="M1393,963.7c3.4,2,6.7,3.9,9.9,6.2c1.4,1,2.7,2.1,4.1,3.2c1.5,1.2,3.3,1.9,4.7,3.1
												c1.6,1.4,5.1,0.6,4.8-2c-0.5-4.2-3.8-6.9-7-9.3c-4-3-8.3-5.4-12.7-7.8C1392.6,954.8,1388.8,961.3,1393,963.7L1393,963.7z
												"/>
										</g>
										<g>
											<path class="st2" d="M1397.5,939.7c6.6,2.5,14,5,20.9,2.7c3.3-1.1,3.1-5.4,0-6.5c-3.1-1.1-6-1.4-9.2-2
												c-3.2-0.6-6.3-1.7-9.3-2.8C1394.5,929.1,1392.2,937.7,1397.5,939.7L1397.5,939.7z"/>
										</g>
										<g>
											<path class="st2" d="M1394,912.6c5.8,1.1,12,1.8,17.8,0.3c4.2-1,5.5-3.3,7-7.1c0.8-2.1-1.9-3.8-3.6-2.8
												c-0.9,0.5-1.7,1.6-2.5,2c-0.3,0.1-3.6,0.4-4.1,0.5c-4.2,0.5-8.2,0.5-12.4-0.2C1391.3,904.7,1389.2,911.7,1394,912.6
												L1394,912.6z"/>
										</g>
										<g>
											<path class="st2" d="M1395,879.8c2.1-0.1,4.2-0.1,6.3-0.2c2.3-0.1,4.6-2,4.5-4.5c-0.1-2.5-2-4.4-4.5-4.5
												c-2.1-0.1-4.2-0.1-6.3-0.2c-2.4-0.1-4.8,2.2-4.6,4.6C1390.4,877.6,1392.4,879.9,1395,879.8L1395,879.8z"/>
										</g>
									</g>
									<path class="st2" d="M1154.1,865.7c0,0,69.7-0.6,124.1-56.5c0,0,54.4,19.2,51.2,51.3c-3.2,32.1-133.7,107.4-169.8,73.7
										C1123.4,900.5,1154.1,865.7,1154.1,865.7z"/>
									<g>
										<path class="st2" d="M2149.1,780.8c-55.4,93-230.9,275.9-737.7,208.9l-33.7,118.4c16-39.7,38.2-60.2,38.2-60.2
											s478.3,99.9,752.6-251.1C2168.9,796.3,2160.7,789.8,2149.1,780.8z"/>
										<path class="st2" d="M1278.6,1545.3c102.2,5.8,93.6-219.1,83.9-329.1c-2.1-23.5-0.8-44.7,2.5-63.4l-110.5,388.3
											C1262.4,1543.4,1270.5,1544.8,1278.6,1545.3z"/>
									</g>
									<g>
										<path class="st15" d="M1418.7,472.5c-10.9,15.6-20,32.6-26.9,50.3c1.8-3.9,7.9-4,11-1s3.9,7.6,4.1,11.9
											c0.9,20.1-8.3,40.4-23.9,53.1c-3.8,3.1-9,5.8-13.3,3.4c-16.5-9.1-13.9-50.8-4.7-64.4c6.1-8.9,14.2-17.5,21.3-25.6
											C1395.1,490.4,1411.6,482.7,1418.7,472.5z"/>
									</g>
									<path class="st16" d="M1129.1,470c0,0,105.9-77.6,178.2,36.2C1307.3,506.2,1189.6,602.9,1129.1,470z"/>
									<ellipse class="st17" cx="1218.3" cy="493.4" rx="34.8" ry="46.7"/>
									<g>
										<path class="st16" d="M1087.6,466.4c0,0-52-74.9-125.3-16.5C962.4,449.9,1017.9,540,1087.6,466.4z"/>
										
											<ellipse transform="matrix(0.3257 -0.9455 0.9455 0.3257 253.8342 1279.2135)" class="st17" cx="1023.7" cy="461.7" rx="32.4" ry="24.2"/>
									</g>
									<path class="st15" d="M1115.7,415.7c0,0,121.7-68.7,187.8,37l26.2-25.5C1329.6,427.1,1240.5,279.5,1115.7,415.7z"/>
									<path class="st15" d="M1092.4,427.6c0,0-52.7-59.7-108-15.1l-9.3-18.6C975.1,393.9,1050.6,331,1092.4,427.6z"/>
									<path class="st15" d="M1056.6,662.7c0,0,101.6,42.1,161.7-40.6c0,0-12.4,112.4-130.8,88.4
										C1065.6,706.1,1051.6,684.5,1056.6,662.7L1056.6,662.7z"/>
								</g>
								<ellipse class="st18" cx="1841.5" cy="1255.2" rx="335" ry="311.9"/>
								<ellipse class="st10" cx="1837.8" cy="1288.7" rx="278" ry="258.9"/>
								<path class="st3" d="M2002.5,1276c10.3,4.5,13.9,17.3,14.8,28.5c1.7,23.4-3.5,47.7-16.7,67.1
									c-13.2,19.4-34.8,33.5-58.2,35.4c-39.7,3.3-36.7-54.9-24.3-79.6C1929.1,1305.3,1978,1265.4,2002.5,1276z"/>
								<path class="st3" d="M1659,1230.1c-11.3,0.3-19.4,10.7-24.4,20.8c-10.4,21-14.7,45.5-9.8,68.4c4.9,23,19.6,44.1,40.6,54.7
									c35.5,18,54.6-37,52.5-64.6C1715.9,1284.9,1685.7,1229.5,1659,1230.1z"/>
								<path class="st3" d="M1742.6,1443.4l-28.9,231c0,0,54.8,64.2,133.3,7.9c0,0-33.2-187.9-5.6-276.9L1742.6,1443.4z"/>
								<path class="st4" d="M1769.6,1596.3c20.3-5.1,45.3-20.9,63.2-33.6c-3.8-54.8-4-116.4,8.7-157.2l-98.8,37.9l-14.7,117.2
									C1736.3,1580.3,1749.9,1601.2,1769.6,1596.3z"/>
								<path class="st3" d="M1691.3,1251.9c-10,71.8-7.6,186.6,69,306c0,0,156.2-31.3,191.6-250.3c3.4-21.1,2.3-42.7-3.3-63.4
									c-14.1-52-52.5-142.5-147.1-117.8C1742.7,1141.8,1699.6,1191.8,1691.3,1251.9z"/>
								<path class="st7" d="M1972.9,1299.8c2.1-0.3,4.6-0.4,6.2,1c1.1,0.9,1.6,2.3,2.1,3.6c5.8,16.8,4.5,36-3.4,51.9
									c-7.9,16-22.3,28.5-39.2,34.2c-3.5,1.2-7.9,1.9-10.6-0.6c-2.1-1.9-2.4-5-2.7-7.8C1922.6,1347.7,1931.4,1306.5,1972.9,1299.8
									z"/>
								<path class="st4" d="M1948.6,1244.2c-11.8-43.7-40.9-114.8-106.2-121.4c-40.7,89-76.3,180.2-106.7,273.2
									c15,2.4,30,4.7,45,7.1c-19.8,43.7-29.7,91.7-29.7,139.6c3,5.1,6.1,10.1,9.4,15.2c0,0,156.2-31.3,191.6-250.3
									C1955.3,1286.5,1954.2,1264.9,1948.6,1244.2z"/>
								<path class="st14" d="M1801.5,1126.5c-52.9,13.9-93.1,55.8-106.7,107.9c15.5-0.6,31.2-5.1,44.8-12.3
									c29.1-15.3,51.8-40.3,76.9-61.5c-12.3,22.5-19.2,48-19.9,73.7c11.1-23.3,25.2-45.1,41.8-64.9c13.4,37.4,40.2,69.9,74.4,90.2
									c12.8,7.6,26.6,13.5,41,17.6c-0.5-11.1-2.2-22.2-5.1-33C1934.5,1192.2,1896.1,1101.7,1801.5,1126.5z"/>
								<path class="st19" d="M1801.5,1126.5c-52.9,13.9-93.1,55.8-106.7,107.9c15.5-0.6,31.2-5.1,44.8-12.3
									c29.1-15.3,51.8-40.3,76.9-61.5c-3.9,7.1-7.2,14.5-10,22.2c7.4-18.9,17.7-36.7,30.6-52.4c5.5,31.1,24.5,58.4,47.9,79.6
									c19.9,18,42.8,32.1,66.1,45.5c-0.7-3.8-1.6-7.5-2.6-11.2C1934.5,1192.2,1896.1,1101.7,1801.5,1126.5z"/>
							</g>
							<g>
								
									<rect x="1761.6" y="1299.8" transform="matrix(0.9844 0.1761 -0.1761 0.9844 257.713 -296.1946)" class="st20" width="72.1" height="8.2"/>
								<circle class="st20" cx="1713.7" cy="1303.8" r="63.5"/>
								<path class="st21" d="M1746.9,1249.7c-14,15.7-27.5,31.8-40.4,48.4c11.1-5.5,22.6-10.3,34.2-14.3
									c-22.2,22.9-42.8,47.4-61.5,73.3c1,0.6,2,1.3,3.1,1.9c27.8-26.1,54.3-53.6,79.2-82.5c-6.6,0.1-13.2,0.1-19.8,0.2
									c6.5-5,13-10,19.4-15C1757,1257,1752.2,1253,1746.9,1249.7z"/>
								<path class="st21" d="M1687.4,1293.7c14.3-17,28.6-34.1,42.9-51.1c-5.3-1.4-10.9-2.2-16.6-2.2c-0.2,0-0.3,0-0.5,0
									c-16.8,20-33.5,40.1-50.3,60.1c5.2-2,10.5-4.1,15.7-6.1c-6.9,13-14,25.8-21.3,38.5c0.7,1.4,1.4,2.7,2.3,4
									c14.8-17,29.6-34.1,44.3-51.1C1698.4,1288.5,1692.9,1291.1,1687.4,1293.7z"/>
								<circle class="st20" cx="1873.9" cy="1321.4" r="63.5"/>
								<path class="st21" d="M1836.7,1324.7c19.3-21.5,39.2-42.4,59.8-62.7c-7-2.7-14.6-4.2-22.6-4.2c-3.7,0-7.3,0.3-10.9,0.9
									c-16.1,17.4-32.3,34.8-48.4,52.2c7.3-2.3,14.1-5.8,20.3-10.3c-5.8,16.6-11.5,33.2-17.3,49.9c2,3.9,4.4,7.5,7.2,10.9
									c10.5-13.4,20.1-27.5,28.8-42.2C1847.9,1321.1,1842.3,1322.9,1836.7,1324.7z"/>
								<path class="st21" d="M1930.9,1295.6c-2.8,3.2-19.1-1.1-22.2-2.4c1.8-1.9,8-7.8,13-13.7c-3-3.4-6.3-6.5-9.9-9.2
									c-5.9,4.9-11.1,13.1-15.5,17.8c-8.9,9.6-17.9,19-27.1,28.3c12.4-4.4,24.8-8.8,37.2-13.1c-20.3,24.7-40.6,49.5-59.1,75.6
									c1.4,0.6,2.8,1.2,4.2,1.8C1879.2,1353.6,1905.7,1325.2,1930.9,1295.6z"/>
							</g>
						</g>
					</g>
					<path class="st22" d="M1124.9,1559.8"/>
					<g>
						<polygon class="st5" points="1468.8,1609.6 1468.4,1790.2 1359.8,1688.7 1378.6,1651.3 1451.1,1656 						"/>
						<path class="st23" d="M1278.6,1545.3c10.7,4.1,172.5,204.7,172.5,204.7l10.9-103.6l108.2,225.8H1348L1278.6,1545.3z"/>
						<g>
							<path class="st5" d="M1536.1,1862.1c-7.5-19.9-14.8-39.8-22.3-59.6c-14.5-38.4-31.2-75.7-47.1-113.6
								c-2.5-5.9-4.9-11.9-7.3-17.9l-2,19c6.2,17.4,13.1,34.5,20,51.7c15.9,39.7,30.2,80,44.8,120.2c1.2,3.4,2.5,6.8,3.7,10.2h14
								C1538.6,1868.8,1537.4,1865.5,1536.1,1862.1z"/>
							<path class="st5" d="M1500.3,1861c-5.5-16.3-10.8-32.6-16.5-48.8c-10-28.4-20.1-56.7-30.3-85l-2.3,21.6
								c1,2.9,1.9,5.9,2.9,8.8c10.7,32.4,21.4,64.8,31.4,97.4c1.8,5.7,3.6,11.4,5.4,17.1h13.2
								C1502.8,1868.4,1501.6,1864.8,1500.3,1861z"/>
							<path class="st5" d="M1448.7,1833.4c-5.4-19.6-10.2-39.3-16.1-58.7c-7.2-23.7-13.9-47.6-19.7-71.7c-4.1-5-8.4-10.3-12.9-15.8
								c5.8,30.5,13.1,60.6,21.6,90.4c5.6,19.5,10.1,39.3,15.2,59c2.4,9.2,4.8,18.4,7.5,27.5c0.7,2.5,1.4,5.2,2.2,8h13.3
								c-1.2-3.8-2.3-7.5-3.3-11.3C1453.9,1851.6,1451.2,1842.5,1448.7,1833.4z"/>
							<path class="st5" d="M1421.8,1869.5c-1.9-8.3-4.2-16.6-5.9-25c-3.7-17.1-6.7-34.4-9.6-51.7c-2.9-17.3-5.2-34.7-8.2-51.9
								c-3-17.3-6.7-34.6-10.2-51.8c-1.5-7.5-3-15-4.6-22.4c-4.1-4.9-8.2-10-12.3-15c5.9,29,11.1,58.2,15.5,87.4
								c5.5,36,9.9,72.1,17.1,107.8c1.7,8.5,4.1,16.8,6,25.2h12.8C1422.2,1871.2,1422,1870.3,1421.8,1869.5z"/>
							<path class="st5" d="M1371.3,1784.4c-7.8-40.2-15.5-80.5-21.8-121c-2.4-15.1-4.5-30.2-6.4-45.4c-3.1-3.7-6.1-7.3-9-10.8
								c7.5,77.3,21.9,153.9,36.2,230.2c2.2,11.6,4.6,23.2,7.4,34.7h11.4C1382,1843.2,1377,1813.7,1371.3,1784.4z"/>
						</g>
						<g>
							<g>
								<polygon class="st14" points="1484.2,1703.1 1445.8,1646.8 1475.7,1607.5 								"/>
								<path class="st18" d="M1388.1,1529.3l96,78.8c0,0,0.2,94.9,0.1,95c-0.1,0.2-11.7-89.5-11.7-89.5l-17.7,89.2
									c0,0-42.4-71.3-45.5-74S1388.1,1529.3,1388.1,1529.3z"/>
							</g>
							<path class="st24" d="M1551.7,1258.6c15.9,82.3,22.4,208.9-55.6,299.2c0,0-42.8-4.3-76.3-46.9l21.1,128.7
								c0,0-123.5-75.5-150.8-140.8l2.7-117.2c0,0-35.6-29.2-46-79.7c-10.4-50.5,14.8-65.3,44.5-42.3c0,0-38.7-131.4,48.5-160.4
								c28.3-9.4,58.3-4.7,85.8,6.1C1491.2,1130.9,1538.3,1189.3,1551.7,1258.6z"/>
							<path class="st12" d="M1333.8,1557.3c45.8,44.9,107,82.4,107,82.4l-21.1-128.7l-105.6-92.9L1333.8,1557.3z"/>
							<path class="st12" d="M1551.7,1258.6c-13.4-69.2-60.5-127.6-126.2-153.3c-3.8-1.5-7.7-2.9-11.7-4.1
								c49.8,38.6,119.3,121.6,130.4,298h-28.6l6,50.2l-29.6,1.9c0,0,10.2,50.2,3.4,106.4c0.5,0.1,0.8,0.1,0.8,0.1
								C1574.2,1467.5,1567.6,1340.9,1551.7,1258.6z"/>
							<polygon class="st18" points="1440.9,1639.6 1454.8,1702.8 1398.1,1663.5 							"/>
							<polygon class="st14" points="1285.7,1463 1440.9,1639.6 1412.8,1730.5 1245.9,1495.5 							"/>
						</g>
						<path class="st12" d="M1309.6,1317.8c0,0-20.8-48.3-43-43.5c-22.2,4.8,1.6,51.1,1.6,51.1s-0.9-21.1,4.3-20
							s-5.1,37.9,27.5,52.9C1318.5,1366.9,1309.6,1317.8,1309.6,1317.8z"/>
						<g>
							<path class="st16" d="M1484.2,1313.9c0,0-61.3-78.3-115.1-4.2C1369.1,1309.7,1450,1388.1,1484.2,1313.9z"/>
							<circle class="st10" cx="1426.6" cy="1311.9" r="33.2"/>
							<circle class="st20" cx="1426.6" cy="1311.9" r="22.3"/>
						</g>
						<path class="st20" d="M1335.6,1268.5c127.8-63.7,161,34.9,161,34.9c-46.9-62.3-141.3-21.9-141.3-21.9L1335.6,1268.5z"/>
						<path class="st20" d="M1291.3,1259.6l15.3,34.7l15.5,79.3l30.1-30.1l-30.4-113.5c0,0,85.1-40.2,119.2-20.9
							c34.1,19.3,188,85.9,174.4-26.3c0,0-17.8,33-42.3,5.9c-24.5-27.1-189.6-202.3-273-84.2c0,0-76.7,28.8-59.7,104.6l14.2,43.5
							C1254.6,1252.7,1279.9,1247.2,1291.3,1259.6z"/>
						<path class="st21" d="M1362.8,1143c-15.4-15.2-30.8-30.5-46.2-45.7c36.8,8.2,65.6,35.8,95,59.3
							c31.3,25.1,66.6,47.1,106.2,53.6c25.3,4.1,52.6,0.7,75.3-10.6c-5.9,0.2-12.7-2.5-20.1-10.7c-24.5-27.1-189.6-202.3-273-84.2
							c0,0-1.1,0.4-2.9,1.2c7.9,0.9,15.6,3.1,22.8,6.4C1335.9,1119.6,1349.5,1131.4,1362.8,1143z"/>
					</g>
					<g>
						<path class="st14" d="M875.3,1314.4l42.4-12.8l130.6,72.1l46,498.3c0,0-341.4-2.1-336.1-387.8L875.3,1314.4z"/>
						<path class="st2" d="M775.7,1541.5c2.8-0.2,5.1,2,6.9,4.1c13.5,15.2,25.5,31.6,35.8,49.1c30.4-96.9,60.9-193.8,91.3-290.6
							l-34.5,10.4l-117.1,169.9c-0.3,25.2,0.8,48.7,3.2,70.7c2.9-3.4,5.8-6.8,8.9-10C771.8,1543.3,773.5,1541.6,775.7,1541.5z"/>
						<g>
							<g>
								<polygon class="st14" points="729.5,1555.5 754.9,1492.3 717.2,1460.3 								"/>
								<path class="st18" d="M786,1365.1l-76.9,97.6c0,0,20.2,92.7,20.3,92.8c0.1,0.1-7.8-89.9-7.8-89.9l36.5,83.3
									c0,0,26.1-78.7,28.6-82.1C789.2,1463.5,786,1365.1,786,1365.1z"/>
							</g>
							<path class="st25" d="M568.1,1135.8c2.1,83.8,22.9,208.9,118.5,280.3c0,0,40.9-13.3,64.5-62.1l7,130.3
								c0,0,104.5-100.2,117.1-169.9l-27.8-113.9c0,0,28.5-36.2,27.8-87.7c-0.7-51.6-28.4-60.6-52.5-31.7c0,0,9.7-136.6-81.8-146.3
								c-29.7-3.1-57.9,7.9-82.5,24.3C599.8,998.2,566.3,1065.3,568.1,1135.8z"/>
							<path class="st26" d="M751.1,1354l7,130.3c0,0,21-20.1,45.2-48.6l12.1-200.2L751.1,1354z"/>
							<path class="st26" d="M861.8,1097.4c-9.3,11.5-17.1,24.2-23.4,37.6c1.6-2.9,6.3-2.7,8.6-0.2c2.3,2.5,2.7,6.1,2.6,9.4
								c-0.3,15.6-8.4,30.9-21.2,39.9c-3.1,2.2-7.3,4-10.5,2c-12.3-7.9-8.2-40-0.4-50.1c5.2-6.6,11.9-12.9,17.8-18.8
								C842.6,1110.1,855.7,1104.9,861.8,1097.4z"/>
							<path class="st26" d="M622.4,1303.8c-7.3-0.6-14.6-1.2-21.9-1.8c17.9,42.9,45.2,83.5,86.2,114.1c0,0,6-2,14.8-7.2
								C669.3,1378.8,642.4,1343.1,622.4,1303.8z"/>
							<path class="st26" d="M593.6,1174.2c1.2-7.5,0.4-15.2-0.4-22.8c-3.6-35.6-7-71.6-2.8-107.2c0.4-3.7,1-7.5,1.6-11.2
								c-16.4,31.2-24.9,66.5-23.9,102.8c0.7,26.8,3.3,57.9,9.6,90c3-11.3,6.5-22.5,10.5-33.5
								C590.4,1186.4,592.6,1180.5,593.6,1174.2z"/>
							<path class="st25" d="M766.3,1140.5c-7.8-24.5-19.1-48-24.2-73.2c-7.4-37-0.9-75.8-8.8-112.8c-1.5-6.9-3.5-13.7-5.9-20.3
								c-24.7,0.9-48,10.9-68.8,24.8c-28.5,19-51,44.6-66.4,74c-0.6,3.7-1.2,7.4-1.6,11.2c-4.2,35.6-0.8,71.6,2.8,107.2
								c0.8,7.6,1.5,15.3,0.4,22.8c-1,6.3-3.2,12.2-5.4,18.2c-3.9,11-7.4,22.2-10.5,33.5c-5.6,20.9-9.7,42.3-12.2,63.8
								c-0.3,2.4-0.5,5,0.9,6.9c1.7,2.5,5.1,2.9,8.1,3.2c8.6,0.7,17.3,1.4,25.9,2.1c7.3,0.6,14.6,1.2,21.9,1.8
								c20,39.3,46.9,75,79.1,105.1c7.1-4.2,16.1-10.6,25.1-19.8c6.1-12.4,12.3-24.7,18.8-36.5
								C780.7,1288.7,788.4,1210.1,766.3,1140.5z"/>
							<polygon class="st18" points="758.1,1484.2 758.1,1548.9 805,1498.4 							"/>
							<polygon class="st14" points="871.8,1278.4 758.1,1484.2 805,1567 917.7,1301.6 							"/>
						</g>
						<g>
							<path class="st16" d="M708.1,1170.2c0,0-67.4-34.4-80.8,34C627.3,1204.2,708.3,1232.4,708.1,1170.2z"/>
							<circle class="st20" cx="676.2" cy="1186.1" r="25.3"/>
						</g>
						<path class="st26" d="M615.6,1316.7c3.5,0.2,70.4-3.5,103.9-58.5c0,0,10.8,59.4-88.7,83.2L615.6,1316.7z"/>
						<path class="st20" d="M620.8,1179.1c0,0,34.1-65.5,100.9-29.1l-7.4-34.5C714.3,1115.5,632.1,1109.4,620.8,1179.1z"/>
					</g>
					<g>
						<path class="st7" d="M1030.3,1367.2c0,0-165,202.2-92.4,462.7c0,0,54.8,42,210.2,42h230.5c0,0-57.2-457.6-152.6-504.1
							S1030.3,1367.2,1030.3,1367.2z"/>
						<path class="st27" d="M1186.3,1216.2c0,0-19.5,140,11.7,195.3l-65.1,46.1l-81.8-49.2c0,0,31.6,6.9,28.8-177.4L1186.3,1216.2z"
							/>
						<g>
							<g>
								<path class="st12" d="M1002.6,1039c-6.3-6.6-45.8-80.2-72.3-52.5s80.1,184.4,80.1,184.4L1002.6,1039z"/>
								<path class="st27" d="M942.4,1002.9c9.3,11.5,17.1,24.2,23.4,37.6c-1.6-2.9-6.3-2.7-8.6-0.2c-2.3,2.5-2.7,6.1-2.6,9.4
									c0.3,15.6,8.4,30.9,21.2,39.9c3.1,2.2,7.3,4,10.5,2c12.3-7.9,8.2-40,0.4-50.1c-5.2-6.6-11.9-12.9-17.8-18.8
									C961.6,1015.5,948.5,1010.4,942.4,1002.9z"/>
								<path class="st12" d="M978.8,1054.9c0,0,15.9,179.9,151.9,266.5c0,0,119-32.4,137.1-296.4c0.7-9.6,0.4-19.3-0.8-28.8
									c-5.4-42.2-26.1-156.5-93-159C1092,834.2,953.2,842.9,978.8,1054.9z"/>
								<path class="st27" d="M1237.7,1039c6.3-6.6,45.8-80.2,72.3-52.5s-80.1,184.4-80.1,184.4L1237.7,1039z"/>
								<path class="st28" d="M1297.8,1002.9c-9.3,11.5-17.1,24.2-23.4,37.6c1.6-2.9,6.3-2.7,8.6-0.2c2.3,2.5,2.7,6.1,2.6,9.4
									c-0.3,15.6-8.4,30.9-21.2,39.9c-3.1,2.2-7.3,4-10.5,2c-12.3-7.9-8.2-40-0.4-50.1c5.2-6.6,11.9-12.9,17.8-18.8
									C1278.6,1015.5,1291.8,1010.4,1297.8,1002.9z"/>
								<path class="st27" d="M1267,996.1c-5.4-42.2-26.1-156.5-93-159c-16.9-0.6-36.3-0.7-56.1,1.4
									c-11.2,55.2-38.1,204.4-26.2,317.2l27.8-5.7l-18.1,47.5c0,0,79.2,15.3,95.1-35c0,0-9.7,62.6-65.7,77.2l1.4,81.3
									c13.3-4.6,118.8-48.6,135.8-296C1268.5,1015.3,1268.2,1005.7,1267,996.1z"/>
							</g>
							<g>
								<path class="st16" d="M1251.2,1041.8c0,0-88.5-45.2-106.2,44.7C1145,1086.5,1251.4,1123.5,1251.2,1041.8z"/>
								<circle class="st20" cx="1198.1" cy="1064.2" r="33.2"/>
							</g>
							<g>
								<path class="st16" d="M1011.8,1048.8c0,0,60.8-31,72.9,30.7C1084.7,1079.5,1011.6,1104.9,1011.8,1048.8z"/>
								<circle class="st20" cx="1048.2" cy="1064.2" r="22.8"/>
							</g>
							<path class="st20" d="M1124.6,1054.9c0,0,66.6-71.2,130-27.2l-12-36.8C1242.5,990.9,1158.5,975,1124.6,1054.9z"/>
							<path class="st20" d="M1103.8,1046.8c0,0-78.4-50.7-120.7,8.1l-0.2-38.4C983,1016.6,1051.3,979.3,1103.8,1046.8z"/>
						</g>
						<path class="st3" d="M1128.9,1466.7c0,0,47.6-110,75.1-119.3c27.4-9.4,44.5,6.4,44.5,6.4S1221.3,1423,1128.9,1466.7z"/>
						<path class="st3" d="M1132.5,1466.7c0,0-47.6-110-75.1-119.3c-27.4-9.4-44.5,6.4-44.5,6.4S1040.1,1423,1132.5,1466.7z"/>
						<g>
							<path class="st27" d="M1096.6,1431.8c-2.7,84.3-2.9,168.6-2.9,252.9c0,23.9-0.1,47.8,1.2,71.7c0.4,7.7,11.5,7.7,11.9,0
								c2.3-42,1.5-84.4,1.2-126.4c-0.3-42.1-0.6-84.3-1.2-126.4c-0.3-23.9-0.9-47.8-1.7-71.7
								C1104.9,1426.3,1096.8,1426.3,1096.6,1431.8L1096.6,1431.8z"/>
						</g>
						<g>
							<path class="st27" d="M1162.6,1416.9c-4.2,90.8-3.3,181.7-3.4,272.6c0,25.6-0.2,51.3,1.1,76.9c0.4,8.2,13.2,8.2,12.8,0
								c0-0.3,0-0.7,0-1c-0.4-8.1-12.3-8.2-12.7,0c0,0.3,0,0.7,0,1c-0.4,8.2,12.4,8.2,12.8,0c2.2-45.2,1.1-90.6,1-135.8
								c-0.1-45.6,0.1-91.2-0.8-136.8c-0.5-25.6-1.4-51.3-2.6-76.9C1170.4,1411.7,1162.9,1411.7,1162.6,1416.9L1162.6,1416.9z"/>
						</g>
						<g>
							<path class="st8" d="M1024.7,1859.7c-1.4,1.4-1.6,3.1-0.6,4.9c1.1,1.9,4.2,2.6,5.8,0.7c4.2-5.2,2.4-12.9,1-18.9
								c-2-9-3.4-17.9-4.2-27c-0.8-9.6-1.5-19.1-1.6-28.7c-0.1-9.9,0.5-19.9-0.2-29.8c-1.4-19.1-2.6-38.3-5-57.3
								c-2.4-19.4-4.3-38.7-3.5-58.3c0.8-22,6.3-43.3,7.1-65.3c0.3-8.3-11.9-8-12.8,0c-2,19-6.2,37.7-7.6,56.7
								c-1.4,18.9-0.4,37.8,1.8,56.6c2.3,19,3.4,38.2,5.6,57.2c2.2,18.9,0.5,37.8,2.5,56.7c1.1,10.6,2.2,21.5,4.8,31.9
								c2.1,8.2,5.2,15.4,5.8,23.9c0.6-1.1,1.2-2.1,1.8-3.2c0.7,0,1.4,0.1,2.1,0.1C1026.7,1859,1025.4,1858.9,1024.7,1859.7
								L1024.7,1859.7z"/>
						</g>
						<g>
							<path class="st8" d="M986.7,1573.9c0.4,10.8,3.3,21.3,6.6,31.6c1.6,5.1,3,10.2,4.7,15.3c0.8,2.5,1.8,4.9,2.6,7.4
								c0.8,2.6,1.1,5.2,2.6,7.6c1.9,3.1,6.3,2.3,7.5-1c1.6-4.7-1.1-9.7-2.7-14.1c-1.9-5-3.6-10-5.5-15c-3.9-10.3-7.8-20.7-8.7-31.9
								C993.3,1569.4,986.5,1569.3,986.7,1573.9L986.7,1573.9z"/>
						</g>
						<g>
							<path class="st8" d="M1256.3,1876c0.2-2.3,1.6-4.1,2.2-6.3c0.6-2.4,0.8-5,1.1-7.4c0.6-5.7,1.4-11.4,2.2-17.1
								c1.6-10.2,2.3-20.4,3.3-30.7c0.9-10.5,2-20.7,0.5-31.2c-0.8-5.3-1.9-10.5-2-15.9c-0.1-5.3,0.3-10.6-0.2-16
								c-1.9-21.5-3-43-6-64.5c-3.1-22.2-6.2-44.4-9-66.7c-1.3-10.1-2.1-20.2-2.7-30.4c-0.2-3.1-0.4-6.2-0.3-9.3
								c0-1.4,0.1-2.8,0.4-4.2c0.1-0.5,0.4-1.1,0.5-1.5c0.2-1.7,1.5-1.1-0.8,0.3c4.4-2.7,2.2-8.8-2.5-9.3
								c-13.3-1.3-9.2,23.7-8.8,31.3c0.6,11.5,2.5,22.9,3.8,34.4c1.2,11.5,2.9,22.9,4.6,34.4c3.5,23.4,6.5,46.6,8,70.3
								c0.3,5.4,0.9,10.7,1.5,16.1c0.6,5.9,0,11.9,0.5,17.9c0.4,5.1,1.6,10.1,2.4,15.1c1,6,1,11.9,0.6,18c-0.7,12.3-1.3,24.7-2.5,37
								c-0.7,6.7-1.4,13.4-1.8,20.1c-0.3,5.3-1.2,11.1-0.5,16.5C1251.1,1880.2,1256,1879,1256.3,1876L1256.3,1876z"/>
						</g>
						<g>
							<path class="st8" d="M1250.7,1648.2c6.2-11.7,10.1-23.7,13.1-36.6c1.4-6.2,3.3-12.2,4.7-18.4c1.1-4.6,2.5-11.4-1.8-14.8
								c-1.6-1.3-4.2-1.8-5.8,0c-3.3,3.9-3.4,9.9-4.7,14.7c-1.7,6.4-3,12.8-4.2,19.3c-1.3,6.9-2.2,13.8-3.9,20.6
								c-1.3,5-3.9,10.3-1,15.2C1247.9,1649.5,1250,1649.6,1250.7,1648.2L1250.7,1648.2z"/>
						</g>
					</g>
					<path class="st20" d="M1136,1060.3"/>
					<g>
						<path class="st16" d="M789,447.1c0,0-53.5-43.7-94.7,14.1C694.3,461.2,753.6,515.3,789,447.1z"/>
						
							<ellipse transform="matrix(5.236468e-02 -0.9986 0.9986 5.236468e-02 262.0672 1190.1802)" class="st17" cx="758.1" cy="457" rx="24.6" ry="18.3"/>
					</g>
					<path class="st4" d="M826.6,479.7c0,0,31.5-68.4,59.4-32.9s12,94.2-46,101.8L826.6,479.7z"/>
					<path class="st21" d="M635.8,388.2c10.3,10.6,25,15.7,39.6,18.3c40.3,7.2,83.4-3.1,116.1-27.6c-11.8,22.8-1.8,44.6,14.9,64.1
						c0.9,1,1.8,2,2.2,3.3c0.4,1.4,0.1,2.8-0.2,4.2c-3.4,18.9,4.1,39.4,19,51.6c-1.8,0.7-1.2,0.2-1.5-1.7
						c-2.2-15.2,7.7-29.4,18.4-40.6c7.6-7.9,17-15.6,27.9-15.2c18.7,0.7,25.9,24.3,27.1,43c1.1,18.7-8.1,37.7-23.5,48.4
						c-2.9,2-6.3,4-7.4,7.4c-1.1,3.3,0.3,6.9,1.7,10.1c14.2,32,34.9,61.2,60.4,85.1c-12-70.4,24.8-139.9,26.9-211.3
						c0.7-22.6-2.4-45.9-13.6-65.6c-11.2-19.6-31.7-34.9-54.3-35.4c-6-23-30.3-35.9-53.8-39.6c-23.5-3.7-47.5,3-69.2,12.8
						s-41.8,22.7-63.5,32.5c-10.8,4.9-22.6,9.1-34.3,7.5s-23.3-10.7-23.8-22.6c-7,21.1-2.5,45.6,11.4,62.9
						c-13.8,0.8-27.3-9.8-29.7-23.3C624.7,366,629.4,381.6,635.8,388.2z"/>
					<path class="st20" d="M877,364.7c-2.1-1.9-4.5-3.8-7.4-3.8c-2.8,0-5.1,1.8-7.3,3.5c-10.7,8.6-21.4,17.2-32.2,25.8
						c-3-20.6-5.9-41.2-8.9-61.8c-31.2,26.8-71.2,43.1-112.2,45.7c-18.9,1.2-38.9-0.7-54.4-11.6c-5-3.5-9.3-8.2-12.5-13.5
						c1.9,11.3,6.5,22.2,13.8,31.2c-13.8,0.8-27.3-9.8-29.7-23.3c-1.5,9.2,3.2,24.8,9.6,31.4c10.3,10.6,25,15.7,39.6,18.3
						c40.3,7.2,83.4-3.1,116.1-27.6c-11.8,22.8-1.8,44.6,14.9,64.1c0.9,1,1.8,2,2.2,3.3c0.4,1.4,0.1,2.8-0.2,4.2
						c-3.3,18.3,3.6,38,17.5,50.3c0-0.1,0-0.3,0-0.4c-2.2-15.2,7.7-29.4,18.4-40.6c7.6-7.9,17-15.6,27.9-15.2
						c18.7,0.7,25.9,24.3,27.1,43c1.1,18.7-8.1,37.7-23.5,48.4c-2.9,2-6.3,4-7.4,7.4c-1.1,3.3,0.3,6.9,1.7,10.1
						c14.2,32,34.9,61.2,60.4,85.1c-7.4-43.6,3.9-86.9,14.1-130.5C940.4,453.6,917.9,400.6,877,364.7z"/>
					<g>
						<g>
							<path class="st27" d="M1649.7,907.5c2.5,13.4,129.2-74.4,257.9-85.7c51.8-4.5,93.9-43.6,102-95v0
								c6.4-40.4-9.5-81.1-41.6-106.4l-152.8-120.7C1815.2,499.6,1634.5,827.5,1649.7,907.5z"/>
							<path class="st29" d="M1903.1,569.1l-88-69.5c0,0-180.7,327.9-165.5,407.9c2.2,11.6,96.7-52.1,205.2-77.1
								C1887.7,747.5,1904.4,658.2,1903.1,569.1z"/>
							<path class="st12" d="M1475.7,526.2l-27.6,88l26.1,37.6l-26.1,82.4l125.4,280.7c0,0,297.6-185.7,269.7-424.2
								c0,0,55.1-77,23.3-170C1834.5,327.9,1537.2,304.5,1475.7,526.2z"/>
							<path class="st27" d="M1866.4,420.9c-15.1-44-89.7-72.5-170.6-66.7c-56.9,72.8-147.8,190.9-147.8,225.4l9.3,79.8l-61.1,74.9
								l48.4,20v61.9c0,0,126.7,6.3,151.7-46c0,0-23.8,87.8-148.4,70.5l26.6,173.6c19.9-12.8,295.5-193.6,268.6-423.4
								C1843.1,590.8,1898.2,513.9,1866.4,420.9z"/>
							<path class="st17" d="M1695.7,354.2c17.7-1.3,35.1-0.9,51.6,0.9c-93.3-10.2-213.9,25.5-261.8,142.3
								c33.7,1.2,67.3,2.8,101,4.5C1618,454.3,1662.6,396.6,1695.7,354.2z"/>
							<path class="st30" d="M1866.7,540.7c0.6-1.9,1.2-3.9,1.8-5.9c0.6-2,1.1-4.1,1.7-6.2c0.3-1.1,0.5-2.1,0.8-3.2
								c0.5-1.9,0.9-3.9,1.3-5.9c0.5-2.6,1-5.3,1.5-8c0.5-3.3,1-6.6,1.4-10c0.3-2.4,0.5-4.8,0.7-7.3c0.3-3.7,0.4-7.5,0.5-11.3
								c0-1.3,0-2.6,0-3.9s0-2.6-0.1-3.9c-0.1-3.8-0.3-7.7-0.7-11.7c-0.1-1.5-0.3-2.9-0.5-4.4c-0.3-2.7-0.7-5.5-1.2-8.3
								c-1.6-9.7-4-19.7-7.5-29.9c-0.2-0.7-0.5-1.4-0.8-2.1c-0.1-0.2-0.2-0.5-0.3-0.7c-0.2-0.5-0.4-0.9-0.6-1.4
								c-0.1-0.3-0.2-0.5-0.4-0.8c-0.2-0.4-0.4-0.8-0.6-1.2c-0.1-0.3-0.3-0.6-0.4-0.9c-0.2-0.4-0.4-0.8-0.6-1.2
								c-0.2-0.3-0.3-0.6-0.5-0.9c-0.2-0.4-0.4-0.7-0.6-1.1c-0.2-0.3-0.4-0.6-0.5-0.9c-0.2-0.4-0.4-0.7-0.7-1.1
								c-0.2-0.3-0.4-0.6-0.6-0.9c-0.2-0.4-0.5-0.7-0.7-1.1c-0.2-0.3-0.4-0.6-0.6-0.9c-0.2-0.3-0.5-0.7-0.7-1
								c-0.2-0.3-0.4-0.6-0.7-0.9c-0.3-0.3-0.5-0.7-0.8-1c-0.2-0.3-0.5-0.6-0.7-0.9c-0.3-0.3-0.5-0.7-0.8-1
								c-0.3-0.3-0.5-0.6-0.8-0.9c-0.3-0.3-0.6-0.6-0.9-1c-0.3-0.3-0.5-0.6-0.8-0.9c-0.3-0.3-0.6-0.6-0.9-0.9
								c-0.3-0.3-0.6-0.6-0.8-0.9c-0.3-0.3-0.6-0.6-0.9-0.9c-0.3-0.3-0.6-0.6-0.9-0.9c-0.3-0.3-0.6-0.6-1-0.9
								c-0.3-0.3-0.6-0.6-0.9-0.9c-0.3-0.3-0.7-0.6-1-0.9c-0.3-0.3-0.7-0.6-1-0.9c-0.3-0.3-0.7-0.5-1-0.8c-0.3-0.3-0.7-0.6-1-0.9
								c-0.3-0.3-0.6-0.5-1-0.8c-0.4-0.3-0.8-0.6-1.1-0.9c-0.2-0.2-0.5-0.3-0.7-0.5c-1-0.8-2-1.5-3.1-2.2c-0.2-0.1-0.4-0.3-0.6-0.4
								c-0.5-0.3-1-0.7-1.5-1c-0.3-0.2-0.6-0.4-0.8-0.6c-0.5-0.3-1-0.6-1.4-0.9c-0.3-0.2-0.6-0.4-0.9-0.6c-0.5-0.3-1-0.6-1.5-0.9
								c-0.3-0.2-0.6-0.4-0.9-0.6c-0.5-0.3-1-0.6-1.5-0.9c-0.3-0.2-0.6-0.4-1-0.6c-0.5-0.3-1-0.6-1.6-0.9c-0.3-0.2-0.7-0.4-1-0.5
								c-0.5-0.3-1.1-0.6-1.6-0.9c-0.3-0.2-0.7-0.3-1-0.5c-0.5-0.3-1.1-0.6-1.7-0.8c-0.3-0.2-0.7-0.3-1-0.5
								c-0.6-0.3-1.1-0.6-1.7-0.8c-0.3-0.2-0.6-0.3-1-0.5c-0.6-0.3-1.2-0.6-1.8-0.8c-0.3-0.1-0.6-0.3-0.9-0.4
								c-0.6-0.3-1.2-0.5-1.9-0.8c-0.3-0.1-0.6-0.3-0.9-0.4c-0.7-0.3-1.3-0.5-2-0.8c-0.3-0.1-0.6-0.2-0.8-0.3
								c-0.7-0.3-1.4-0.6-2.1-0.8c-0.2-0.1-0.5-0.2-0.8-0.3c-0.7-0.3-1.5-0.6-2.2-0.8c-0.2-0.1-0.4-0.1-0.6-0.2
								c-0.8-0.3-1.6-0.6-2.4-0.9c-0.1,0-0.2-0.1-0.4-0.1c-8.8-3.1-18.2-5.6-28.1-7.7c0,0-0.1,0-0.1,0c-1.1-0.2-2.1-0.4-3.2-0.6
								c-0.1,0-0.1,0-0.2,0c-1-0.2-2.1-0.4-3.2-0.6c-0.1,0-0.2,0-0.3,0c-1-0.2-2.1-0.4-3.1-0.5c-0.1,0-0.2,0-0.3,0
								c-1-0.2-2.1-0.3-3.2-0.5c-0.1,0-0.2,0-0.3,0c-1.1-0.2-2.1-0.3-3.2-0.5c-0.1,0-0.2,0-0.3,0c-1.1-0.1-2.2-0.3-3.3-0.4
								c-0.1,0-0.1,0-0.2,0c-1.1-0.1-2.3-0.3-3.4-0.4c0,0,0,0-0.1,0c-16.5-1.8-33.9-2.2-51.6-0.9c-33.1,42.3-77.7,100-109.3,147.7
								c61,3.2,122,7.3,183,12.3c4.2,62.8,2.3,124.7-9.9,186.4c-0.5,2.5-1,5.3,0.2,7.5c1,2,3.1,3.2,5.1,4.3
								c11.8,6.5,23.7,13,35.5,19.4c3.7-33.5,7.4-67.2,17-99.4c9-30.1,23.6-59.1,45.8-81.2c0.3-0.7,0.5-1.4,0.8-2.1
								C1864.8,546.4,1865.7,543.6,1866.7,540.7z"/>
							<path class="st27" d="M1800.9,601.8c9.2-17,114.2-72.8,129.4,22.8s-135,101-135,101L1800.9,601.8z"/>
							<path class="st28" d="M1913.1,604.6c-16.8,9-32.5,20.1-46.7,32.9c3.4-2.7,8.8,0,10.3,4c1.5,4,0.1,8.5-1.7,12.5
								c-8.2,18.4-25.5,32.4-45.2,36.7c-4.8,1-10.7,1.1-13.4-2.9c-10.7-15.5,10.4-51.6,24.7-59.6c9.5-5.3,20.5-9.3,30.6-13.3
								C1884,609.9,1902.2,610.5,1913.1,604.6z"/>
						</g>
						<path class="st17" d="M1579,638.5c0,0,62.2-95.7,150.4-19.5l-14.4-48.8C1714.9,570.2,1598.2,524.3,1579,638.5z"/>
						<path class="st17" d="M1547.9,629.5c0,0-47.7-73.4-115.4-15l11.1-37.5C1443.6,577.1,1533.2,541.9,1547.9,629.5z"/>
						<path class="st17" d="M1635,673.6l20.5-19.6c-3.7-18.2-14.8-31.4-27.9-31.4c-16.1,0-29.2,20-29.2,44.7
							c0,24.7,13.1,44.7,29.2,44.7c13.4,0,24.6-13.7,28.1-32.4L1635,673.6z"/>
						<path class="st17" d="M1515.6,673.6l20.5-19.6c-3.7-18.2-14.8-31.4-27.9-31.4c-16.1,0-29.2,20-29.2,44.7
							c0,24.7,13.1,44.7,29.2,44.7c13.4,0,24.6-13.7,28.1-32.4L1515.6,673.6z"/>
					</g>
					<path class="st1" d="M1930.3,624.6"/>
					<path class="st8" d="M1627.6,711.9"/>
					<path class="st14" d="M835.1,1766.8c-22.1,41.6-98.9-68.4-68.1-110.1c20-27,24.9-8.5,37.5,15.2
						C816.3,1693.9,849,1740.6,835.1,1766.8z"/>
					<path class="st14" d="M699.4,1616.1c-13,24.5-58.4-40.4-40.2-65c11.8-16,14.7-5,22.2,9C688.3,1573.1,707.6,1600.7,699.4,1616.1
						z"/>
					<path class="st1" d="M1593.6,1564.2c-52.4-25.6,80.6-125.2,133.5-88.8c34.3,23.6,11.6,30.5-17.3,47.1
						C1683.1,1538,1626.6,1580.4,1593.6,1564.2z"/>
					<path class="st1" d="M1918.1,1652.1c-36-17.6,55.5-86.1,91.8-61.1c23.6,16.3,8,21-11.9,32.4
						C1979.6,1634,1940.7,1663.2,1918.1,1652.1z"/>
					<path class="st19" d="M1899.3,1746.8c-19.7-8.9,28.5-47.4,48.5-34.5c13,8.4,4.7,11.2-5.9,17.7
						C1932.2,1736,1911.7,1752.4,1899.3,1746.8z"/>
					<path class="st0" d="M1506.1,175.5C1468.4,131,1630.3,93.4,1664,148c21.9,35.4-1.7,32.6-34.8,36.2
						C1598.5,187.5,1529.7,203.5,1506.1,175.5z"/>
					<path class="st31" d="M919.6,220.4c-32.3-15.8,49.7-77.2,82.3-54.7c21.1,14.6,7.1,18.8-10.6,29
						C974.8,204.2,939.9,230.4,919.6,220.4z"/>
					<path class="st31" d="M1334.8,760.6c-32.3-15.8,49.7-77.2,82.3-54.7c21.1,14.6-8,46.7-25.8,57
						C1374.8,772.3,1355.1,770.5,1334.8,760.6z"/>
					<path class="st0" d="M589.3,821.4c-13,24.5-58.4-40.4-40.2-65c11.8-16,14.7-5,22.2,9C578.2,778.3,597.5,806,589.3,821.4z"/>
					<g>
						<path class="st14" d="M1339.9,1650.3c79.6-39.4,165.6-75.2,254.1-68.5c23.7,1.8,48.3,7.3,66.1,23.1
							c17.7,15.8,25.8,44.4,12.4,64.1c-13.2,19.5-40.2,22.8-63.7,23.4c-58.1,1.5-117.2-2.3-173.4,12.5
							c-62.1,16.5-115.8,54.6-172,85.8c-59.9,33.3-129.1,59.8-197.9,40.7c-14.5-4-145.1-60-110.7-93.6c9-8.8,69.5,11.2,85.3,11.8
							c35,1.3,69.5-4.2,103.2-13.5C1212.5,1717.1,1275.9,1682,1339.9,1650.3z"/>
						<path class="st32" d="M1660.1,1604.9c-17.7-15.8-42.4-21.2-66.1-23.1c-10.2-0.8-20.4-1-30.6-0.7c3,3.2,6.4,6,8.9,9.7
							c11.7,17.7-5.9,40.9-25,50.2c-34.4,16.7-74.8,14.1-111.6,24.6c-39.9,11.4-73.6,37.7-109.1,59.1
							c-59.5,35.9-127.2,59.3-196.6,62.3c-62.4,2.7-126-11.7-179.3-43.9c-17,33.9,101.1,84.4,114.8,88.2
							c68.8,19.1,138.1-7.4,197.9-40.7c56.2-31.2,109.9-69.3,172-85.8c56.2-14.9,115.3-11,173.4-12.5c23.5-0.6,50.5-4,63.7-23.4
							C1685.9,1649.3,1677.8,1620.7,1660.1,1604.9z"/>
					</g>
				</g>
				<path class="st0" d="M520.2,935.8c1.8,28.9,17.4,58.9,44.5,69.1c4.1,1.5,8.6,2.6,12.9,1.9c7.2-1.2,12.8-7.1,16.7-13.3
					c20.3-31.7,12.9-74.9-7.1-106.9C543.5,816.5,516.8,882,520.2,935.8z"/>
				<path class="st7" d="M2023.2,32.1c-9.9-11.3-25.8-15.6-40.8-15.1c-61.9,2.1-97.8,68.9-147.7,105.4
					c-65.8,48.1-155.8,42.1-233.1,68.2c-72.8,24.6-134.7,79.8-167.4,149.4c-0.5,1.1-0.9,2.2-1.3,3.3c-6.8,23.1,26.2,35.8,37.4,14.5
					c11.4-21.7,30.4-39.8,51.8-52.2c30.3-17.6,65.3-25.3,100-30.3c80-11.6,162.4-10.5,239.9-33.5c77.5-23,152.8-77.7,169.6-156.8
					C2035.5,66.9,2035.4,46.1,2023.2,32.1z"/>
				<path class="st4" d="M2023.2,32.1c-0.2-0.3-0.5-0.5-0.7-0.7c-4.2,50-36,97.1-77.6,126.7c-49.8,35.5-111.3,50.1-171.8,59.1
					c-60.5,9-122.1,13.4-180.4,31.8c-58.3,18.4-114.5,53.3-142.8,107.5c-1.8,3.5-3.6,7.1-5.5,10.5c8.9,3.7,20.2,1.6,25.9-9.2
					c11.4-21.7,30.4-39.8,51.8-52.2c30.3-17.6,65.3-25.3,100-30.3c80-11.6,162.4-10.5,239.9-33.5c77.5-23,152.8-77.7,169.6-156.8
					C2035.5,66.9,2035.4,46.1,2023.2,32.1z"/>
			</g>
		</g>
		<g>
			<path class="st31" d="M1964.8,279.9c20.9-9.3,41.6-19.2,61.7-30.2c19.4-10.7,38.2-22.8,58.4-31.9c4.3-1.9,1.2-9.3-3.2-7.6
				c-21,7.9-40,19.3-59.5,30.3c-20.2,11.4-41.1,21.5-62.2,31.2C1954.3,274.2,1959.2,282.4,1964.8,279.9L1964.8,279.9z"/>
		</g>
		<g>
			<path class="st31" d="M2041.9,344.4c27.9-7.9,54-20.4,79-34.8c4-2.3,0.5-7.7-3.5-6c-25.9,11-50.7,24.5-77.8,32.4
				C2034.2,337.6,2036.5,345.9,2041.9,344.4L2041.9,344.4z"/>
		</g>
		<g>
			<path class="st31" d="M2176.4,451c7.5-2.8,14.9-5.6,22.4-8.4c5.5-2.1,3.1-11.1-2.5-8.9c-7.5,2.8-14.9,5.6-22.4,8.4
				C2168.3,444.2,2170.7,453.1,2176.4,451L2176.4,451z"/>
		</g>
		<g>
			<path class="st31" d="M1150.5,195.8c26.7,3.6,53.5-2.8,77.2-15.3c3.1-1.6,0.9-7.1-2.4-5.7c-23.6,9.6-49.2,16.3-74.8,13
				C1145.4,187.2,1145.5,195.1,1150.5,195.8L1150.5,195.8z"/>
		</g>
		<g>
			<path class="st31" d="M1347.5,145.3c9.8-3.6,18.6-8.6,26.8-15.2c3.2-2.6-1.1-8.3-4.5-5.8c-7.5,5.6-15.6,10.1-24.4,13.4
				C1340.6,139.3,1342.7,147,1347.5,145.3L1347.5,145.3z"/>
		</g>
		<g>
			<path class="st31" d="M1323.3,111.3c10.2-4.7,20.5-9.4,30.7-14.1c4.5-2.1,0.6-8.6-3.9-6.6c-10.3,4.6-20.6,9.3-30.9,13.9
				C1314.6,106.5,1318.6,113.4,1323.3,111.3L1323.3,111.3z"/>
		</g>
		<g>
			<path class="st31" d="M1653.6,80.5c10.3-6.5,20.3-13.4,30.8-19.6c4.5-2.7,0.4-9.6-4.1-7c-10.4,6.2-20.5,13.1-30.8,19.6
				C1645.2,76.3,1649.2,83.3,1653.6,80.5L1653.6,80.5z"/>
		</g>
		<g>
			<path class="st31" d="M1527.9,374.9c3.7-2.9,7.4-5.7,11.1-8.6c1.8-1.4,2.8-3.7,1.5-5.9c-1.1-1.9-4-2.9-5.9-1.5
				c-3.8,2.7-7.5,5.5-11.3,8.2c-2,1.4-2.9,3.9-1.6,6.2C1522.8,375.1,1526,376.4,1527.9,374.9L1527.9,374.9z"/>
		</g>
		<g>
			<path class="st31" d="M1388.4,823.6c18.1-1.3,35.2-14.7,47.2-27.5c2.6-2.7-0.9-7.9-4.2-5.4c-6.5,4.9-13.3,9.5-20.1,13.9
				c-6.8,4.3-14.6,9-22.9,9.6C1382.4,814.6,1382.4,824.1,1388.4,823.6L1388.4,823.6z"/>
		</g>
		<g>
			<path class="st31" d="M827.4,233.9c6.9-3.7,15.3-8,15.6-16.9c0.1-3.6-5.9-4.6-6.4-0.9c-0.8,5.9-7.9,9.4-12.5,12
				C820.3,230.3,823.6,235.9,827.4,233.9L827.4,233.9z"/>
		</g>
		<g>
			<path class="st31" d="M903.6,34.1c-2.3,12.7-8.2,24-13.5,35.7c-1.6,3.7,3.4,6.9,5.5,3.2c6.6-11.6,12.4-23.8,14.5-37.1
				C910.9,31.7,904.4,29.8,903.6,34.1L903.6,34.1z"/>
		</g>
		<g>
			<path class="st31" d="M1119.7,29.5c3.5-3.5,8.2-5.2,12.6-7.2c5-2.2,9.6-5.1,14.2-8c10.6-6.6,21-13.4,31.1-20.7
				c3.9-2.9,0.3-9.4-3.9-6.6c-10.9,7.2-21.8,14.4-32.9,21.3c-4.6,2.8-9,5.4-13.9,7.6c-4.7,2.1-9.2,4.3-12.8,7.9
				C1110.4,27.4,1116.1,33.1,1119.7,29.5L1119.7,29.5z"/>
		</g>
	</g>
</g>
</svg>
