<svg viewBox="0 0 32 20" xmlns="http://www.w3.org/2000/svg">
	<g clip-path="url(#clip0_722_47)">
		<path d="M0.035559 18.7588V15.5015H0.718327V18.233H2.32165V18.7592H0.0351562L0.035559 18.7588Z" fill="#2A72F2"/>
		<path d="M3.4497 18.8095C3.29801 18.8095 3.1572 18.7818 3.02724 18.7259C2.89729 18.6704 2.79268 18.5875 2.71382 18.478C2.63456 18.3686 2.59473 18.231 2.59473 18.0656C2.59473 17.8295 2.67841 17.6407 2.84498 17.4991C3.01195 17.3575 3.25899 17.2867 3.58609 17.2867H4.29421V17.2211C4.29421 17.0727 4.25276 16.9681 4.17029 16.9077C4.08781 16.847 3.92164 16.8168 3.67219 16.8168C3.399 16.8168 3.13587 16.859 2.8832 16.9431V16.4627C2.99465 16.4189 3.13024 16.3826 3.29037 16.3541C3.4505 16.3255 3.62512 16.311 3.81382 16.311C4.17471 16.311 4.45353 16.3843 4.65108 16.5311C4.84823 16.678 4.94678 16.9129 4.94678 17.2368V18.7593H4.35496L4.31956 18.5416C4.225 18.6261 4.10873 18.6917 3.97073 18.7388C3.83232 18.7858 3.65891 18.8095 3.4497 18.8095ZM3.63679 18.3593C3.78847 18.3593 3.92003 18.334 4.03148 18.2833C4.14293 18.2326 4.23023 18.1686 4.29461 18.091V17.7116H3.60178C3.33543 17.7116 3.20226 17.821 3.20226 18.0403C3.20226 18.2596 3.3471 18.3589 3.63719 18.3589L3.63679 18.3593Z" fill="#2A72F2"/>
		<path d="M5.49805 18.7589V16.3613H6.13016L6.15547 16.5891C6.25325 16.515 6.37716 16.4499 6.52724 16.3943C6.67733 16.3388 6.83502 16.311 6.99998 16.311C7.31704 16.311 7.54797 16.3855 7.69281 16.5335C7.83766 16.682 7.91051 16.9113 7.91051 17.2215V18.7593H7.22773V17.2569C7.22773 17.0952 7.19472 16.9805 7.12913 16.9129C7.06354 16.8454 6.94127 16.812 6.7626 16.812C6.65799 16.812 6.5526 16.8357 6.44635 16.8828C6.34015 16.9298 6.25166 16.989 6.18083 17.0598V18.7593H5.49805V18.7589Z" fill="#2A72F2"/>
		<path d="M9.47905 19.6492C9.30043 19.6492 9.11738 19.6376 8.93029 19.6138C8.74319 19.5901 8.58546 19.5563 8.45755 19.5129V19.0019C8.59234 19.0457 8.75084 19.0804 8.93308 19.1057C9.11536 19.131 9.28556 19.1435 9.44407 19.1435C9.67663 19.1435 9.8452 19.131 9.94981 19.1057C10.0544 19.0804 10.1067 19.0357 10.1067 18.9717C10.1067 18.9178 10.0838 18.8808 10.0383 18.8603C9.99288 18.8401 9.8975 18.8301 9.75266 18.8301H9.10005C8.67198 18.8301 8.45755 18.6716 8.45755 18.3545C8.45755 18.2567 8.4845 18.1674 8.53839 18.0866C8.59234 18.0057 8.67842 17.9417 8.79632 17.8942C8.52309 17.7558 8.38672 17.5233 8.38672 17.1962C8.38672 16.886 8.48286 16.6611 8.6752 16.521C8.86754 16.3811 9.15236 16.311 9.53015 16.311C9.60782 16.311 9.6927 16.3171 9.78567 16.3287C9.87821 16.3404 9.94817 16.3516 9.99567 16.3617H10.8961L10.8808 16.7918H10.5014C10.606 16.8896 10.6583 17.0264 10.6583 17.2014C10.6583 17.4476 10.5807 17.644 10.4258 17.7908C10.2705 17.9377 10.0415 18.0109 9.73779 18.0109C9.68385 18.0109 9.63236 18.0085 9.58366 18.0033C9.53458 17.998 9.48511 17.9924 9.43439 17.9856C9.33344 17.9992 9.24812 18.0226 9.17892 18.0564C9.10973 18.0902 9.07513 18.1357 9.07513 18.1928C9.07513 18.2704 9.14432 18.309 9.28233 18.309H9.96025C10.2029 18.309 10.3904 18.3638 10.5219 18.4736C10.6535 18.583 10.7191 18.7428 10.7191 18.9516C10.7191 19.1878 10.6129 19.3628 10.4004 19.4778C10.188 19.5925 9.881 19.6496 9.47987 19.6496L9.47905 19.6492ZM9.53458 17.6259C9.73697 17.6259 9.87777 17.5913 9.95703 17.5221C10.0363 17.4529 10.0757 17.3358 10.0757 17.1704C10.0757 17.0051 10.0359 16.8856 9.95703 16.8111C9.87777 16.7371 9.73697 16.6997 9.53458 16.6997C9.33223 16.6997 9.20428 16.7359 9.11978 16.8083C9.03528 16.8807 8.99347 17.0015 8.99347 17.17C8.99347 17.3253 9.03288 17.44 9.11213 17.514C9.19139 17.5881 9.33223 17.6255 9.53458 17.6255V17.6259Z" fill="#2A72F2"/>
		<path d="M12.1947 18.8096C11.9082 18.8096 11.6845 18.7295 11.5243 18.5694C11.3643 18.4092 11.2842 18.1739 11.2842 17.8637V16.3613H11.967V17.8484C11.967 18.0101 12.0056 18.1276 12.0832 18.2C12.1609 18.2724 12.2771 18.3087 12.432 18.3087C12.5499 18.3087 12.659 18.2853 12.7583 18.2378C12.8577 18.1908 12.943 18.1316 13.0138 18.0608V16.3613H13.6966V18.7589H13.0641L13.0388 18.5312C12.9378 18.612 12.8187 18.6788 12.6823 18.7311C12.5459 18.7834 12.383 18.8096 12.1943 18.8096H12.1947Z" fill="#2A72F2"/>
		<path d="M14.9565 18.8095C14.8048 18.8095 14.664 18.7818 14.5341 18.7259C14.4041 18.6704 14.2995 18.5875 14.2206 18.478C14.1414 18.3686 14.1016 18.231 14.1016 18.0656C14.1016 17.8295 14.1852 17.6407 14.3518 17.4991C14.5188 17.3575 14.7658 17.2867 15.0929 17.2867H15.801V17.2211C15.801 17.0727 15.7596 16.9681 15.6771 16.9077C15.5946 16.847 15.4284 16.8168 15.179 16.8168C14.9058 16.8168 14.6427 16.859 14.39 16.9431V16.4627C14.5014 16.4189 14.637 16.3826 14.7972 16.3541C14.9573 16.3255 15.1319 16.311 15.3206 16.311C15.6815 16.311 15.9604 16.3843 16.1579 16.5311C16.355 16.678 16.4536 16.9129 16.4536 17.2368V18.7593H15.8618L15.8264 18.5416C15.7318 18.6261 15.6155 18.6917 15.4776 18.7388C15.3391 18.7858 15.1657 18.8095 14.9565 18.8095ZM15.1436 18.3593C15.2953 18.3593 15.4268 18.334 15.5383 18.2833C15.6497 18.2326 15.737 18.1686 15.8014 18.091V17.7116H15.1086C14.8422 17.7116 14.7091 17.821 14.7091 18.0403C14.7091 18.2596 14.8539 18.3589 15.144 18.3589L15.1436 18.3593Z" fill="#2A72F2"/>
		<path d="M18.0172 19.6492C17.8385 19.6492 17.6555 19.6376 17.4684 19.6138C17.2813 19.5901 17.1236 19.5563 16.9956 19.5129V19.0019C17.1304 19.0457 17.2889 19.0804 17.4712 19.1057C17.6534 19.131 17.8236 19.1435 17.9822 19.1435C18.2147 19.1435 18.3833 19.131 18.4879 19.1057C18.5925 19.0804 18.6448 19.0357 18.6448 18.9717C18.6448 18.9178 18.6219 18.8808 18.5764 18.8603C18.531 18.8401 18.4356 18.8301 18.2907 18.8301H17.6381C17.2101 18.8301 16.9956 18.6716 16.9956 18.3545C16.9956 18.2567 17.0226 18.1674 17.0765 18.0866C17.1304 18.0057 17.2165 17.9417 17.3344 17.8942C17.0612 17.7558 16.9248 17.5233 16.9248 17.1962C16.9248 16.886 17.0209 16.6611 17.2133 16.521C17.4056 16.3811 17.6904 16.311 18.0682 16.311C18.1459 16.311 18.2308 16.3171 18.3238 16.3287C18.4163 16.3404 18.4863 16.3516 18.5338 16.3617H19.4342L19.4189 16.7918H19.0395C19.1441 16.8896 19.1964 17.0264 19.1964 17.2014C19.1964 17.4476 19.1188 17.644 18.9639 17.7908C18.8086 17.9377 18.5796 18.0109 18.2759 18.0109C18.2219 18.0109 18.1704 18.0085 18.1217 18.0033C18.0727 17.998 18.0232 17.9924 17.9725 17.9856C17.8715 17.9992 17.7862 18.0226 17.717 18.0564C17.6478 18.0902 17.6132 18.1357 17.6132 18.1928C17.6132 18.2704 17.6824 18.309 17.8204 18.309H18.4983C18.741 18.309 18.9284 18.3638 19.06 18.4736C19.1916 18.583 19.2571 18.7428 19.2571 18.9516C19.2571 19.1878 19.1509 19.3628 18.9385 19.4778C18.7261 19.5925 18.4191 19.6496 18.018 19.6496L18.0172 19.6492ZM18.0727 17.6259C18.2751 17.6259 18.4159 17.5913 18.4952 17.5221C18.5744 17.4529 18.6138 17.3358 18.6138 17.1704C18.6138 17.0051 18.574 16.8856 18.4952 16.8111C18.4159 16.7371 18.2751 16.6997 18.0727 16.6997C17.8703 16.6997 17.7424 16.7359 17.6579 16.8083C17.5734 16.8807 17.5316 17.0015 17.5316 17.17C17.5316 17.3253 17.571 17.44 17.6502 17.514C17.7295 17.5881 17.8703 17.6255 18.0727 17.6255V17.6259Z" fill="#2A72F2"/>
		<path d="M21.0469 18.8095C20.6321 18.8095 20.3034 18.7056 20.0604 18.4984C19.8174 18.2912 19.6963 17.9766 19.6963 17.555C19.6963 17.174 19.7981 16.8714 20.0025 16.6469C20.2065 16.4228 20.5106 16.3105 20.9154 16.3105C21.2863 16.3105 21.5704 16.4075 21.7675 16.6014C21.9647 16.7954 22.0632 17.0492 22.0632 17.3626V17.7976H20.3283C20.3654 17.9899 20.4539 18.1215 20.5939 18.1923C20.7339 18.2631 20.9319 18.2985 21.1882 18.2985C21.3161 18.2985 21.4469 18.2868 21.58 18.2631C21.7132 18.2394 21.8271 18.2092 21.9216 18.1721V18.6578C21.8102 18.7085 21.6806 18.7463 21.5322 18.7717C21.3837 18.797 21.2219 18.8095 21.0465 18.8095H21.0469ZM20.3287 17.378H21.467V17.2464C21.467 17.1079 21.4264 16.9993 21.3455 16.9201C21.2646 16.8408 21.1278 16.801 20.9359 16.801C20.7097 16.801 20.5521 16.8465 20.4631 16.9374C20.3738 17.0283 20.3292 17.1752 20.3292 17.3775L20.3287 17.378Z" fill="#2A72F2"/>
		<path d="M22.5391 18.7588V15.5015H23.905C24.3939 15.5015 24.7624 15.627 25.0102 15.8785C25.2581 16.13 25.382 16.552 25.382 17.1454C25.382 17.7051 25.2597 18.1143 25.0155 18.3722C24.7708 18.6301 24.4007 18.7592 23.905 18.7592H22.5391V18.7588ZM23.2218 18.2326H23.8085C24.0008 18.2326 24.1625 18.2032 24.2941 18.144C24.4257 18.0853 24.5242 17.9771 24.5902 17.8202C24.6558 17.6633 24.6888 17.4384 24.6888 17.1451C24.6888 16.8517 24.6586 16.6276 24.5978 16.4723C24.5371 16.3174 24.4426 16.2112 24.3146 16.1537C24.1863 16.0966 24.0177 16.0676 23.8089 16.0676H23.2223V18.2326H23.2218Z" fill="#39B54A"/>
		<path d="M25.4775 18.7588L26.722 15.5015H27.4707L28.7099 18.7588H28.0018L27.6932 17.9747H26.4942L26.1909 18.7588H25.4775ZM26.5956 17.4488H27.5922L27.0913 16.1388L26.5956 17.4488Z" fill="#39B54A"/>
		<path d="M30.3898 18.8095C29.3341 18.8095 28.8066 18.2547 28.8066 17.1454C28.8066 16.5487 28.9398 16.1171 29.2062 15.8507C29.4725 15.5844 29.8672 15.4512 30.3898 15.4512C30.9125 15.4512 31.3072 15.5844 31.5736 15.8507C31.8399 16.1171 31.9731 16.5487 31.9731 17.1454C31.9731 18.2551 31.4452 18.8095 30.3898 18.8095ZM30.3898 18.2277C30.6964 18.2277 30.9218 18.1392 31.065 17.9622C31.2082 17.7851 31.2798 17.5128 31.2798 17.1454C31.2798 16.7375 31.2082 16.4498 31.065 16.2828C30.9218 16.1159 30.6964 16.0326 30.3898 16.0326C30.0833 16.0326 29.858 16.1159 29.7147 16.2828C29.5715 16.4498 29.4999 16.7375 29.4999 17.1454C29.4999 17.5132 29.5715 17.7851 29.7147 17.9622C29.858 18.1392 30.0833 18.2277 30.3898 18.2277Z" fill="#39B54A"/>
		<path d="M2.4834 5.91904C2.4834 8.67104 4.53131 10.9446 7.18595 11.2995C7.56976 11.351 7.91218 11.0549 7.91218 10.6678V1.17023C7.91218 0.782772 7.56976 0.487054 7.18595 0.538552C4.5309 0.893415 2.4834 3.16704 2.4834 5.91904Z" fill="#2A72F2"/>
		<path d="M24.1196 11.5667C23.6227 11.5667 23.2188 11.1631 23.2188 10.6675V1.17022C23.2188 0.674541 23.6231 0.270996 24.1196 0.270996C24.1598 0.270996 24.2008 0.273813 24.2411 0.279043C25.5954 0.460096 26.8414 1.12677 27.7495 2.15676C28.666 3.196 29.1706 4.53177 29.1706 5.91905C29.1706 7.30631 28.666 8.64208 27.7495 9.68128C26.8414 10.7109 25.5954 11.378 24.2411 11.559C24.2008 11.5642 24.1598 11.5671 24.1196 11.5671V11.5667Z" fill="#2A72F2"/>
		<path d="M24.1204 0.532147C24.1489 0.532147 24.1779 0.534158 24.2073 0.537782C26.8619 0.892645 28.9098 3.16626 28.9098 5.91824C28.9098 8.67024 26.8623 10.9439 24.2073 11.2987C24.1779 11.3028 24.1489 11.3044 24.1204 11.3044C23.7731 11.3044 23.481 11.0248 23.481 10.6667V1.16945C23.481 0.81137 23.7731 0.531743 24.1204 0.531743V0.532147ZM24.1204 0.0087023C23.4794 0.0087023 22.958 0.529332 22.958 1.16945V10.6667C22.958 11.3068 23.4794 11.8274 24.1204 11.8274C24.1723 11.8274 24.2246 11.8238 24.2765 11.817C25.6931 11.6275 26.9963 10.9302 27.9462 9.85314C28.9046 8.766 29.4324 7.36869 29.4324 5.91786C29.4324 4.46703 28.9046 3.0697 27.9462 1.98258C26.9963 0.905517 25.6931 0.208263 24.2765 0.0187608C24.225 0.011921 24.1723 0.00830078 24.1204 0.00830078V0.0087023Z" fill="#39B54A"/>
		<path d="M9.95114 2.87988H9.90446C9.73825 2.87988 9.60352 3.01462 9.60352 3.18083V8.67437C9.60352 8.84057 9.73825 8.97531 9.90446 8.97531H9.95114C10.1173 8.97531 10.2521 8.84057 10.2521 8.67437V3.18083C10.2521 3.01462 10.1173 2.87988 9.95114 2.87988Z" fill="#39B54A"/>
		<path d="M21.3339 2.87988H21.2873C21.1211 2.87988 20.9863 3.01462 20.9863 3.18083V8.67437C20.9863 8.84057 21.1211 8.97531 21.2873 8.97531H21.3339C21.5002 8.97531 21.6349 8.84057 21.6349 8.67437V3.18083C21.6349 3.01462 21.5002 2.87988 21.3339 2.87988Z" fill="#39B54A"/>
		<path d="M19.4365 2.0166H19.3898C19.2236 2.0166 19.0889 2.15134 19.0889 2.31755V9.58904C19.0889 9.75525 19.2236 9.88999 19.3898 9.88999H19.4365C19.6027 9.88999 19.7374 9.75525 19.7374 9.58904V2.31755C19.7374 2.15134 19.6027 2.0166 19.4365 2.0166Z" fill="#39B54A"/>
		<path d="M11.8486 2.0166H11.8019C11.6357 2.0166 11.501 2.15134 11.501 2.31755V9.58904C11.501 9.75525 11.6357 9.88999 11.8019 9.88999H11.8486C12.0148 9.88999 12.1495 9.75525 12.1495 9.58904V2.31755C12.1495 2.15134 12.0148 2.0166 11.8486 2.0166Z" fill="#39B54A"/>
		<path d="M13.7451 1.20361H13.6984C13.5322 1.20361 13.3975 1.33835 13.3975 1.50457V10.4015C13.3975 10.5677 13.5322 10.7024 13.6984 10.7024H13.7451C13.9113 10.7024 14.046 10.5677 14.046 10.4015V1.50457C14.046 1.33835 13.9113 1.20361 13.7451 1.20361Z" fill="#39B54A"/>
		<path d="M17.54 1.20361H17.4933C17.3271 1.20361 17.1924 1.33835 17.1924 1.50457V10.4015C17.1924 10.5677 17.3271 10.7024 17.4933 10.7024H17.54C17.7062 10.7024 17.8409 10.5677 17.8409 10.4015V1.50457C17.8409 1.33835 17.7062 1.20361 17.54 1.20361Z" fill="#39B54A"/>
		<path d="M15.6425 0.340332H15.5959C15.4297 0.340332 15.2949 0.475071 15.2949 0.641283V11.2148C15.2949 11.381 15.4297 11.5157 15.5959 11.5157H15.6425C15.8088 11.5157 15.9435 11.381 15.9435 11.2148V0.641283C15.9435 0.475071 15.8088 0.340332 15.6425 0.340332Z" fill="#39B54A"/>
		<path d="M8.00891 2.10288C7.98639 1.99385 7.94414 1.91942 7.89102 1.87234V1.89327C7.77317 1.80073 7.60177 1.84096 7.46053 1.94516C7.25251 2.09846 7.2296 2.18295 7.03366 2.08961C6.8381 1.99667 6.89406 2.18697 6.64417 2.38251C6.39351 2.57805 6.34284 2.42234 6.36498 2.21433C6.38668 2.00632 6.36859 2.07915 6.09218 2.08719C5.81496 2.09564 5.89465 1.8647 6.08131 1.53357C6.26599 1.20004 7.01797 1.56898 7.17407 1.50782C7.32734 1.44466 7.3193 1.16744 7.65244 1.2455C7.74459 1.26723 7.82668 1.30303 7.90189 1.33884V0.703545C7.84679 0.657682 7.77394 0.609403 7.67419 0.563535C7.27142 0.379263 7.22316 0.757864 6.86144 0.927651C6.50053 1.09905 6.88477 0.803328 6.70134 0.577615C6.52026 0.352707 6.41969 1.02944 6.17303 1.07692C5.96101 1.11917 6.2491 0.773556 6.27244 0.558304C5.95658 0.658081 5.65323 0.785624 5.36475 0.938512C5.39574 0.963058 5.43476 0.97915 5.47461 0.981161C5.6283 0.989207 5.87574 1.0218 5.50035 1.23504C5.34743 1.31912 5.17001 1.25073 5.01511 1.14049C4.64738 1.37143 4.30781 1.64542 4.00404 1.95482C3.88736 2.07351 3.77591 2.19783 3.6701 2.32698C3.59969 2.41309 3.53129 2.5012 3.46571 2.59132C3.44921 2.61385 3.43271 2.63679 3.41662 2.65932C3.2404 2.91038 3.08308 3.17713 2.9487 3.45635C2.92456 3.50705 2.89881 3.55855 2.87588 3.61005C2.81875 3.7392 2.7769 3.87076 2.71454 4.00514C2.69362 4.08561 2.66264 4.16729 2.6377 4.24936C3.42105 4.4799 3.18125 4.99691 3.03802 5.23106C2.86502 5.51555 3.70349 5.77987 4.1702 5.69696C4.63611 5.61126 4.52587 6.17455 4.80147 6.19144C5.07588 6.20713 5.65203 6.70282 5.55343 6.81148C5.45368 6.92052 5.19657 7.55979 5.30681 7.9871C5.41667 8.41518 5.99359 8.48601 6.13645 8.69803C6.27966 8.91087 6.19839 9.24559 6.22134 9.49827C6.24386 9.75134 6.14728 9.93323 6.24506 10.2386C6.34443 10.5447 6.9379 10.8449 6.87592 11.2815C6.86952 11.3281 6.84373 11.3716 6.88521 11.4118C6.94757 11.4211 6.97211 11.4299 7.01917 11.438C7.0236 11.4388 7.0224 11.4392 7.02683 11.44C7.04651 11.4432 7.06624 11.4464 7.08596 11.4492C7.10887 11.4528 7.13144 11.456 7.15434 11.4593C7.18009 11.4629 7.20627 11.4665 7.23201 11.4693C7.30563 11.4786 7.37964 11.4862 7.4537 11.4923C7.39615 11.4287 7.3539 11.3623 7.35674 11.2972C7.36959 11.0605 7.2618 11.0936 7.12335 10.754C6.98458 10.4144 7.45288 10.7073 7.65003 10.369C7.75464 10.1907 7.82707 10.0386 7.9003 9.92033V6.82716C7.87336 6.78814 7.84439 6.74425 7.8134 6.6944C7.57482 6.31699 7.28071 6.44615 7.20583 6.3194C7.131 6.19265 7.01436 5.91384 6.83126 6.00676C6.64821 6.09973 6.67276 6.14154 6.32393 5.82169C5.97511 5.50304 5.66569 6.04179 5.42471 6.15805C5.18367 6.27474 5.11611 6.00758 5.1177 5.73281C5.11934 5.45761 5.03604 5.49981 4.8373 5.41012C4.63893 5.32119 5.12376 5.07457 4.82681 4.96192C4.52949 4.85004 4.83649 5.40973 4.24826 5.30873C3.65923 5.20974 4.19233 4.66739 4.49851 4.36081C4.80429 4.05463 5.10403 4.51249 5.21067 4.78447C5.31725 5.05566 5.47658 4.70843 5.46652 4.37972C5.4569 4.05141 5.62306 3.808 6.04671 3.64304C6.47156 3.47848 6.95517 3.07976 7.07105 2.76875C7.18774 2.45815 7.22917 2.57523 7.59493 2.55753C7.72207 2.55149 7.8186 2.53741 7.88904 2.50844V2.50965C7.89145 2.50844 7.89347 2.50683 7.89588 2.50563C7.89708 2.50522 7.89867 2.50482 7.89987 2.50401V2.50321C8.02137 2.44205 8.05357 2.32578 8.00689 2.10127L8.00891 2.10288Z" fill="white"/>
		<path d="M24.4284 7.12803C24.3572 6.93935 24.2461 6.83955 23.9725 6.97395C23.7352 7.09064 23.633 7.05561 23.4531 6.79932V9.86193C23.5191 9.75693 23.5863 9.67927 23.6784 9.63543C23.8736 9.54208 23.7211 9.45113 23.6326 9.20894C23.5436 8.96714 24.0759 8.98884 24.2474 9.02786C24.4179 9.06732 24.6826 8.98845 24.4348 8.56639C24.185 8.14356 24.5531 7.92827 24.6722 7.76052C24.7905 7.59272 24.8291 7.63137 24.7486 7.38191C24.6674 7.13245 24.4992 7.31714 24.4284 7.12803Z" fill="white"/>
		<path d="M26.5244 3.23065C26.7541 3.14214 26.9987 3.0677 27.2816 3.15823C27.5644 3.24835 27.7036 3.44268 27.7213 3.64023C27.7386 3.83818 27.9309 3.83577 28.0372 3.7038C28.143 3.57184 28.2279 3.69294 28.2013 3.5489C28.1748 3.40527 28.0637 3.05563 28.1719 3.14696C28.2814 3.2383 28.3285 3.70863 28.5409 3.70984C28.5497 3.70984 28.5594 3.71185 28.5695 3.71467C28.211 2.87458 27.6513 2.14072 26.9505 1.57422C26.8623 1.64141 26.8205 1.73153 26.9529 1.83775C27.2602 2.08036 26.975 2.09163 27.3085 2.20147C27.6425 2.31171 27.9108 2.3801 27.607 2.38332C27.3033 2.38735 27.2176 2.31774 27.1657 2.4646C27.115 2.60984 26.7147 2.92286 26.5441 2.89429C26.3747 2.86251 25.4151 2.81584 25.6087 3.23105C25.8038 3.64345 26.2959 3.31755 26.5244 3.23025V3.23065Z" fill="white"/>
		<path d="M29.0116 5.8901C29.0116 5.33571 28.9303 4.80058 28.7791 4.29564C28.6507 4.15764 28.6222 4.01199 28.4922 4.13672C28.31 4.31134 27.9595 4.39824 27.7724 4.28881C27.5865 4.17977 27.601 3.6338 27.2663 3.73197C26.932 3.83054 26.6041 4.04941 26.4194 3.96774C26.2347 3.88526 25.8569 3.93676 26.0987 4.29886C26.3413 4.65976 25.9953 4.80903 25.6996 4.81428C25.4055 4.81625 24.9585 5.6817 25.7434 6.19471C26.5284 6.70286 26.8153 6.06916 27.0237 6.25784C27.2321 6.44411 27.3238 6.43488 27.533 6.43367C27.7419 6.43247 27.7756 6.44777 27.6642 6.65777C27.5528 6.8682 27.7922 7.23555 28.0577 7.54535C28.3224 7.85433 27.9322 7.84345 27.8823 8.02977C27.832 8.21523 27.8638 8.58138 28.0086 8.71573C28.0682 8.76967 28.0367 8.91692 28.0178 9.05974C28.6447 8.16134 29.0124 7.06857 29.0124 5.88972L29.0116 5.8901Z" fill="white"/>
		<path d="M26.4562 2.35272C26.4228 2.49756 26.422 2.57361 26.6135 2.54021C26.6135 2.54021 26.8581 2.42957 26.7696 2.25174C26.6819 2.0739 26.5423 1.52873 26.4405 1.70053C26.3379 1.87313 26.4892 2.20828 26.4562 2.35272Z" fill="white"/>
		<path d="M26.3687 2.37334C26.365 2.31621 26.4013 2.08326 26.2182 2.0905C26.2182 2.0905 25.9531 2.20074 26.1083 2.38904C26.2644 2.57652 26.3727 2.43048 26.3687 2.37334Z" fill="white"/>
		<path d="M7.27247 0.53249C7.61965 0.53249 7.91174 0.812118 7.91174 1.1702V10.6678C7.91174 11.0255 7.61965 11.3055 7.27247 11.3055C7.24388 11.3055 7.21491 11.3035 7.18556 11.2999C4.5305 10.945 2.483 8.6714 2.483 5.9194C2.483 3.16741 4.53091 0.893792 7.18556 0.538929C7.21491 0.534901 7.2435 0.533294 7.27247 0.533294V0.53249ZM7.27247 0.0102539C7.22054 0.0102539 7.16824 0.0138741 7.11632 0.0207139C5.6997 0.210216 4.39652 0.907468 3.4466 1.98453C2.48783 3.07165 1.95996 4.46898 1.95996 5.91979C1.95996 7.37066 2.48783 8.76798 3.4466 9.85512C4.39652 10.9321 5.6997 11.6294 7.11632 11.8189C7.16785 11.8257 7.22054 11.8293 7.27247 11.8293C7.91338 11.8293 8.43481 11.3087 8.43481 10.6686V1.171C8.43481 0.530878 7.91338 0.0102539 7.27247 0.0102539Z" fill="#39B54A"/>
	</g>
<defs>
	<clipPath id="clip0_722_47">
		<rect width="32" height="19.6812" fill="white"/>
	</clipPath>
</defs>
</svg>
