<svg viewBox="0 0 665 409" fill="none" xmlns="http://www.w3.org/2000/svg">
  <path d="M142.107 312.314L142.116 312.305H142.107V312.314Z" fill="white"/>
  <path d="M0.729317 389.829V322.137H14.9181V378.901H48.2371V389.837H0.720947L0.729317 389.829Z" fill="#2A72F2"/>
  <path d="M71.6817 390.882C68.5295 390.882 65.6031 390.306 62.9025 389.143C60.2019 387.99 58.028 386.267 56.3892 383.993C54.742 381.719 53.9143 378.859 53.9143 375.423C53.9143 370.515 55.6534 366.593 59.1149 363.65C62.5848 360.707 67.7185 359.236 74.5161 359.236H89.2316V357.873C89.2316 354.788 88.3704 352.614 86.6564 351.36C84.9424 350.097 81.4892 349.47 76.3054 349.47C70.6282 349.47 65.16 350.348 59.9092 352.095V342.112C62.2252 341.201 65.0429 340.448 68.3707 339.855C71.6984 339.261 75.3271 338.96 79.2485 338.96C86.7484 338.96 92.5426 340.482 96.6479 343.534C100.745 346.585 102.793 351.468 102.793 358.199V389.837H90.4942L89.7584 385.314C87.7935 387.07 85.3772 388.433 82.5093 389.411C79.6331 390.389 76.0294 390.882 71.6817 390.882ZM75.5696 381.526C78.7217 381.526 81.4558 381 83.7718 379.946C86.0879 378.893 87.9022 377.563 89.24 375.95V368.065H74.8422C69.3071 368.065 66.5396 370.339 66.5396 374.896C66.5396 379.453 69.5496 381.518 75.5779 381.518L75.5696 381.526Z" fill="#2A72F2"/>
  <path d="M114.256 389.829V340.005H127.392L127.918 344.738C129.95 343.199 132.525 341.845 135.644 340.691C138.763 339.537 142.04 338.96 145.468 338.96C152.057 338.96 156.856 340.507 159.866 343.584C162.876 346.669 164.39 351.435 164.39 357.881V389.837H150.201V358.617C150.201 355.256 149.515 352.873 148.152 351.468C146.789 350.064 144.248 349.37 140.535 349.37C138.361 349.37 136.171 349.863 133.963 350.841C131.756 351.819 129.917 353.048 128.445 354.52V389.837H114.256V389.829Z" fill="#2A72F2"/>
  <path d="M196.981 408.332C193.269 408.332 189.465 408.09 185.577 407.596C181.689 407.103 178.411 406.401 175.753 405.498V394.879C178.554 395.79 181.848 396.51 185.635 397.036C189.423 397.563 192.96 397.822 196.254 397.822C201.087 397.822 204.59 397.563 206.764 397.036C208.938 396.51 210.025 395.581 210.025 394.252C210.025 393.132 209.548 392.362 208.603 391.936C207.659 391.518 205.677 391.309 202.667 391.309H189.105C180.209 391.309 175.753 388.015 175.753 381.426C175.753 379.394 176.313 377.538 177.433 375.858C178.554 374.177 180.343 372.848 182.793 371.861C177.115 368.985 174.281 364.152 174.281 357.354C174.281 350.908 176.279 346.234 180.276 343.324C184.273 340.415 190.192 338.96 198.043 338.96C199.657 338.96 201.421 339.085 203.353 339.328C205.276 339.57 206.73 339.804 207.717 340.013H226.429L226.112 348.951H218.227C220.401 350.983 221.488 353.826 221.488 357.463C221.488 362.58 219.874 366.66 216.655 369.712C213.428 372.764 208.67 374.286 202.358 374.286C201.237 374.286 200.167 374.235 199.155 374.127C198.135 374.018 197.107 373.901 196.053 373.759C193.955 374.043 192.182 374.528 190.744 375.23C189.306 375.933 188.587 376.878 188.587 378.065C188.587 379.679 190.025 380.481 192.893 380.481H206.981C212.023 380.481 215.919 381.618 218.653 383.901C221.388 386.175 222.75 389.495 222.75 393.834C222.75 398.742 220.543 402.379 216.128 404.77C211.714 407.153 205.334 408.34 196.998 408.34L196.981 408.332ZM198.135 366.284C202.341 366.284 205.267 365.565 206.914 364.127C208.562 362.689 209.381 360.256 209.381 356.819C209.381 353.383 208.553 350.9 206.914 349.353C205.267 347.814 202.341 347.037 198.135 347.037C193.93 347.037 191.271 347.789 189.515 349.294C187.759 350.799 186.89 353.308 186.89 356.811C186.89 360.038 187.709 362.421 189.356 363.96C191.003 365.498 193.93 366.276 198.135 366.276V366.284Z" fill="#2A72F2"/>
  <path d="M253.427 390.883C247.474 390.883 242.825 389.219 239.497 385.891C236.17 382.563 234.506 377.672 234.506 371.226V340.005H248.695V370.908C248.695 374.269 249.497 376.71 251.111 378.215C252.725 379.72 255.141 380.473 258.36 380.473C260.81 380.473 263.076 379.988 265.141 379.001C267.206 378.023 268.979 376.794 270.45 375.323V340.005H284.639V389.829H271.495L270.969 385.097C268.87 386.777 266.395 388.165 263.561 389.252C260.726 390.339 257.34 390.883 253.419 390.883H253.427Z" fill="#2A72F2"/>
  <path d="M310.818 390.882C307.666 390.882 304.739 390.306 302.039 389.143C299.338 387.99 297.164 386.267 295.525 383.993C293.878 381.719 293.051 378.859 293.051 375.423C293.051 370.515 294.79 366.593 298.251 363.65C301.721 360.707 306.855 359.236 313.652 359.236H328.368V357.873C328.368 354.788 327.507 352.614 325.793 351.36C324.079 350.097 320.625 349.47 315.442 349.47C309.764 349.47 304.296 350.348 299.045 352.095V342.112C301.361 341.201 304.179 340.448 307.507 339.855C310.835 339.261 314.463 338.96 318.385 338.96C325.885 338.96 331.679 340.482 335.784 343.534C339.881 346.585 341.93 351.468 341.93 358.199V389.837H329.63L328.895 385.314C326.93 387.07 324.513 388.433 321.646 389.411C318.769 390.389 315.166 390.882 310.818 390.882ZM314.706 381.526C317.858 381.526 320.592 381 322.908 379.946C325.224 378.893 327.038 377.563 328.376 375.95V368.065H313.978C308.443 368.065 305.676 370.339 305.676 374.896C305.676 379.453 308.686 381.518 314.714 381.518L314.706 381.526Z" fill="#2A72F2"/>
  <path d="M374.413 408.332C370.7 408.332 366.896 408.09 363.008 407.596C359.12 407.103 355.843 406.401 353.184 405.498V394.879C355.985 395.79 359.279 396.51 363.067 397.036C366.854 397.563 370.391 397.822 373.685 397.822C378.518 397.822 382.021 397.563 384.195 397.036C386.369 396.51 387.456 395.581 387.456 394.252C387.456 393.132 386.979 392.362 386.035 391.936C385.09 391.518 383.108 391.309 380.098 391.309H366.536C357.64 391.309 353.184 388.015 353.184 381.426C353.184 379.394 353.744 377.538 354.864 375.858C355.985 374.177 357.774 372.848 360.224 371.861C354.547 368.985 351.712 364.152 351.712 357.354C351.712 350.908 353.71 346.234 357.707 343.324C361.704 340.415 367.623 338.96 375.474 338.96C377.088 338.96 378.852 339.085 380.784 339.328C382.707 339.57 384.162 339.804 385.148 340.013H403.86L403.543 348.951H395.658C397.832 350.983 398.919 353.826 398.919 357.463C398.919 362.58 397.305 366.66 394.086 369.712C390.859 372.764 386.101 374.286 379.789 374.286C378.668 374.286 377.598 374.235 376.586 374.127C375.566 374.018 374.538 373.901 373.484 373.759C371.386 374.043 369.613 374.528 368.175 375.23C366.737 375.933 366.018 376.878 366.018 378.065C366.018 379.679 367.456 380.481 370.324 380.481H384.412C389.454 380.481 393.35 381.618 396.085 383.901C398.819 386.175 400.181 389.495 400.181 393.834C400.181 398.742 397.974 402.379 393.56 404.77C389.145 407.153 382.765 408.34 374.429 408.34L374.413 408.332ZM375.566 366.284C379.772 366.284 382.698 365.565 384.346 364.127C385.993 362.689 386.812 360.256 386.812 356.819C386.812 353.383 385.984 350.9 384.346 349.353C382.698 347.814 379.772 347.037 375.566 347.037C371.361 347.037 368.702 347.789 366.946 349.294C365.19 350.799 364.321 353.308 364.321 356.811C364.321 360.038 365.14 362.421 366.787 363.96C368.434 365.498 371.361 366.276 375.566 366.276V366.284Z" fill="#2A72F2"/>
  <path d="M437.38 390.883C428.76 390.883 421.929 388.725 416.879 384.419C411.829 380.113 409.312 373.575 409.312 364.813C409.312 356.895 411.427 350.607 415.675 345.942C419.914 341.284 426.235 338.952 434.646 338.952C442.355 338.952 448.258 340.967 452.355 344.997C456.452 349.027 458.5 354.303 458.5 360.816V369.854H422.447C423.216 373.851 425.056 376.585 427.965 378.057C430.875 379.528 434.989 380.264 440.315 380.264C442.974 380.264 445.691 380.021 448.458 379.528C451.226 379.035 453.592 378.408 455.557 377.638V387.73C453.241 388.784 450.549 389.57 447.464 390.097C444.378 390.623 441.017 390.883 437.372 390.883H437.38ZM422.455 361.134H446.109V358.4C446.109 355.523 445.265 353.266 443.584 351.619C441.903 349.972 439.061 349.144 435.072 349.144C430.373 349.144 427.096 350.089 425.248 351.978C423.392 353.868 422.464 356.92 422.464 361.125L422.455 361.134Z" fill="#2A72F2"/>
  <path d="M468.391 389.829V322.137H496.777C506.936 322.137 514.595 324.746 519.745 329.972C524.896 335.198 527.471 343.968 527.471 356.301C527.471 367.931 524.929 376.435 519.854 381.794C514.77 387.153 507.078 389.837 496.777 389.837H468.391V389.829ZM482.58 378.893H494.771C498.767 378.893 502.128 378.282 504.863 377.053C507.597 375.833 509.645 373.583 511.016 370.323C512.379 367.062 513.065 362.388 513.065 356.293C513.065 350.197 512.438 345.54 511.175 342.313C509.913 339.094 507.948 336.886 505.289 335.691C502.622 334.504 499.118 333.902 494.779 333.902H482.589V378.893H482.58Z" fill="#39B54A"/>
  <path d="M529.461 389.829L555.322 322.137H570.882L596.634 389.829H581.919L575.506 373.533H550.589L544.285 389.829H529.461ZM552.696 362.605H573.407L562.997 335.381L552.696 362.605Z" fill="#39B54A"/>
  <path d="M631.533 390.883C609.594 390.883 598.632 379.353 598.632 356.301C598.632 343.901 601.4 334.93 606.935 329.395C612.47 323.86 620.672 321.092 631.533 321.092C642.394 321.092 650.597 323.86 656.132 329.395C661.667 334.93 664.434 343.901 664.434 356.301C664.434 379.361 653.464 390.883 631.533 390.883ZM631.533 378.792C637.904 378.792 642.587 376.953 645.563 373.274C648.54 369.595 650.028 363.935 650.028 356.301C650.028 347.823 648.54 341.845 645.563 338.375C642.587 334.905 637.904 333.174 631.533 333.174C625.162 333.174 620.48 334.905 617.503 338.375C614.527 341.845 613.039 347.823 613.039 356.301C613.039 363.943 614.527 369.595 617.503 373.274C620.48 376.953 625.162 378.792 631.533 378.792Z" fill="#39B54A"/>
  <path d="M51.5981 123.001C51.5981 180.191 94.1562 227.439 149.323 234.814C157.299 235.884 164.415 229.73 164.415 221.687V24.3147C164.415 16.2629 157.299 10.1175 149.323 11.1877C94.1478 18.5622 51.5981 65.8109 51.5981 123.001Z" fill="#2A72F2"/>
  <path d="M501.242 240.366C490.916 240.366 482.522 231.979 482.522 221.679V24.3145C482.522 14.0136 490.925 5.62744 501.242 5.62744C502.078 5.62744 502.931 5.68598 503.767 5.79467C531.911 9.55717 557.805 23.4115 576.676 44.816C595.723 66.4127 606.208 94.1716 606.208 123.001C606.208 151.83 595.723 179.589 576.676 201.185C557.805 222.582 531.911 236.444 503.767 240.207C502.931 240.315 502.078 240.374 501.242 240.374V240.366Z" fill="#2A72F2"/>
  <path d="M501.242 11.0622C501.836 11.0622 502.438 11.104 503.048 11.1793C558.215 18.5538 600.773 65.8024 600.773 122.992C600.773 180.182 558.223 227.431 503.048 234.805C502.438 234.889 501.836 234.923 501.242 234.923C494.026 234.923 487.956 229.112 487.956 221.67V24.3062C487.956 16.8648 494.026 11.0538 501.242 11.0538V11.0622ZM501.242 0.184369C487.923 0.184369 477.087 11.0037 477.087 24.3062V221.67C477.087 234.973 487.923 245.792 501.242 245.792C502.321 245.792 503.408 245.717 504.486 245.575C533.926 241.637 561.007 227.147 580.748 204.764C600.664 182.172 611.634 153.134 611.634 122.984C611.634 92.8339 600.664 63.7957 580.748 41.204C561.007 18.8213 533.926 4.33148 504.486 0.393397C503.416 0.251258 502.321 0.176025 501.242 0.176025V0.184369Z" fill="#39B54A"/>
  <path d="M206.789 59.8494H205.819C202.365 59.8494 199.565 62.6494 199.565 66.1035V180.266C199.565 183.72 202.365 186.52 205.819 186.52H206.789C210.243 186.52 213.043 183.72 213.043 180.266V66.1035C213.043 62.6494 210.243 59.8494 206.789 59.8494Z" fill="#39B54A"/>
  <path d="M443.341 59.8494H442.372C438.917 59.8494 436.117 62.6494 436.117 66.1035V180.266C436.117 183.72 438.917 186.52 442.372 186.52H443.341C446.795 186.52 449.596 183.72 449.596 180.266V66.1035C449.596 62.6494 446.795 59.8494 443.341 59.8494Z" fill="#39B54A"/>
  <path d="M403.919 41.9062H402.949C399.495 41.9062 396.695 44.7063 396.695 48.1603V199.271C396.695 202.725 399.495 205.525 402.949 205.525H403.919C407.373 205.525 410.173 202.725 410.173 199.271V48.1603C410.173 44.7063 407.373 41.9062 403.919 41.9062Z" fill="#39B54A"/>
  <path d="M246.22 41.9062H245.25C241.796 41.9062 238.996 44.7063 238.996 48.1603V199.271C238.996 202.725 241.796 205.525 245.25 205.525H246.22C249.674 205.525 252.474 202.725 252.474 199.271V48.1603C252.474 44.7063 249.674 41.9062 246.22 41.9062Z" fill="#39B54A"/>
  <path d="M285.643 25.0168H284.673C281.219 25.0168 278.419 27.8169 278.419 31.271V216.16C278.419 219.614 281.219 222.414 284.673 222.414H285.643C289.097 222.414 291.897 219.614 291.897 216.16V31.271C291.897 27.8169 289.097 25.0168 285.643 25.0168Z" fill="#39B54A"/>
  <path d="M364.496 25.0168H363.526C360.072 25.0168 357.272 27.8169 357.272 31.271V216.16C357.272 219.614 360.072 222.414 363.526 222.414H364.496C367.95 222.414 370.75 219.614 370.75 216.16V31.271C370.75 27.8169 367.95 25.0168 364.496 25.0168Z" fill="#39B54A"/>
  <path d="M325.065 7.07397H324.095C320.641 7.07397 317.841 9.87402 317.841 13.3281V233.058C317.841 236.512 320.641 239.312 324.095 239.312H325.065C328.519 239.312 331.319 236.512 331.319 233.058V13.3281C331.319 9.87402 328.519 7.07397 325.065 7.07397Z" fill="#39B54A"/>
  <path d="M166.438 43.6956C165.97 41.4297 165.092 39.8829 163.988 38.9047V39.3395C161.539 37.4164 157.977 38.2525 155.042 40.418C150.719 43.6036 150.243 45.3595 146.171 43.4197C142.107 41.4883 143.27 45.4431 138.077 49.5066C132.868 53.5701 131.815 50.3343 132.275 46.0116C132.726 41.6889 132.35 43.2023 126.606 43.3695C120.845 43.5451 122.501 38.7458 126.38 31.8646C130.218 24.9333 145.845 32.6004 149.089 31.3295C152.274 30.0168 152.107 24.256 159.03 25.8781C160.945 26.3296 162.651 27.0737 164.214 27.8178V14.6156C163.069 13.6625 161.555 12.6592 159.482 11.706C151.112 7.8766 150.109 15.7444 142.592 19.2728C135.092 22.8346 143.077 16.6892 139.265 11.9986C135.502 7.32475 133.412 21.3881 128.286 22.3748C123.88 23.2527 129.867 16.0705 130.352 11.5973C123.788 13.6708 117.484 16.3213 111.489 19.4985C112.133 20.0086 112.944 20.343 113.772 20.3848C116.966 20.552 122.108 21.2293 114.307 25.6607C111.129 27.4081 107.442 25.9868 104.223 23.6958C96.5811 28.4951 89.5244 34.189 83.2117 40.6187C80.787 43.0852 78.471 45.6688 76.272 48.3527C74.8088 50.142 73.3874 51.9731 72.0246 53.846C71.6817 54.3142 71.3389 54.7908 71.0045 55.259C67.3423 60.4763 64.0731 66.0198 61.2805 71.8224C60.7789 72.8759 60.2437 73.9461 59.7672 75.0163C58.5799 77.7002 57.7103 80.4343 56.4143 83.2269C55.9796 84.8991 55.3358 86.5965 54.8174 88.3021C71.0965 93.093 66.1132 103.837 63.1367 108.703C59.5414 114.615 76.966 120.108 86.6648 118.385C96.347 116.604 94.0561 128.31 99.7834 128.661C105.486 128.987 117.459 139.288 115.41 141.546C113.337 143.812 107.994 157.097 110.285 165.977C112.568 174.873 124.557 176.345 127.526 180.751C130.502 185.174 128.813 192.13 129.29 197.381C129.758 202.64 127.751 206.42 129.783 212.766C131.848 219.128 144.181 225.366 142.893 234.438C142.76 235.408 142.224 236.311 143.086 237.147C144.382 237.339 144.892 237.523 145.87 237.69C145.962 237.707 145.937 237.715 146.029 237.732C146.438 237.799 146.848 237.866 147.258 237.924C147.734 237.999 148.203 238.066 148.679 238.133C149.214 238.208 149.758 238.284 150.293 238.342C151.823 238.535 153.361 238.693 154.9 238.819C153.704 237.498 152.826 236.118 152.885 234.764C153.152 229.847 150.912 230.533 148.035 223.476C145.151 216.419 154.883 222.506 158.98 215.475C161.154 211.771 162.659 208.61 164.181 206.152V141.872C163.621 141.061 163.019 140.149 162.375 139.113C157.417 131.27 151.305 133.954 149.749 131.32C148.194 128.686 145.77 122.892 141.965 124.823C138.161 126.755 138.671 127.624 131.422 120.977C124.173 114.355 117.743 125.551 112.735 127.967C107.726 130.392 106.322 124.84 106.355 119.13C106.389 113.411 104.658 114.288 100.528 112.424C96.4055 110.576 106.481 105.451 100.31 103.11C94.1313 100.785 100.511 112.416 88.2869 110.317C76.0462 108.26 87.1247 96.9893 93.4875 90.6181C99.842 84.2553 106.071 93.7703 108.287 99.4224C110.502 105.058 113.813 97.8421 113.604 91.0111C113.404 84.1884 116.857 79.13 125.661 75.7019C134.49 72.2822 144.54 63.9964 146.948 57.5332C149.373 51.0785 150.234 53.5115 157.835 53.1437C160.477 53.0182 162.483 52.7256 163.947 52.1236V52.1487C163.997 52.1236 164.039 52.0901 164.089 52.0651C164.114 52.0567 164.147 52.0483 164.172 52.0316V52.0149C166.697 50.744 167.366 48.3276 166.396 43.6621L166.438 43.6956Z" fill="white"/>
  <path d="M507.655 148.134C506.175 144.213 503.867 142.139 498.182 144.932C493.249 147.357 491.125 146.629 487.388 141.303V204.948C488.759 202.766 490.155 201.152 492.07 200.241C496.125 198.301 492.956 196.411 491.117 191.378C489.269 186.353 500.331 186.804 503.893 187.615C507.438 188.435 512.939 186.796 507.789 178.025C502.597 169.238 510.247 164.764 512.722 161.278C515.18 157.791 515.983 158.594 514.31 153.41C512.622 148.226 509.127 152.064 507.655 148.134Z" fill="white"/>
  <path d="M551.2 67.1402C555.974 65.3008 561.057 63.754 566.935 65.6352C572.813 67.5081 575.706 71.5465 576.074 75.6518C576.433 79.7655 580.43 79.7154 582.637 76.9729C584.836 74.2305 586.601 76.7472 586.049 73.7539C585.497 70.769 583.189 63.5031 585.438 65.4011C587.713 67.2991 588.691 77.0732 593.106 77.0983C593.289 77.0983 593.49 77.1401 593.699 77.1987C586.249 59.7407 574.619 44.49 560.054 32.7175C558.223 34.1138 557.353 35.9867 560.104 38.1941C566.492 43.2358 560.564 43.4699 567.495 45.7525C574.435 48.0434 580.012 49.4648 573.699 49.5317C567.387 49.6153 565.606 48.1689 564.527 51.2207C563.474 54.239 555.154 60.744 551.609 60.1503C548.089 59.4898 528.148 58.5199 532.17 67.1486C536.225 75.7187 546.451 68.9462 551.2 67.1319V67.1402Z" fill="white"/>
  <path d="M602.896 122.407C602.896 110.886 601.207 99.7653 598.064 89.2721C595.396 86.4043 594.803 83.3775 592.102 85.9695C588.315 89.5982 581.032 91.4042 577.144 89.13C573.281 86.8641 573.582 75.5181 566.626 77.5582C559.678 79.6067 552.864 84.1551 549.026 82.4578C545.188 80.7438 537.337 81.814 542.362 89.339C547.404 96.8389 540.213 99.9409 534.068 100.05C527.956 100.091 518.667 118.076 534.979 128.737C551.292 139.297 557.253 126.128 561.584 130.049C565.915 133.92 567.822 133.728 572.169 133.703C576.509 133.678 577.211 133.996 574.895 138.36C572.579 142.733 577.554 150.367 583.072 156.805C588.574 163.226 580.464 163 579.427 166.872C578.382 170.726 579.042 178.335 582.052 181.127C583.29 182.248 582.637 185.308 582.244 188.276C595.271 169.606 602.913 146.897 602.913 122.399L602.896 122.407Z" fill="white"/>
  <path d="M549.787 48.8879C549.093 51.8979 549.076 53.4782 553.056 52.7842C553.056 52.7842 558.139 50.4849 556.3 46.7893C554.477 43.0937 551.576 31.7644 549.461 35.3346C547.329 38.9215 550.472 45.8863 549.787 48.8879Z" fill="white"/>
  <path d="M547.981 49.3227C547.905 48.1354 548.658 43.2943 544.854 43.4448C544.854 43.4448 539.344 45.7358 542.571 49.6488C545.815 53.545 548.064 50.51 547.981 49.3227Z" fill="white"/>
  <path d="M151.121 11.0622C158.336 11.0622 164.406 16.8732 164.406 24.3145V221.687C164.406 229.12 158.336 234.939 151.121 234.939C150.527 234.939 149.925 234.897 149.315 234.822C94.1396 227.448 51.5899 180.199 51.5899 123.009C51.5899 65.8191 94.148 18.5705 149.315 11.196C149.925 11.1123 150.519 11.0789 151.121 11.0789V11.0622ZM151.121 0.209473C150.042 0.209473 148.955 0.284705 147.876 0.426844C118.437 4.36493 91.3553 18.8547 71.6148 41.2374C51.6902 63.8292 40.7205 92.8673 40.7205 123.017C40.7205 153.168 51.6902 182.206 71.6148 204.798C91.3553 227.18 118.437 241.67 147.876 245.608C148.947 245.75 150.042 245.825 151.121 245.825C164.44 245.825 175.276 235.006 175.276 221.704V24.3313C175.276 11.0287 164.44 0.209473 151.121 0.209473Z" fill="#39B54A"/>
</svg>
