<svg viewBox="0 0 120 68" xmlns="http://www.w3.org/2000/svg">
  <path d="M31.4499 3.75392V1.59392H19.3299V3.75392H24.0099V15.3939H26.7699V3.75392H31.4499ZM42.3155 7.45392C42.0955 5.59392 40.7955 4.47392 38.5355 4.47392C37.5155 4.47392 36.7355 4.67392 35.9755 5.21392L35.1555 6.47392V0.593921H32.3955V15.3939H35.1555V10.5339C35.1555 7.57392 36.2155 6.43392 37.5555 6.41392C38.8955 6.41392 39.5155 7.17392 39.5955 8.29392C39.6355 8.83392 39.6355 9.33392 39.6355 9.77392V15.3939H42.3955V9.39392C42.3955 8.53392 42.3755 7.99392 42.3155 7.45392ZM54.4774 9.85392C54.4774 6.95392 52.7574 4.47392 49.4974 4.47392C46.2374 4.47392 44.0974 6.85392 44.0974 10.1139C44.0974 13.8539 46.3574 15.6739 49.2774 15.6739C51.7774 15.6739 53.7774 14.4139 54.3174 11.9339H51.5574C51.3774 13.0739 50.5174 13.7339 49.3374 13.7339C48.0574 13.7339 47.0574 13.0339 46.8774 10.7939H54.4374C54.4774 10.4339 54.4774 10.1139 54.4774 9.85392ZM49.3774 6.41392C50.6974 6.41392 51.4574 7.31392 51.6374 8.99392H46.9574C47.1974 7.23392 48.0974 6.41392 49.3774 6.41392ZM70.7466 13.0939H63.5466V1.59392H60.7866V15.3939H70.7466V13.0939ZM77.137 4.47392C73.597 4.47392 71.617 6.83392 71.617 10.0739C71.617 13.2939 73.597 15.6739 77.137 15.6739C80.677 15.6739 82.657 13.2939 82.657 10.0739C82.657 6.83392 80.677 4.47392 77.137 4.47392ZM77.137 13.7339C75.477 13.7339 74.477 12.3539 74.477 10.0739C74.477 7.77392 75.477 6.41392 77.137 6.41392C78.797 6.41392 79.797 7.77392 79.797 10.0739C79.797 12.3539 78.797 13.7339 77.137 13.7339ZM88.2659 4.47392C85.7259 4.47392 84.0459 5.71392 84.0459 7.75392C84.0459 9.59392 85.4059 10.4539 87.3859 10.9539C89.2259 11.4139 89.9259 11.8739 89.9259 12.6939C89.9259 13.4739 89.2459 13.8539 88.3659 13.8539C87.4059 13.8539 86.6059 13.3139 86.3859 12.1539H83.6259C83.9259 14.5539 85.7459 15.6739 88.3259 15.6739C90.7659 15.6739 92.7059 14.6339 92.7059 12.4939C92.7059 10.5339 91.4259 9.65392 89.2459 9.09392C87.4859 8.65392 86.8259 8.23392 86.8259 7.43392C86.8259 6.77392 87.2659 6.29392 88.0859 6.29392C89.0059 6.29392 89.5459 6.85392 89.7259 7.83392H92.4859C92.2459 5.89392 90.8059 4.47392 88.2659 4.47392ZM97.7073 6.65392H99.9073V4.83392H97.7073V2.21392H94.9473V4.83392H93.3873V6.65392H94.9473V11.8939C94.9473 12.4939 94.9473 12.9539 94.9873 13.4339C95.1073 14.9339 95.8473 15.6139 97.9073 15.6139C98.5273 15.6139 99.1073 15.5739 99.7273 15.4739V13.6739C98.1873 13.7939 97.8073 13.5539 97.7273 12.5139C97.7073 12.2339 97.7073 11.9339 97.7073 11.5739V6.65392ZM26.2965 25.3139C22.4765 25.3139 19.6165 28.0539 19.6165 32.5739C19.6165 36.9739 22.2565 39.6739 26.0965 39.6739C29.6365 39.6739 31.8765 37.7539 32.1765 34.8139L32.1965 34.6139H29.4565L29.4165 34.8139C29.0565 36.5339 28.0165 37.6139 26.2165 37.6139C24.1165 37.6139 22.5365 35.8539 22.5365 32.4139C22.5365 29.2739 24.0365 27.3739 26.2565 27.3739C28.0965 27.3739 29.1365 28.3739 29.4765 30.0739L29.5165 30.2739H32.2765L32.2565 30.0739C31.9765 27.3539 30.0365 25.3139 26.2965 25.3139ZM44.132 31.4539C43.912 29.5939 42.612 28.4739 40.352 28.4739C39.332 28.4739 38.552 28.6739 37.792 29.2139L36.972 30.4739V24.5939H34.212V39.3939H36.972V34.5339C36.972 31.5739 38.032 30.4339 39.372 30.4139C40.712 30.4139 41.332 31.1739 41.412 32.2939C41.452 32.8339 41.452 33.3339 41.452 33.7739V39.3939H44.212V33.3939C44.212 32.5339 44.192 31.9939 44.132 31.4539ZM48.0138 24.7939C47.1138 24.7939 46.4938 25.3939 46.4938 26.2539C46.4938 27.1339 47.1138 27.7139 48.0138 27.7139C48.9138 27.7139 49.5338 27.1339 49.5338 26.2539C49.5338 25.3939 48.9138 24.7939 48.0138 24.7939ZM49.3938 39.3939V28.7539H46.6338V39.3939H49.3938ZM54.6263 24.6939H51.8663V35.9739C51.8663 36.6739 51.8663 37.1739 51.9063 37.6539C51.9663 39.0339 52.8263 39.5339 54.1863 39.5339C54.8063 39.5339 55.3463 39.5139 55.8863 39.4539V37.5539C54.9463 37.6139 54.7063 37.4339 54.6463 36.8939C54.6263 36.6139 54.6263 36.3339 54.6263 35.9139V24.6939ZM67.8723 24.6939H65.1123V30.1739L64.4123 29.0739C63.8723 28.6939 62.7923 28.4739 61.9123 28.4739C59.1723 28.4739 56.8123 30.4139 56.8123 34.2739C56.8123 37.4139 58.5723 39.6739 61.5523 39.6739C62.6323 39.6739 63.7123 39.3939 64.3123 38.9339L65.1123 37.7539V39.3939H67.8723V24.6939ZM62.3523 37.7339C60.7123 37.7339 59.6723 36.2739 59.6723 34.0939C59.6723 31.6339 60.8523 30.4139 62.4523 30.4139C63.7323 30.4139 65.1123 31.2739 65.1123 33.6739V34.1939C65.1123 36.7939 63.8723 37.7339 62.3523 37.7339ZM75.8429 28.4939C75.2429 28.4939 74.5429 28.7339 74.0229 29.2139L73.1829 30.6939V28.7539H70.4229V39.3939H73.1829V34.5139C73.1829 31.6539 74.3229 30.6339 76.6229 30.7939V28.5739C76.3829 28.5139 76.1629 28.4939 75.8429 28.4939ZM87.5829 33.8539C87.5829 30.9539 85.8629 28.4739 82.6029 28.4739C79.3429 28.4739 77.2029 30.8539 77.2029 34.1139C77.2029 37.8539 79.4629 39.6739 82.3829 39.6739C84.8829 39.6739 86.8829 38.4139 87.4229 35.9339H84.6629C84.4829 37.0739 83.6229 37.7339 82.4429 37.7339C81.1629 37.7339 80.1629 37.0339 79.9829 34.7939H87.5429C87.5829 34.4339 87.5829 34.1139 87.5829 33.8539ZM82.4829 30.4139C83.8029 30.4139 84.5629 31.3139 84.7429 32.9939H80.0629C80.3029 31.2339 81.2029 30.4139 82.4829 30.4139ZM99.4054 31.4539C99.1854 29.5939 97.8854 28.4739 95.6254 28.4739C94.6054 28.4739 93.8254 28.6739 93.0654 29.2139L92.2454 30.4739V28.7539H89.4854V39.3939H92.2454V34.5339C92.2454 31.5739 93.3054 30.4139 94.6454 30.4139C95.9854 30.4139 96.6054 31.1739 96.6854 32.2939C96.7254 32.8339 96.7254 33.3339 96.7254 33.7739V39.3939H99.4854V33.3939C99.4854 32.5339 99.4654 31.9939 99.4054 31.4539ZM5.81859 52.4739C2.27859 52.4739 0.298591 54.8339 0.298591 58.0739C0.298591 61.2939 2.27859 63.6739 5.81859 63.6739C9.35859 63.6739 11.3386 61.2939 11.3386 58.0739C11.3386 54.8339 9.35859 52.4739 5.81859 52.4739ZM5.81859 61.7339C4.15859 61.7339 3.15859 60.3539 3.15859 58.0739C3.15859 55.7739 4.15859 54.4139 5.81859 54.4139C7.47859 54.4139 8.47859 55.7739 8.47859 58.0739C8.47859 60.3539 7.47859 61.7339 5.81859 61.7339ZM16.2275 51.3939C16.3275 50.4939 17.2475 50.1339 18.5475 50.3739V48.4539C18.1875 48.3739 17.7675 48.3139 17.3275 48.3139C14.8075 48.3139 13.6275 49.3739 13.4675 51.1739C13.4275 51.5339 13.4275 52.0339 13.4275 52.3939V52.8339H12.2875V54.6539H13.4275V63.3939H16.1875V54.6539H18.3675V52.8339H16.1875V52.3139C16.1875 52.0339 16.1875 51.6739 16.2275 51.3939ZM32.372 55.9539C33.752 55.4739 34.512 54.5339 34.512 53.1139C34.512 51.2539 33.272 49.9539 31.032 49.6739C30.352 49.5939 29.952 49.5939 29.252 49.5939H24.312V63.3939H29.332C30.112 63.3939 30.552 63.3939 31.252 63.3139C33.092 63.0539 35.032 61.8339 35.032 59.2739C35.032 57.4939 34.152 56.4139 32.372 55.9539ZM27.072 51.7539H29.072C29.392 51.7539 29.752 51.7739 30.072 51.8139C30.992 51.9339 31.632 52.4339 31.632 53.4739C31.632 54.4739 31.132 55.0339 30.132 55.1939C29.812 55.2339 29.492 55.2539 29.152 55.2539H27.072V51.7539ZM30.392 61.1939C30.132 61.2139 29.792 61.2139 29.472 61.2139H27.072V57.3139H29.372C29.692 57.3139 30.012 57.3339 30.352 57.3739C31.352 57.4739 32.132 58.0139 32.132 59.2939C32.132 60.4539 31.352 61.1139 30.392 61.1939ZM46.5966 57.8539C46.5966 54.9539 44.8766 52.4739 41.6166 52.4739C38.3566 52.4739 36.2166 54.8539 36.2166 58.1139C36.2166 61.8539 38.4766 63.6739 41.3966 63.6739C43.8966 63.6739 45.8966 62.4139 46.4366 59.9339H43.6766C43.4966 61.0739 42.6366 61.7339 41.4566 61.7339C40.1766 61.7339 39.1766 61.0339 38.9966 58.7939H46.5566C46.5966 58.4339 46.5966 58.1139 46.5966 57.8539ZM41.4966 54.4139C42.8166 54.4139 43.5766 55.3139 43.7566 56.9939H39.0766C39.3166 55.2339 40.2166 54.4139 41.4966 54.4139ZM58.4191 55.4539C58.1991 53.5939 56.8991 52.4739 54.6391 52.4739C53.6191 52.4739 52.8391 52.6739 52.0791 53.2139L51.2591 54.4739V52.7539H48.4991V63.3939H51.2591V58.5339C51.2591 55.5739 52.3191 54.4139 53.6591 54.4139C54.9991 54.4139 55.6191 55.1739 55.6991 56.2939C55.7391 56.8339 55.7391 57.3339 55.7391 57.7739V63.3939H58.4991V57.3939C58.4991 56.5339 58.4791 55.9939 58.4191 55.4539ZM62.3009 48.7939C61.4009 48.7939 60.7809 49.3939 60.7809 50.2539C60.7809 51.1339 61.4009 51.7139 62.3009 51.7139C63.2009 51.7139 63.8209 51.1339 63.8209 50.2539C63.8209 49.3939 63.2009 48.7939 62.3009 48.7939ZM63.6809 63.3939V52.7539H60.9209V63.3939H63.6809ZM76.1534 55.4539C75.9334 53.5939 74.6334 52.4739 72.3734 52.4739C71.3534 52.4739 70.5734 52.6739 69.8134 53.2139L68.9934 54.4739V52.7539H66.2334V63.3939H68.9934V58.5339C68.9934 55.5739 70.0534 54.4139 71.3934 54.4139C72.7334 54.4139 73.3534 55.1739 73.4334 56.2939C73.4734 56.8339 73.4734 57.3339 73.4734 57.7739V63.3939H76.2334V57.3939C76.2334 56.5339 76.2134 55.9939 76.1534 55.4539ZM88.982 49.3139C85.162 49.3139 82.302 52.0539 82.302 56.5739C82.302 60.9739 84.942 63.6739 88.782 63.6739C92.322 63.6739 94.562 61.7539 94.862 58.8139L94.882 58.6139H92.142L92.102 58.8139C91.742 60.5339 90.702 61.6139 88.902 61.6139C86.802 61.6139 85.222 59.8539 85.222 56.4139C85.222 53.2739 86.722 51.3739 88.942 51.3739C90.782 51.3739 91.822 52.3739 92.162 54.0739L92.202 54.2739H94.962L94.942 54.0739C94.662 51.3539 92.722 49.3139 88.982 49.3139ZM98.2775 48.7939C97.3775 48.7939 96.7575 49.3939 96.7575 50.2539C96.7575 51.1339 97.3775 51.7139 98.2775 51.7139C99.1775 51.7139 99.7975 51.1339 99.7975 50.2539C99.7975 49.3939 99.1775 48.7939 98.2775 48.7939ZM99.6575 63.3939V52.7539H96.8975V63.3939H99.6575ZM105.51 54.6539H107.71V52.8339H105.51V50.2139H102.75V52.8339H101.19V54.6539H102.75V59.8939C102.75 60.4939 102.75 60.9539 102.79 61.4339C102.91 62.9339 103.65 63.6139 105.71 63.6139C106.33 63.6139 106.91 63.5739 107.53 63.4739V61.6739C105.99 61.7939 105.61 61.5539 105.53 60.5139C105.51 60.2339 105.51 59.9339 105.51 59.5739V54.6539ZM119.517 52.7539H116.497L113.897 61.2939L111.257 52.7539H108.177L112.517 63.8939L112.377 64.2339C111.937 65.2939 111.317 65.6539 110.377 65.6539C110.097 65.6539 109.837 65.6539 109.557 65.6139V67.5139C109.957 67.5739 110.297 67.5939 110.797 67.5939C112.957 67.5939 114.117 66.6739 115.237 63.7939L119.517 52.7539Z" fill="black"/>
</svg>
