<svg viewBox="0 0 122 90"  xmlns="http://www.w3.org/2000/svg">
  <g clip-path="url(#clip0_90_1694)">
    <path fill-rule="evenodd" clip-rule="evenodd" d="M95.7261 38.1019C95.582 32.03 93.6133 26.1953 90.3962 21.2144C91.8367 19.1272 92.701 16.613 92.701 13.8617C92.701 6.65126 86.795 0.863965 79.5444 0.863965C75.319 0.863965 71.5737 2.80888 69.1728 5.89227C66.9161 5.32303 64.6113 4.99097 62.2584 4.94354C61.9223 4.94354 61.5862 4.94354 61.2501 4.94354C58.5131 4.94354 55.8722 5.27559 53.2793 5.84484C50.8785 2.76144 47.1332 0.816528 42.9557 0.816528C35.6572 0.816528 29.7511 6.65126 29.7511 13.8142C29.7511 16.4233 30.5194 18.89 31.9119 20.9298C28.6467 26.1953 26.7261 32.3621 26.7261 38.9558V39.0981C26.7741 47.779 32.2 55.6061 40.3628 58.8793C46.7971 61.4409 53.8555 62.864 61.2021 62.864C68.5486 62.864 75.6071 61.4409 82.0413 58.8793C90.1561 55.6536 95.63 47.9213 95.6781 39.2878C95.7261 38.8609 95.7261 38.4814 95.7261 38.1019ZM31.0476 38.9558C31.0476 33.3582 32.6321 27.9504 35.6092 23.2067C39.7866 16.5656 46.605 11.727 54.2877 9.92441C56.5444 9.4026 58.8973 9.11798 61.2501 9.11798C61.5382 9.11798 61.8263 9.11798 62.1144 9.11798C64.1311 9.16542 66.1478 9.45004 68.1165 9.92441C75.6551 11.7744 82.4735 16.7079 86.795 23.4439C89.724 27.9504 91.3085 33.0736 91.4526 38.1493C91.4526 38.4814 91.4526 38.8609 91.4526 39.193C91.4046 42.2764 90.5403 45.2174 89.0037 47.7316C85.1144 43.2251 79.3044 40.3789 72.8221 40.3789C70.3733 40.3789 67.9724 40.8058 65.8117 41.5648C70.5653 45.17 73.7344 50.6727 74.1666 56.9344C73.0622 57.219 71.9098 57.4562 70.7574 57.6933C69.701 51.8586 66.1958 46.8777 61.3461 43.7469C58.033 41.6122 54.0476 40.3789 49.8221 40.3789C44.6363 40.3789 39.8346 42.2289 36.1373 45.2649C35.273 45.9764 34.4087 46.8303 33.6885 47.6842C31.9599 45.17 31.0476 42.1815 31.0476 39.0981V38.9558Z" fill="#1A1A1A"/>
    <path d="M55.5494 31.3751C56.7161 27.0732 54.651 22.7889 50.9369 21.8057C47.2228 20.8226 43.2661 23.513 42.0994 27.8149C40.9326 32.1168 42.9977 36.4012 46.7118 37.3843C50.4259 38.3674 54.3826 35.677 55.5494 31.3751Z" fill="#1A1A1A"/>
    <path d="M75.7538 37.3992C79.4679 36.4161 81.533 32.1317 80.3663 27.8298C79.1995 23.5279 75.2428 20.8375 71.5287 21.8207C67.8146 22.8038 65.7495 27.0881 66.9163 31.39C68.083 35.6919 72.0397 38.3823 75.7538 37.3992Z" fill="#1A1A1A"/>
  </g>
    <path d="M5.72607 89.5416H9.1109V84.7303H11.6825C15.1333 84.7303 17.9027 82.8057 17.9027 79.0942V79.0483C17.9027 75.7721 15.6827 73.5039 12.0122 73.5039H5.72607V89.5416ZM9.1109 81.5915V76.6885H11.7264C13.4189 76.6885 14.4739 77.5362 14.4739 79.1171V79.1629C14.4739 80.5376 13.4848 81.5915 11.7924 81.5915H9.1109Z" fill="#1A1A1A"/>
    <path d="M22.303 89.7707C23.9295 89.7707 25.0504 89.1521 25.8637 88.2128V89.5416H29.0946V82.4163C29.0946 80.7667 28.699 79.4149 27.8198 78.4985C26.9846 77.6278 25.6658 77.1238 23.8415 77.1238C21.8414 77.1238 20.5666 77.5133 19.2698 78.109L20.1051 80.7667C21.182 80.3543 22.0832 80.1022 23.358 80.1022C25.0284 80.1022 25.8856 80.9041 25.8856 82.3475V82.5537C25.0504 82.2559 24.1932 82.0497 23.0063 82.0497C20.215 82.0497 18.2588 83.2869 18.2588 85.9675V86.0133C18.2588 88.4419 20.0831 89.7707 22.303 89.7707ZM23.314 87.365C22.2371 87.365 21.4898 86.8152 21.4898 85.8758V85.83C21.4898 84.7303 22.3689 84.1346 23.7976 84.1346C24.6108 84.1346 25.3581 84.3179 25.9296 84.5928V85.2114C25.9296 86.4715 24.8746 87.365 23.314 87.365Z" fill="#1A1A1A"/>
    <path d="M31.0903 89.5416H34.4311V82.6912C34.4311 81.0416 35.2444 80.1939 36.5192 80.1939C37.794 80.1939 38.5413 81.0416 38.5413 82.6912V89.5416H41.8822V81.5915C41.8822 78.7734 40.4095 77.0322 37.8819 77.0322C36.1895 77.0322 35.2004 77.9715 34.4311 79.0025V77.2613H31.0903V89.5416Z" fill="#1A1A1A"/>
    <path d="M48.7408 89.7707C50.4771 89.7707 51.5981 88.923 52.4113 87.7774V89.5416H55.7522V72.8165H52.4113V78.865C51.6201 77.8799 50.5211 77.0322 48.7408 77.0322C45.9494 77.0322 43.3778 79.2774 43.3778 83.3785V83.4243C43.3778 87.5254 45.9933 89.7707 48.7408 89.7707ZM49.5979 86.8152C48.0374 86.8152 46.7187 85.4634 46.7187 83.4243V83.3785C46.7187 81.3165 48.0374 79.9877 49.5979 79.9877C51.1585 79.9877 52.4553 81.3394 52.4553 83.3785V83.4243C52.4553 85.4634 51.1585 86.8152 49.5979 86.8152Z" fill="#1A1A1A"/>
    <path d="M61.1988 89.7707C62.8252 89.7707 63.9462 89.1521 64.7594 88.2128V89.5416H67.9904V82.4163C67.9904 80.7667 67.5948 79.4149 66.7156 78.4985C65.8804 77.6278 64.5616 77.1238 62.7373 77.1238C60.7372 77.1238 59.4624 77.5133 58.1656 78.109L59.0008 80.7667C60.0778 80.3543 60.979 80.1022 62.2538 80.1022C63.9242 80.1022 64.7814 80.9041 64.7814 82.3475V82.5537C63.9462 82.2559 63.089 82.0497 61.9021 82.0497C59.1107 82.0497 57.1546 83.2869 57.1546 85.9675V86.0133C57.1546 88.4419 58.9789 89.7707 61.1988 89.7707ZM62.2098 87.365C61.1328 87.365 60.3855 86.8152 60.3855 85.8758V85.83C60.3855 84.7303 61.2647 84.1346 62.6934 84.1346C63.5066 84.1346 64.2539 84.3179 64.8254 84.5928V85.2114C64.8254 86.4715 63.7704 87.365 62.2098 87.365Z" fill="#1A1A1A"/>
    <path d="M70.3377 89.5416H76.3381C81.1736 89.5416 84.5144 86.0362 84.5144 81.5227V81.4769C84.5144 76.9634 81.1736 73.5039 76.3381 73.5039H70.3377V89.5416ZM73.7225 86.357V76.6885H76.3381C79.1075 76.6885 80.9758 78.6818 80.9758 81.5227V81.5686C80.9758 84.4095 79.1075 86.357 76.3381 86.357H73.7225Z" fill="#1A1A1A"/>
    <path d="M84.238 89.5416H87.6887L89.0954 85.9446H95.6013L97.008 89.5416H100.547L93.9529 73.3893H90.8318L84.238 89.5416ZM90.3043 82.8287L92.3484 77.6278L94.3924 82.8287H90.3043Z" fill="#1A1A1A"/>
    <path d="M108.528 89.8165C113.275 89.8165 116.726 86.082 116.726 81.5227V81.4769C116.726 76.9176 113.319 73.2289 108.572 73.2289C103.824 73.2289 100.373 76.9634 100.373 81.5227V81.5686C100.373 86.1278 103.78 89.8165 108.528 89.8165ZM108.572 86.5632C105.846 86.5632 103.912 84.2721 103.912 81.5227V81.4769C103.912 78.7276 105.802 76.4823 108.528 76.4823C111.253 76.4823 113.187 78.7734 113.187 81.5227V81.5686C113.187 84.3179 111.297 86.5632 108.572 86.5632Z" fill="#1A1A1A"/>
  <defs>
    <clipPath id="clip0_90_1694">
    <rect width="69" height="62" fill="white" transform="translate(26.7261 0.816528)"/>
  </clipPath>
  </defs>
</svg>
