<svg viewBox="0 0 32 24" fill="none" xmlns="http://www.w3.org/2000/svg">
<g clip-path="url(#clip0_722_34)">
	<path fill-rule="evenodd" clip-rule="evenodd" d="M25.1081 9.99413C25.0703 8.4015 24.5539 6.87108 23.7101 5.56462C24.088 5.01715 24.3147 4.35769 24.3147 3.63604C24.3147 1.74478 22.7655 0.226798 20.8637 0.226798C19.7554 0.226798 18.7731 0.73694 18.1433 1.5457C17.5514 1.39639 16.9469 1.30929 16.3297 1.29685C16.2416 1.29685 16.1534 1.29685 16.0652 1.29685C15.3473 1.29685 14.6546 1.38395 13.9745 1.53326C13.3448 0.724496 12.3624 0.214355 11.2667 0.214355C9.35235 0.214355 7.80321 1.74478 7.80321 3.62358C7.80321 4.30794 8.00473 4.95494 8.36998 5.48997C7.51353 6.87108 7.00977 8.4886 7.00977 10.2181V10.2554C7.02236 12.5324 8.44554 14.5854 10.5866 15.4439C12.2743 16.1158 14.1257 16.4891 16.0526 16.4891C17.9796 16.4891 19.831 16.1158 21.5187 15.4439C23.6471 14.5979 25.0829 12.5697 25.0955 10.3052C25.1081 10.1932 25.1081 10.0937 25.1081 9.99413ZM8.14327 10.2181C8.14327 8.74988 8.55888 7.33144 9.33976 6.08719C10.4355 4.34526 12.2239 3.07612 14.239 2.60331C14.831 2.46644 15.4481 2.39179 16.0652 2.39179C16.1408 2.39179 16.2164 2.39179 16.2919 2.39179C16.8209 2.40423 17.3499 2.47888 17.8663 2.60331C19.8436 3.08855 21.632 4.38258 22.7655 6.1494C23.5338 7.33144 23.9494 8.67523 23.9872 10.0066C23.9872 10.0937 23.9872 10.1932 23.9872 10.2803C23.9746 11.0891 23.7479 11.8605 23.3449 12.5199C22.3247 11.3379 20.8008 10.5914 19.1005 10.5914C18.4582 10.5914 17.8285 10.7033 17.2617 10.9024C18.5086 11.8481 19.3398 13.2914 19.4532 14.9338C19.1635 15.0084 18.8612 15.0707 18.559 15.1329C18.2819 13.6024 17.3625 12.296 16.0904 11.4748C15.2214 10.9149 14.1761 10.5914 13.0677 10.5914C11.7075 10.5914 10.4481 11.0766 9.47828 11.8729C9.25157 12.0596 9.02487 12.2835 8.83597 12.5075C8.38257 11.8481 8.14327 11.0642 8.14327 10.2554V10.2181Z" fill="black"/>
	<path d="M14.5704 8.22964C14.8764 7.10127 14.3347 5.97752 13.3606 5.71964C12.3864 5.46177 11.3485 6.16745 11.0425 7.29582C10.7365 8.42419 11.2781 9.54796 12.2523 9.80583C13.2265 10.0637 14.2643 9.35801 14.5704 8.22964Z" fill="black"/>
	<path d="M19.8693 9.80972C20.8435 9.55185 21.3852 8.42808 21.0792 7.29971C20.7731 6.17134 19.7353 5.46566 18.7611 5.72355C17.7869 5.98141 17.2453 7.10516 17.5513 8.23353C17.8573 9.3619 18.8952 10.0676 19.8693 9.80972Z" fill="black"/>
	<path d="M1.50195 23.4864H2.38978V22.2244H3.0643C3.96942 22.2244 4.69582 21.7196 4.69582 20.7461V20.7341C4.69582 19.8747 4.11353 19.2798 3.15077 19.2798H1.50195V23.4864ZM2.38978 21.4011V20.1151H3.07581C3.51974 20.1151 3.79647 20.3374 3.79647 20.7521V20.7641C3.79647 21.1247 3.53703 21.4011 3.09312 21.4011H2.38978Z" fill="black"/>
	<path d="M5.84984 23.5462C6.27646 23.5462 6.57047 23.384 6.78379 23.1376V23.4861H7.63124V21.6172C7.63124 21.1845 7.52748 20.8299 7.29687 20.5896C7.0778 20.3612 6.73188 20.229 6.25338 20.229C5.72876 20.229 5.39439 20.3312 5.05424 20.4874L5.27334 21.1845C5.5558 21.0763 5.79218 21.0102 6.12656 21.0102C6.5647 21.0102 6.78953 21.2206 6.78953 21.5992V21.6532C6.57047 21.5751 6.34563 21.521 6.03431 21.521C5.30216 21.521 4.78906 21.8456 4.78906 22.5487V22.5607C4.78906 23.1977 5.26757 23.5462 5.84984 23.5462ZM6.11502 22.9152C5.83255 22.9152 5.63654 22.771 5.63654 22.5246V22.5126C5.63654 22.2242 5.86712 22.0679 6.24186 22.0679C6.45516 22.0679 6.65117 22.116 6.80108 22.1881V22.3503C6.80108 22.6809 6.52435 22.9152 6.11502 22.9152Z" fill="black"/>
	<path d="M8.15527 23.4862H9.03155V21.6894C9.03155 21.2567 9.24487 21.0344 9.57925 21.0344C9.91362 21.0344 10.1096 21.2567 10.1096 21.6894V23.4862H10.9859V21.401C10.9859 20.6618 10.5997 20.2051 9.93668 20.2051C9.49277 20.2051 9.23333 20.4515 9.03155 20.7219V20.2652H8.15527V23.4862Z" fill="black"/>
	<path d="M12.7846 23.5466C13.24 23.5466 13.5341 23.3243 13.7474 23.0238V23.4865H14.6237V19.0996H13.7474V20.6861C13.5398 20.4277 13.2516 20.2054 12.7846 20.2054C12.0524 20.2054 11.3779 20.7943 11.3779 21.87V21.882C11.3779 22.9577 12.064 23.5466 12.7846 23.5466ZM13.0094 22.7714C12.6001 22.7714 12.2542 22.4168 12.2542 21.882V21.87C12.2542 21.3291 12.6001 20.9806 13.0094 20.9806C13.4188 20.9806 13.7589 21.3351 13.7589 21.87V21.882C13.7589 22.4168 13.4188 22.7714 13.0094 22.7714Z" fill="black"/>
	<path d="M16.052 23.5462C16.4786 23.5462 16.7726 23.384 16.9859 23.1376V23.4861H17.8334V21.6172C17.8334 21.1845 17.7296 20.8299 17.499 20.5896C17.2799 20.3612 16.934 20.229 16.4555 20.229C15.9309 20.229 15.5965 20.3312 15.2564 20.4874L15.4755 21.1845C15.758 21.0763 15.9943 21.0102 16.3287 21.0102C16.7668 21.0102 16.9917 21.2206 16.9917 21.5992V21.6532C16.7726 21.5751 16.5478 21.521 16.2365 21.521C15.5043 21.521 14.9912 21.8456 14.9912 22.5487V22.5607C14.9912 23.1977 15.4697 23.5462 16.052 23.5462ZM16.3172 22.9152C16.0347 22.9152 15.8387 22.771 15.8387 22.5246V22.5126C15.8387 22.2242 16.0693 22.0679 16.444 22.0679C16.6573 22.0679 16.8533 22.116 17.0032 22.1881V22.3503C17.0032 22.6809 16.7265 22.9152 16.3172 22.9152Z" fill="black"/>
	<path d="M18.4492 23.4864H20.0231C21.2914 23.4864 22.1677 22.5669 22.1677 21.3831V21.3711C22.1677 20.1872 21.2914 19.2798 20.0231 19.2798H18.4492V23.4864ZM19.337 22.6511V20.1151H20.0231C20.7495 20.1151 21.2395 20.6379 21.2395 21.3831V21.3951C21.2395 22.1403 20.7495 22.6511 20.0231 22.6511H19.337Z" fill="black"/>
	<path d="M22.0947 23.4862H22.9998L23.3688 22.5427H25.0753L25.4442 23.4862H26.3725L24.6429 19.2495H23.8242L22.0947 23.4862ZM23.6859 21.7254L24.222 20.3613L24.7582 21.7254H23.6859Z" fill="black"/>
	<path d="M28.4662 23.5584C29.7113 23.5584 30.6165 22.5788 30.6165 21.3829V21.3709C30.6165 20.175 29.7228 19.2075 28.4777 19.2075C27.2323 19.2075 26.3271 20.1871 26.3271 21.3829V21.395C26.3271 22.5908 27.2208 23.5584 28.4662 23.5584ZM28.4777 22.705C27.7627 22.705 27.2554 22.1041 27.2554 21.3829V21.3709C27.2554 20.6498 27.7511 20.0609 28.4662 20.0609C29.1809 20.0609 29.6882 20.6618 29.6882 21.3829V21.395C29.6882 22.1161 29.1925 22.705 28.4777 22.705Z" fill="black"/>
</g>
<defs>
	<clipPath id="clip0_722_34">
		<rect width="32" height="23.6066" fill="white"/>
	</clipPath>
</defs>
</svg>
