<svg viewBox="0 0 831 78" xmlns="http://www.w3.org/2000/svg">
  <path fill-rule="evenodd" clip-rule="evenodd" d="M27.5 1.409C16.091 4.236 8.63901 10.322 3.62201 20.911C0.689009 27.101 0.5 28.196 0.5 39C0.5 49.797 0.69 50.902 3.612 57.068C5.324 60.681 8.474 65.357 10.612 67.459C23.804 80.429 51.142 80.792 63.77 68.163C67.707 64.227 71.387 56.557 72.365 50.25L73.024 46H62.98C54.288 46 52.864 46.235 52.396 47.75C49.861 55.939 46.659 58.946 39.627 59.739C33.416 60.439 28.622 57.916 26.044 52.591C24.421 49.239 24.005 46.424 24.022 38.934C24.058 23.49 27.953 18 38.874 18C44.684 18 49.163 21.061 51.486 26.62L52.898 30H62.449C73.524 30 73.487 30.049 69.846 20.319C66.63 11.722 59.289 4.78701 50.547 2.08701C43.032 -0.233992 35.076 -0.468001 27.5 1.409ZM787.65 1.049C768.063 4.336 756.274 22.655 759.118 45.388C760.739 58.346 767.75 68.671 778.505 73.942C784.663 76.96 797.539 77.941 804.764 75.942C818.773 72.068 827.509 61.491 830.009 45.378C833.448 23.218 821.603 4.80101 801.526 1.08901C795.012 -0.114993 794.593 -0.116002 787.65 1.049ZM298 10V18H308.5H319V10V2H308.5H298V10ZM467 10V18H477.5H488V10V2H477.5H467V10ZM626 38.924V76H641.451C663.316 76 671.092 73.977 679.335 66.144C686.692 59.153 689.531 49.949 688.778 35.538C687.979 20.277 682.79 11.486 671.215 5.782L664.553 2.5L645.276 2.174L626 1.847V38.924ZM704.108 37.714C696.743 57.396 690.507 74.063 690.251 74.75C689.912 75.662 691.372 75.996 695.643 75.987L701.5 75.974L705.5 65.237L709.5 54.5L723.789 54.222L738.079 53.945L739.38 57.222C740.096 59.025 741.924 63.988 743.442 68.25L746.203 76H752.169C757.402 76 758.065 75.785 757.563 74.25C757.248 73.288 751.205 56.75 744.134 37.5L731.278 2.5L724.389 2.21401L717.5 1.928L704.108 37.714ZM272.25 8.256L263 12.322V17.661C263 22.927 262.959 23 260 23H257V29.5V36H260H263L263.002 50.75C263.004 73.005 265.343 75.996 282.75 75.998L292 76V69.06V62.121L288.25 61.81L284.5 61.5L284.22 48.75L283.94 36H287.97H292V29.5V23H288H284V13.5C284 6.516 283.669 4.025 282.75 4.095C282.063 4.148 277.337 6.02 272.25 8.256ZM340.25 8.256L331 12.322V17.661C331 22.927 330.959 23 328 23H325V29.5V36H328H331L331.002 50.75C331.004 73.005 333.343 75.996 350.75 75.998L360 76V69.06V62.121L356.25 61.81L352.5 61.5L352.22 48.75L351.94 36H355.97H360V29.5V23H356H352V13.5C352 6.516 351.669 4.025 350.75 4.095C350.063 4.148 345.337 6.02 340.25 8.256ZM441.25 8.256L432 12.322V17.661C432 22.927 431.959 23 429 23H426V29.5V36H429H432L432.002 50.75C432.004 73.005 434.343 75.996 451.75 75.998L461 76V69.06V62.121L457.25 61.81L453.5 61.5L453.22 48.75L452.94 36H456.97H461V29.5V23H457H453V13.5C453 6.516 452.669 4.025 451.75 4.095C451.063 4.148 446.337 6.02 441.25 8.256ZM789.654 11.144C786.988 11.539 783.076 13.008 780.959 14.408C768.753 22.486 766.5 47.046 776.855 59.143C781.228 64.253 786.959 66.949 793.507 66.978C804.157 67.025 811.483 62.788 815.739 54.121C818.165 49.181 818.5 47.348 818.5 39C818.5 28.812 816.462 22.266 811.701 17.167C807.017 12.15 798.526 9.831 789.654 11.144ZM637 39V66H646.818C658.339 66 665.202 64.251 669.646 60.183C674.819 55.447 676.331 51.476 676.801 41.394C677.368 29.238 675.476 22.566 670.079 17.69C664.961 13.067 660.819 12.012 647.75 12.006L637 12V39ZM723.097 17C722.484 18.375 720.013 24.9 717.605 31.5L713.227 43.5L718.613 43.8C721.576 43.965 726.394 43.965 729.319 43.8L734.639 43.5L729.425 29C724.655 15.736 724.116 14.713 723.097 17ZM222.903 22.063C213.64 23.529 206.626 29.631 205.494 37.208C203.997 47.237 209.304 52.583 225.106 56.962C233.872 59.391 235.912 60.945 233.5 63.357C230.7 66.157 223.076 64.898 216.722 60.586L213.208 58.201L208.554 63.591L203.901 68.981L208.512 71.906C217.163 77.392 233.136 79.184 242.203 75.685C255.713 70.472 258.747 53.951 247.475 46.984C245.522 45.777 240.126 43.745 235.485 42.468C225.851 39.818 225 39.412 225 37.476C225 33.256 233.233 33.34 240.992 37.64L245.484 40.13L249.932 35.422L254.38 30.715L251.44 28.35C245.144 23.286 232.614 20.525 222.903 22.063ZM95.205 23.837C80.796 28.969 73.983 43.111 78.475 58.563C81.966 70.572 92.109 77 107.567 77C122.265 77 133.112 70.255 136.402 59.068C140.676 44.539 135.737 31.502 123.59 25.253C116.682 21.698 103.111 21.021 95.205 23.837ZM172.209 23.668C170.398 24.56 168.036 26.41 166.959 27.78L165 30.27V26.635V23H154.5H144V49.5V76H154.5H165V59.934C165 40.753 165.887 38.051 172.193 38.015C177.283 37.986 178 40.606 178 59.223V76H188.556H199.112L198.806 55.25C198.453 31.285 197.758 28.701 190.532 24.466C185.502 21.518 177.296 21.16 172.209 23.668ZM512.205 23.894C497.854 28.851 490.979 43.098 495.475 58.563C498.966 70.572 509.109 77 524.567 77C538.723 77 548.982 71.008 552.94 60.43C558.723 44.974 551.581 28.398 537.127 23.73C530.105 21.462 519.035 21.535 512.205 23.894ZM590.209 23.668C588.398 24.56 586.036 26.41 584.959 27.78L583 30.27V26.635V23H572.5H562V49.5V76H572.5H583V59.934C583 40.753 583.887 38.051 590.193 38.015C595.283 37.986 596 40.606 596 59.223V76H606.556H617.112L616.806 55.25C616.453 31.285 615.758 28.701 608.532 24.466C603.502 21.518 595.296 21.16 590.209 23.668ZM298 49.5V76H308.5H319V49.5V23H308.5H298V49.5ZM365.176 43.25C365.487 62.708 365.598 63.673 368 67.911C371.641 74.337 374.861 76.333 382.354 76.81C389.167 77.244 393.182 75.868 396.971 71.801L399 69.623V72.811V76H409.5H420V49.5V23H409.564H399.129L398.814 40.467C398.48 59.043 398.236 59.965 393.267 61.455C391.633 61.944 390.357 61.448 388.517 59.608C386.025 57.116 386 56.924 386 40.045V23H375.426H364.853L365.176 43.25ZM467 49.5V76H477.5H488V49.5V23H477.5H467V49.5ZM102.736 37.25C98.575 40.41 97.516 54.054 100.989 59.75C102.755 62.647 103.463 63 107.5 63C111.537 63 112.245 62.647 114.011 59.75C117.822 53.499 116.156 38.425 111.455 36.621C108.802 35.603 104.496 35.914 102.736 37.25ZM519.736 37.25C515.575 40.41 514.516 54.054 517.989 59.75C519.755 62.647 520.463 63 524.5 63C528.537 63 529.245 62.647 531.011 59.75C534.822 53.499 533.156 38.425 528.455 36.621C525.802 35.603 521.496 35.914 519.736 37.25Z" fill="white"/>
</svg>
