<svg viewBox="0 0 131 91" xmlns="http://www.w3.org/2000/svg">
  <path d="M71.3178 48.2735C71.3178 54.9353 68.7331 56.0716 53.7281 55.2819C46.655 54.9097 37 53.2573 37 48.2735C37 41.8933 44.4894 35.0359 53.7281 35.0359C62.9668 35.0359 71.3178 41.6118 71.3178 48.2735Z" />
  <path d="M93 48.0746C93 52.6254 86.8975 53.6591 82.9488 54.4921C79.0001 55.325 75.4103 55.2817 74.2616 53.4151C72.5016 50.5551 74.365 49.584 73.7591 46.0203C72.6607 39.5588 68.438 39.5588 68.438 37.2614C68.438 34.964 71.8925 34.4614 75.4103 34.4614C84.2411 34.4614 93 41.224 93 48.0746Z" />
  <path d="M52.0227 31.6154C55.3808 32.2076 58.706 29.2688 59.4496 25.0516C60.1932 20.8343 58.0737 16.9355 54.7155 16.3434C51.3574 15.7513 48.0322 18.69 47.2886 22.9073C46.545 27.1245 48.6645 31.0233 52.0227 31.6154Z" />
  <path d="M76.6127 31.6153C79.6975 31.0713 81.5955 27.2116 80.8519 22.9944C80.1082 18.7771 77.0047 15.7993 73.9198 16.3432C70.835 16.8872 68.937 20.7469 69.6807 24.9641C70.4243 29.1814 73.5279 32.1592 76.6127 31.6153Z" />
  <path d="M56.173 3.55711C56.9234 4.40401 56.396 5.65634 55.3259 6.02426C49.884 7.89528 45.1722 11.3359 41.7311 15.8053C41.0422 16.7001 39.69 16.8011 39.1254 15.8232C38.2301 14.2726 37.7178 12.473 37.7178 10.5538C37.7178 4.72509 42.4429 0 48.2716 0C51.4161 0 54.2395 1.37525 56.173 3.55711Z" />
  <path d="M86.3938 14.0728C87.7427 15.5701 90.1889 15.644 90.793 13.7212C91.1073 12.7214 91.2767 11.6574 91.2767 10.5538C91.2767 4.72509 86.5516 0 80.7228 0C78.2818 0 76.0342 0.82879 74.2462 2.22034C72.6523 3.46097 73.5779 5.73054 75.4567 6.47225C79.6744 8.13732 83.4096 10.7602 86.3938 14.0728Z" />
  <path d="M0 71.7799C0.5389 71.7613 1.5608 71.752 3.0659 71.752C4.5896 71.752 5.6209 71.7613 6.1598 71.7799C8.0737 71.8169 9.5788 72.3268 10.6751 73.3093C11.7714 74.2919 12.3195 75.6546 12.3195 77.3973C12.3195 78.6394 12.0408 79.7425 11.4834 80.7066C10.9259 81.6521 10.1362 82.3844 9.1142 82.9035C8.1108 83.4226 6.9681 83.6821 5.6859 83.6821H3.8742V90.3007H0V71.7799ZM5.5187 80.4007C6.4292 80.4007 7.1353 80.1411 7.637 79.622C8.1573 79.1029 8.4174 78.3984 8.4174 77.5085C8.4174 75.8771 7.5162 75.0613 5.7138 75.0613H3.8742V80.4007H5.5187Z" />
  <path d="M18.3723 90.7177C16.8857 90.7177 15.7058 90.0874 14.8325 88.8267C13.9592 87.566 13.5225 85.8511 13.5225 83.682C13.5225 81.0494 14.1914 79.0472 15.5293 77.6753C16.8672 76.2848 18.7903 75.5896 21.2988 75.5896C22.711 75.5896 24.3648 75.8121 26.2601 76.257V90.3006H22.5252L22.6088 88.0202H22.4974C22.0142 88.8916 21.4196 89.559 20.7135 90.0225C20.026 90.486 19.2456 90.7177 18.3723 90.7177ZM19.2084 87.2972C19.7845 87.2972 20.3512 86.9913 20.9086 86.3795C21.4661 85.7677 21.9864 84.952 22.4695 83.9323V79.2604C21.8749 79.0935 21.2803 79.0101 20.6857 79.0101C19.5708 79.0101 18.7253 79.3902 18.1493 80.1503C17.5918 80.9104 17.3131 82.032 17.3131 83.5152C17.3131 84.6831 17.4803 85.6101 17.8148 86.2961C18.1493 86.9635 18.6138 87.2972 19.2084 87.2972Z" />
  <path d="M29.5032 75.9789H33.3496V78.4539C33.9442 77.4713 34.6317 76.7483 35.4121 76.2848C36.1925 75.8213 37.103 75.5896 38.1436 75.5896C39.6859 75.5896 40.8937 76.0531 41.767 76.98C42.6403 77.8885 43.077 79.1584 43.077 80.7899V90.3006H39.147V81.4017C39.147 80.6601 38.9612 80.0854 38.5896 79.6775C38.2179 79.2511 37.7162 79.0379 37.0845 79.0379C36.3412 79.0379 35.6351 79.316 34.9662 79.8722C34.2972 80.4284 33.7862 81.1329 33.4332 81.9857V90.3006H29.5032V75.9789Z" />
  <path d="M50.636 90.7177C49.019 90.7177 47.746 90.1059 46.817 88.8823C45.9066 87.6402 45.4514 85.916 45.4514 83.7098C45.4514 81.0958 46.13 79.0935 47.486 77.7031C48.861 76.2941 50.812 75.5896 53.339 75.5896C53.655 75.5896 54.129 75.6081 54.761 75.6452V70H58.635V90.3006H54.816L54.9 88.4374H54.789C54.305 89.1789 53.711 89.7444 53.005 90.1337C52.317 90.523 51.528 90.7177 50.636 90.7177ZM51.528 87.2972C52.122 87.2972 52.698 87.0469 53.256 86.5463C53.813 86.0272 54.315 85.2949 54.761 84.3494V79.2604C54.129 79.0935 53.525 79.0101 52.949 79.0101C51.778 79.0101 50.886 79.3902 50.273 80.1503C49.679 80.9104 49.381 82.0227 49.381 83.4874C49.381 84.6739 49.567 85.6101 49.939 86.2961C50.329 86.9635 50.859 87.2972 51.528 87.2972Z" />
  <path d="M65.83 90.7177C64.344 90.7177 63.164 90.0874 62.29 88.8267C61.417 87.566 60.98 85.8511 60.98 83.682C60.98 81.0494 61.649 79.0472 62.987 77.6753C64.325 76.2848 66.248 75.5896 68.757 75.5896C70.169 75.5896 71.823 75.8121 73.718 76.257V90.3006H69.983L70.067 88.0202H69.955C69.472 88.8916 68.877 89.559 68.171 90.0225C67.484 90.486 66.703 90.7177 65.83 90.7177ZM66.666 87.2972C67.242 87.2972 67.809 86.9913 68.366 86.3795C68.924 85.7677 69.444 84.952 69.927 83.9323V79.2604C69.333 79.0935 68.738 79.0101 68.144 79.0101C67.029 79.0101 66.183 79.3902 65.607 80.1503C65.05 80.9104 64.771 82.032 64.771 83.5152C64.771 84.6831 64.938 85.6101 65.273 86.2961C65.607 86.9635 66.072 87.2972 66.666 87.2972Z" />
  <path d="M79.7001 90.3285C78.3811 90.3285 77.3961 90.3192 76.7461 90.3007V71.7799C77.5451 71.7613 78.7251 71.752 80.2861 71.752C81.8651 71.752 83.0451 71.7613 83.8261 71.7799C85.6471 71.7984 87.2261 72.1692 88.5641 72.8922C89.9201 73.5967 90.9611 74.6071 91.6861 75.9234C92.4291 77.2397 92.8001 78.7785 92.8001 80.5397C92.8001 82.4678 92.3731 84.1641 91.5181 85.6288C90.6821 87.0934 89.4931 88.2335 87.9511 89.0493C86.4271 89.865 84.6521 90.2821 82.6271 90.3007C81.9771 90.3192 81.0011 90.3285 79.7001 90.3285ZM82.5991 86.7967C84.4761 86.7967 85.9531 86.2498 87.0311 85.156C88.1091 84.0622 88.6471 82.5605 88.6471 80.6509C88.6471 78.9268 88.1831 77.6012 87.2541 76.6742C86.3431 75.7473 85.0241 75.2838 83.2961 75.2838H80.7871V86.7967H82.5991Z" />
  <path d="M99.9341 71.7798H104.783L111.668 90.3006H107.487L105.982 86.0736H98.679L97.2581 90.3006H93.1331L99.9341 71.7798ZM104.783 82.6253L102.275 75.534L99.8501 82.6253H104.783Z" />
  <path d="M121.23 90.6622C119.409 90.6622 117.801 90.2636 116.408 89.4664C115.014 88.6692 113.927 87.5476 113.147 86.1015C112.385 84.6554 112.004 82.9962 112.004 81.1237C112.004 79.2327 112.385 77.5641 113.147 76.1181C113.909 74.672 114.986 73.5504 116.38 72.7532C117.774 71.956 119.39 71.5574 121.23 71.5574C123.051 71.5574 124.658 71.956 126.052 72.7532C127.445 73.5318 128.523 74.6349 129.285 76.0624C130.047 77.49 130.428 79.14 130.428 81.0125C130.428 82.922 130.047 84.6091 129.285 86.0737C128.523 87.5198 127.445 88.6507 126.052 89.4664C124.658 90.2636 123.051 90.6622 121.23 90.6622ZM121.23 87.1304C122.753 87.1304 123.97 86.5835 124.881 85.4897C125.81 84.3959 126.275 82.9405 126.275 81.1237C126.275 79.9372 126.061 78.8897 125.634 77.9813C125.225 77.0543 124.63 76.3498 123.85 75.8678C123.088 75.3672 122.215 75.1169 121.23 75.1169C120.245 75.1169 119.362 75.3672 118.582 75.8678C117.82 76.3498 117.225 77.0543 116.798 77.9813C116.389 78.8897 116.185 79.9372 116.185 81.1237C116.185 82.3102 116.389 83.3577 116.798 84.2661C117.225 85.1745 117.82 85.879 118.582 86.3796C119.344 86.8802 120.226 87.1304 121.23 87.1304Z" />
</svg>
