<svg xmlns="http://www.w3.org/2000/svg" width="500.000000pt" height="500.000000pt" viewBox="0 0 500.000000 500.000000" preserveAspectRatio="xMidYMid meet">
  <g transform="translate(0.000000,500.000000) scale(0.100000,-0.100000)">
    <path d="M2434 4946 c-17 -8 -53 -40 -81 -72 -169 -195 -1849 -2276 -1864 -2309 -23 -50 -23 -89 -1 -137 9 -21 137 -186 285 -367 264 -326 268 -330 295 -320 33 12 140 71 280 152 l104 60 125 -6 c78 -4 141 -3 168 4 55 14 94 55 101 105 10 74 14 82 50 105 42 26 73 86 74 141 0 30 6 41 28 55 97 60 130 129 108 231 -7 28 -2 36 43 80 53 50 54 54 55 157 l1 60 105 62 c57 35 161 88 230 119 168 76 449 184 478 184 31 0 79 -26 92 -49 18 -34 12 -86 -13 -113 -13 -14 -67 -49 -120 -79 -68 -38 -99 -61 -103 -77 -6 -23 10 -52 29 -52 6 0 63 29 127 64 63 35 127 66 142 70 62 14 138 -47 138 -111 0 -60 -25 -87 -164 -169 -72 -43 -139 -85 -149 -93 -21 -18 -19 -50 5 -65 20 -12 46 0 198 89 83 49 100 56 135 51 56 -7 95 -51 95 -109 0 -24 -6 -51 -13 -62 -8 -10 -74 -54 -148 -99 -122 -74 -134 -84 -134 -110 0 -55 24 -54 127 7 52 31 106 59 120 62 35 9 84 -18 104 -56 34 -66 4 -112 -234 -360 l-92 -96 -388 -173 c-213 -96 -438 -195 -501 -221 -63 -27 -132 -60 -155 -75 -66 -44 -506 -384 -506 -392 0 -4 171 -218 380 -477 404 -499 419 -515 502 -515 52 0 96 20 134 61 50 54 814 999 814 1007 0 15 -466 300 -596 365 -38 19 -99 44 -136 56 -38 13 -68 26 -68 30 0 9 62 38 315 148 201 87 274 133 358 223 85 91 106 104 166 98 41 -4 81 -25 266 -142 178 -112 220 -135 230 -124 7 7 130 158 274 336 175 216 264 335 272 361 13 45 7 94 -19 136 -11 17 -436 545 -946 1175 -735 909 -935 1150 -968 1168 -47 25 -107 28 -154 8z m57 -1144 c28 -31 29 -35 29 -142 0 -106 -1 -111 -28 -141 -24 -27 -37 -33 -85 -37 -70 -6 -113 11 -134 51 -8 17 -20 74 -26 127 -10 88 -9 101 7 125 26 40 71 56 145 52 57 -3 67 -6 92 -35z m267 22 c24 -3 54 -15 70 -29 23 -20 27 -31 26 -77 0 -34 -7 -63 -18 -80 -21 -32 -76 -50 -134 -46 l-37 3 -3 -53 -3 -53 -42 3 -42 3 4 165 c2 91 5 168 7 172 4 6 87 2 172 -8z m-570 -56 c2 -21 2 -38 -1 -38 -9 0 -124 -22 -140 -26 -12 -4 -17 -13 -15 -27 2 -18 8 -21 33 -18 17 3 44 5 60 5 27 1 30 -2 33 -36 3 -35 2 -36 -40 -43 -55 -9 -71 -21 -58 -45 8 -16 15 -16 81 -3 40 7 73 12 75 11 1 -2 5 -20 9 -40 7 -36 7 -37 -32 -43 -21 -4 -73 -15 -116 -25 l-79 -18 -9 22 c-11 25 -79 286 -79 302 0 11 77 33 185 53 80 15 90 11 93 -31z m817 21 c2 -3 -7 -58 -20 -124 -27 -136 -26 -138 48 -149 63 -10 71 -18 63 -61 -6 -32 -10 -36 -29 -31 -12 3 -60 13 -107 23 -47 9 -88 19 -92 22 -6 5 35 298 46 327 3 8 17 9 46 4 22 -4 43 -9 45 -11z m312 -78 c114 -38 163 -59 163 -71 0 -17 -23 -60 -33 -60 -5 0 -41 11 -79 25 -72 26 -88 26 -88 -3 0 -12 17 -23 51 -35 50 -18 51 -20 45 -50 -9 -45 -17 -49 -65 -32 -59 21 -73 19 -69 -6 2 -16 19 -28 71 -46 37 -14 67 -29 67 -35 0 -5 -7 -22 -15 -38 l-15 -28 -111 38 c-61 21 -113 40 -114 42 -4 4 81 303 90 318 8 13 0 14 102 -19z m-1459 -14 c41 -33 55 -124 26 -166 -9 -13 -41 -34 -70 -47 -30 -13 -54 -26 -54 -28 0 -2 7 -20 16 -41 8 -21 13 -43 10 -50 -7 -20 -63 -36 -74 -22 -18 25 -124 296 -118 305 5 9 128 56 171 65 26 6 77 -3 93 -16z m593 -449 c51 -35 94 -67 96 -73 2 -5 -17 -18 -42 -29 -25 -10 -114 -58 -198 -106 -175 -100 -212 -115 -273 -106 -85 11 -132 56 -107 101 18 31 376 275 405 275 16 0 62 -24 119 -62z m-643 -204 c13 -9 22 -26 22 -42 0 -37 31 -85 71 -110 45 -27 144 -55 168 -47 26 8 51 -20 51 -56 0 -38 -48 -89 -83 -89 -14 0 -76 22 -139 49 -242 105 -246 107 -267 164 -15 39 2 100 36 126 32 26 108 28 141 5z m-13 -341 c104 -45 192 -89 208 -104 60 -60 11 -169 -77 -169 -26 0 -360 111 -406 135 -40 21 -60 53 -60 98 0 74 61 133 125 122 16 -3 111 -40 210 -82z m-101 -292 c81 -27 156 -57 166 -66 24 -22 26 -77 4 -99 -27 -28 -62 -29 -217 -6 -213 31 -237 44 -237 125 0 46 13 71 48 90 35 19 58 15 236 -44z m-54 -257 c47 -8 88 -14 92 -14 15 0 38 -33 38 -55 0 -43 -33 -55 -155 -55 -135 0 -182 12 -196 47 -13 34 1 75 32 90 25 13 41 12 189 -13z m698 -981 c7 -10 15 -28 18 -40 8 -30 -23 -217 -41 -252 -21 -41 -60 -54 -121 -41 -78 17 -144 43 -144 57 0 12 111 288 131 324 8 15 15 14 76 -7 37 -13 74 -32 81 -41z m491 9 c42 -45 102 -188 101 -242 0 -67 -56 -110 -142 -110 -45 0 -81 18 -97 49 -16 30 -43 221 -37 257 9 45 57 84 103 84 29 0 43 -8 72 -38z m-257 -19 c10 -9 22 -29 27 -47 14 -41 43 -295 36 -307 -4 -5 -24 -9 -45 -9 -38 0 -39 1 -42 38 -3 36 -4 37 -43 37 -39 0 -40 -1 -43 -37 -3 -37 -4 -38 -42 -38 -21 0 -42 5 -45 10 -3 6 2 76 11 156 18 157 36 202 84 215 33 9 81 1 102 -18z"/>
    <path d="M2350 3751 c-10 -7 -13 -28 -12 -82 4 -92 13 -111 55 -107 l32 3 3 77 c2 43 -2 87 -8 98 -11 21 -45 26 -70 11z"/>
    <path d="M2677 3743 c-4 -3 -7 -19 -7 -34 0 -23 5 -27 33 -32 17 -2 38 -2 45 0 18 7 15 60 -4 67 -21 8 -59 8 -67 -1z"/>
    <path d="M1737 3618 c-25 -9 -28 -14 -22 -37 9 -35 9 -34 50 -27 39 8 54 29 38 55 -13 20 -30 23 -66 9z"/>
    <path d="M2215 1118 c-2 -7 -15 -48 -28 -90 -27 -84 -23 -98 25 -98 33 0 40 13 59 109 12 65 10 74 -29 86 -14 4 -24 2 -27 -7z"/>
    <path d="M2737 1123 c-16 -15 -3 -104 25 -175 16 -41 78 -36 78 6 0 26 -38 145 -53 164 -10 13 -39 16 -50 5z"/>
    <path d="M2483 1083 c-8 -3 -13 -25 -13 -59 l0 -54 35 0 35 0 0 48 c0 61 -18 81 -57 65z"/>
  </g>
</svg>
