<?xml version="1.0" standalone="no"?>
<!DOCTYPE svg PUBLIC "-//W3C//DTD SVG 20010904//EN"
 "http://www.w3.org/TR/2001/REC-SVG-20010904/DTD/svg10.dtd">
<svg version="1.0" xmlns="http://www.w3.org/2000/svg"
 width="658.000000pt" height="658.000000pt" viewBox="0 0 658.000000 658.000000"
 preserveAspectRatio="xMidYMid meet">
<metadata>
Created by potrace 1.14, written by Peter Selinger 2001-2017
</metadata>
<g transform="translate(0.000000,658.000000) scale(0.100000,-0.100000)"
fill="#000000" stroke="none">
<path d="M3213 6565 c-56 -24 -128 -103 -361 -394 -29 -36 -60 -75 -70 -86
-34 -41 -111 -136 -260 -320 -84 -104 -158 -197 -165 -205 -7 -8 -50 -62 -97
-120 -46 -58 -87 -107 -90 -110 -3 -3 -39 -48 -80 -100 -87 -110 -101 -128
-115 -144 -5 -6 -28 -34 -49 -61 -22 -28 -47 -58 -55 -67 -9 -9 -29 -35 -45
-57 -17 -23 -33 -41 -38 -41 -4 0 -8 -5 -8 -11 0 -6 -6 -16 -12 -23 -15 -15
-45 -51 -168 -206 -50 -63 -98 -124 -108 -135 -9 -11 -81 -101 -160 -200 -78
-99 -151 -189 -160 -200 -10 -11 -33 -40 -52 -65 -19 -25 -43 -54 -52 -65 -9
-11 -63 -78 -120 -150 -56 -71 -107 -135 -113 -141 -5 -7 -19 -24 -30 -40 -17
-23 -69 -89 -140 -176 -43 -53 -66 -100 -72 -146 -5 -43 -1 -60 20 -104 15
-29 38 -65 52 -80 14 -15 25 -30 25 -34 0 -5 25 -38 73 -94 7 -8 35 -44 63
-80 27 -35 57 -74 67 -85 10 -11 37 -45 60 -75 23 -30 47 -59 53 -65 5 -5 37
-44 70 -85 172 -217 271 -330 291 -330 6 0 159 75 183 90 19 12 240 139 303
174 43 23 56 26 115 21 95 -7 260 -7 306 1 83 13 137 75 151 174 9 58 17 72
65 110 48 38 86 108 93 170 7 61 13 73 46 93 43 25 100 85 122 129 22 44 29
116 16 166 -10 39 4 66 64 125 54 53 60 69 64 166 2 47 4 93 4 103 1 14 36 38
136 93 11 6 39 23 62 38 24 15 49 27 57 27 8 0 16 4 18 9 5 14 279 141 303
141 8 0 15 3 17 8 2 4 37 20 78 36 41 16 93 37 115 46 96 42 267 100 296 100
42 0 97 -27 117 -58 22 -34 20 -107 -5 -140 -11 -15 -64 -55 -119 -88 -163
-101 -179 -115 -179 -153 0 -20 7 -38 16 -44 18 -11 8 -15 242 106 80 42 141
67 160 67 67 -1 140 -65 153 -136 14 -76 -26 -122 -200 -229 -66 -41 -126 -79
-133 -85 -7 -5 -16 -10 -20 -10 -17 -1 -74 -56 -77 -75 -2 -11 2 -29 10 -39
21 -30 67 -15 210 67 180 103 197 111 246 104 82 -11 132 -76 124 -162 -6 -62
-28 -82 -211 -197 -158 -99 -187 -125 -176 -165 14 -53 30 -48 254 77 33 17
74 32 92 33 79 2 150 -93 125 -167 -16 -51 -108 -167 -240 -306 -193 -204
-203 -212 -258 -237 -31 -14 -82 -36 -112 -50 -96 -44 -522 -234 -615 -275
-49 -22 -118 -53 -153 -69 -35 -16 -65 -29 -67 -29 -2 0 -38 -16 -79 -35 -42
-19 -79 -35 -82 -35 -16 0 -254 -123 -254 -131 0 -5 -6 -9 -14 -9 -8 0 -16 -4
-18 -8 -1 -5 -30 -28 -63 -53 -33 -24 -69 -52 -80 -61 -11 -9 -56 -44 -100
-77 -44 -33 -90 -69 -102 -80 -12 -12 -27 -21 -32 -21 -5 0 -11 -3 -13 -7 -1
-5 -48 -44 -103 -88 -127 -101 -125 -98 -111 -111 6 -6 22 -26 36 -44 46 -61
111 -143 144 -184 19 -23 89 -111 157 -196 67 -85 126 -156 131 -158 4 -2 8
-10 8 -18 0 -8 4 -14 8 -14 4 0 31 -30 60 -67 28 -38 62 -80 74 -94 13 -15 34
-41 48 -59 14 -18 30 -38 35 -44 11 -12 92 -110 115 -140 8 -10 22 -26 30 -35
8 -10 37 -44 65 -76 55 -67 128 -140 162 -162 34 -23 115 -27 170 -9 57 19
115 75 238 232 36 46 88 109 118 146 12 14 33 40 47 58 14 17 30 36 35 43 16
19 278 345 419 522 70 88 135 169 144 180 10 11 33 40 52 65 19 25 37 47 40
50 14 12 90 113 90 119 0 3 -24 22 -53 41 -28 19 -54 37 -57 40 -3 3 -14 10
-25 17 -11 6 -82 50 -157 97 -76 47 -142 86 -148 86 -5 0 -10 4 -10 9 0 5 -8
11 -17 15 -10 3 -31 15 -48 26 -16 11 -37 23 -45 27 -56 29 -156 88 -158 95
-2 4 -12 8 -22 8 -10 0 -20 3 -22 8 -4 9 -118 60 -215 97 -40 15 -75 31 -78
35 -7 12 46 38 321 160 245 108 375 174 439 223 22 17 85 74 140 128 129 127
162 139 266 100 52 -20 191 -100 197 -113 2 -5 8 -8 12 -8 5 0 48 -25 95 -55
46 -30 89 -55 94 -55 5 0 11 -3 13 -8 4 -10 137 -88 164 -96 24 -7 32 -1 79
59 44 56 134 166 158 195 12 14 94 115 182 225 87 110 163 202 167 203 4 2 8
7 8 12 0 4 36 56 79 113 82 110 99 152 88 224 -5 28 -33 93 -46 103 -4 3 -112
138 -241 300 -129 162 -242 304 -252 315 -9 11 -42 52 -73 90 -79 98 -76 95
-120 150 -21 28 -44 55 -50 60 -6 6 -22 26 -35 45 -25 35 -46 62 -65 84 -6 6
-58 70 -115 141 -57 72 -106 132 -110 135 -3 3 -18 23 -35 45 -16 21 -36 46
-45 55 -8 9 -24 29 -35 44 -11 16 -25 33 -30 40 -6 6 -30 36 -55 66 -25 30
-47 57 -50 60 -3 3 -39 48 -80 100 -41 52 -77 97 -80 100 -3 3 -42 50 -85 105
-43 55 -84 105 -90 111 -5 6 -21 26 -35 44 -14 18 -29 38 -35 44 -5 6 -46 56
-89 111 -44 55 -84 105 -90 110 -6 6 -24 27 -39 47 -15 21 -63 80 -105 131
-42 51 -140 170 -217 263 -77 93 -144 174 -150 180 -5 6 -32 37 -59 68 -27 31
-66 65 -88 75 -49 22 -133 25 -175 6z m23 -1502 c17 -7 41 -28 54 -46 22 -29
24 -40 23 -162 0 -71 -2 -140 -4 -153 -4 -30 -72 -92 -102 -93 -123 -8 -156
-3 -195 34 -21 19 -40 70 -48 127 -22 169 -23 201 -4 230 16 26 47 60 55 60 3
0 10 2 17 5 56 18 162 17 204 -2z m357 2 c59 -5 107 -22 141 -49 23 -19 34
-79 24 -131 -5 -22 -9 -46 -10 -52 -2 -19 -39 -50 -78 -67 -20 -8 -62 -13 -98
-13 l-62 2 -1 -30 c-1 -16 -3 -39 -4 -50 -1 -11 -3 -29 -3 -41 -2 -16 -8 -20
-29 -18 -16 1 -40 2 -55 3 l-28 1 6 198 c5 176 7 232 12 254 2 6 67 4 185 -7z
m-736 -33 c17 -11 24 -79 10 -91 -7 -5 -32 -12 -57 -16 -116 -16 -156 -35
-139 -66 9 -18 18 -19 79 -14 73 6 76 4 84 -39 6 -33 -2 -56 -18 -56 -7 0 -36
-7 -65 -16 -44 -13 -52 -18 -49 -37 4 -32 22 -35 115 -19 51 10 87 12 93 6 5
-5 12 -28 14 -51 6 -45 9 -42 -74 -58 -14 -3 -71 -15 -128 -28 l-102 -24 -21
66 c-19 62 -23 76 -33 119 -2 9 -17 69 -34 134 l-29 116 36 15 c101 41 291 77
318 59z m1100 -15 c6 -6 -6 -98 -21 -167 -3 -14 -9 -45 -12 -70 -3 -25 -8 -53
-10 -63 -5 -29 6 -45 39 -56 31 -10 71 -19 94 -20 25 -2 43 -32 38 -64 -9 -47
-21 -57 -58 -46 -18 4 -48 11 -67 14 -19 3 -51 10 -70 15 -38 10 -78 18 -97
19 -12 1 -12 79 1 158 5 33 28 181 31 203 1 8 6 32 10 54 l8 38 53 -4 c30 -3
57 -8 61 -11z m429 -110 c174 -59 204 -74 204 -102 0 -29 -38 -78 -53 -68 -7
4 -14 8 -17 8 -22 4 -97 30 -104 37 -6 4 -27 8 -48 8 -31 0 -38 -4 -38 -19 0
-21 34 -47 76 -57 46 -11 55 -23 49 -63 -8 -51 -29 -64 -71 -46 -19 8 -34 12
-34 9 0 -3 -6 -2 -12 3 -23 14 -43 13 -55 -4 -17 -22 1 -37 94 -77 59 -25 78
-38 77 -52 -1 -28 -25 -74 -40 -74 -14 0 -158 49 -242 82 -38 15 -51 25 -48
37 74 272 120 421 130 421 2 0 62 -20 132 -43z m-1981 -2 c13 -3 36 -21 52
-41 22 -30 27 -48 30 -105 2 -64 0 -70 -27 -98 -16 -16 -57 -42 -90 -57 -67
-31 -64 -23 -39 -112 14 -51 2 -70 -49 -78 -24 -4 -34 0 -46 18 -29 45 -146
351 -146 383 0 16 17 27 83 52 45 18 100 37 122 42 38 8 53 8 110 -4z m729
-560 c59 -28 208 -134 213 -152 2 -6 -36 -31 -84 -56 -48 -24 -106 -54 -128
-67 -230 -131 -325 -181 -325 -174 0 4 -6 1 -14 -5 -23 -19 -110 -24 -166 -11
-59 14 -110 57 -110 93 0 27 50 77 144 142 32 22 63 45 69 50 15 13 142 97
237 157 41 26 84 47 94 48 11 0 42 -11 70 -25z m-772 -320 c11 -4 26 -33 38
-74 23 -79 62 -124 135 -156 55 -25 140 -45 186 -45 17 0 37 -7 45 -15 9 -8
13 -15 9 -15 -3 0 -1 -9 5 -20 22 -42 -51 -140 -105 -140 -23 0 -118 33 -197
69 -24 11 -86 38 -138 61 -157 69 -191 95 -207 160 -19 75 29 172 90 183 31 5
118 1 139 -8z m-107 -423 c249 -100 392 -180 401 -225 2 -6 5 -21 8 -33 6 -31
-27 -98 -62 -122 -33 -24 -78 -28 -132 -11 -19 5 -42 12 -50 14 -8 2 -62 20
-120 40 -58 19 -109 37 -115 38 -70 18 -202 76 -230 101 -46 39 -59 93 -37
158 21 65 52 94 117 108 31 7 37 5 220 -68z m-225 -372 c78 -20 311 -101 367
-127 51 -24 57 -32 65 -83 5 -33 -13 -70 -41 -85 -23 -11 -51 -14 -118 -10
-48 3 -95 8 -103 10 -8 2 -35 7 -60 10 -39 5 -134 22 -165 30 -5 1 -24 6 -41
10 -17 4 -44 17 -60 30 -27 22 -29 28 -29 95 0 70 1 73 34 101 48 40 61 42
151 19z m0 -385 c19 -2 58 -7 85 -11 28 -3 53 -8 56 -10 4 -2 28 -6 55 -9 56
-7 81 -27 88 -70 11 -67 -39 -84 -230 -80 -131 3 -149 5 -196 24 -45 17 -55
96 -17 137 30 32 45 34 159 19z m962 -1286 c105 -42 115 -63 99 -202 -13 -115
-36 -211 -58 -245 -20 -32 -70 -51 -122 -46 -52 5 -191 50 -209 68 -11 10 -5
34 31 127 25 64 55 137 67 165 13 27 23 55 23 62 0 6 4 12 9 12 4 0 8 7 8 16
0 29 34 74 55 74 11 0 55 -14 97 -31z m687 6 c41 -21 77 -68 116 -149 71 -152
82 -227 42 -287 -23 -35 -83 -71 -104 -64 -7 2 -14 1 -17 -4 -5 -8 -47 -7 -93
3 -69 15 -99 84 -119 271 -12 115 -12 129 4 160 35 69 112 101 171 70z m-294
-65 c25 -24 40 -59 49 -120 3 -19 8 -47 11 -62 3 -15 7 -51 10 -80 9 -105 17
-172 20 -179 9 -13 -21 -38 -52 -42 -41 -6 -65 12 -70 53 -4 42 -5 43 -53 46
-45 2 -58 -9 -62 -55 -3 -39 -9 -43 -60 -43 -50 1 -58 12 -53 72 3 25 7 72 10
105 7 83 21 180 25 180 1 0 3 9 4 20 6 52 30 98 60 116 43 28 126 22 161 -11z"/>
<path d="M3111 4970 c-30 -7 -38 -29 -35 -110 3 -122 16 -150 71 -150 44 0 49
15 47 135 -2 116 -18 141 -83 125z"/>
<path d="M3542 4959 c-12 -5 -22 -12 -23 -16 0 -4 -2 -18 -3 -31 -3 -30 25
-49 67 -48 46 2 56 11 50 49 -3 17 -6 33 -8 35 -10 10 -64 18 -83 11z"/>
<path d="M2280 4787 c-32 -11 -35 -15 -32 -47 2 -19 8 -38 14 -41 29 -18 108
18 108 50 0 19 -30 51 -46 50 -5 0 -25 -6 -44 -12z"/>
<path d="M2923 1453 c-7 -3 -13 -11 -13 -19 0 -8 -4 -22 -10 -32 -9 -16 -38
-115 -46 -157 -7 -38 5 -55 41 -55 55 0 73 30 93 162 7 44 6 63 -4 77 -14 20
-41 30 -61 24z"/>
<path d="M3609 1450 c-18 -11 -17 -46 6 -160 14 -75 53 -119 95 -111 38 8 39
53 4 160 -36 107 -63 136 -105 111z"/>
<path d="M3260 1374 c-6 -14 -10 -49 -10 -78 l0 -52 45 0 c25 1 46 5 46 11 11
89 -7 145 -47 145 -17 0 -27 -8 -34 -26z"/>
</g>
</svg>
