<?xml version="1.0" standalone="no"?>
<!DOCTYPE svg PUBLIC "-//W3C//DTD SVG 20010904//EN"
 "http://www.w3.org/TR/2001/REC-SVG-20010904/DTD/svg10.dtd">
<svg version="1.0" xmlns="http://www.w3.org/2000/svg"
 width="700.000000pt" height="700.000000pt" viewBox="0 0 700.000000 700.000000"
 preserveAspectRatio="xMidYMid meet">
<metadata>
Created by potrace 1.14, written by Peter Selinger 2001-2017
</metadata>
<g transform="translate(0.000000,700.000000) scale(0.100000,-0.100000)"
fill="#000000" stroke="none">
<path d="M3446 6935 c-58 -15 -105 -55 -201 -170 -27 -33 -58 -69 -67 -80 -9
-11 -94 -114 -188 -230 -94 -115 -179 -219 -188 -230 -10 -11 -64 -78 -122
-150 -57 -71 -136 -169 -175 -216 -38 -47 -83 -103 -100 -125 -16 -21 -53 -65
-81 -99 -27 -33 -86 -105 -130 -160 -43 -55 -81 -102 -84 -105 -4 -3 -31 -36
-62 -75 -171 -213 -412 -513 -426 -530 -10 -11 -73 -90 -142 -175 -68 -85
-145 -180 -170 -210 -25 -31 -58 -73 -75 -94 -16 -21 -106 -133 -200 -249
-376 -469 -382 -480 -372 -566 7 -66 35 -106 291 -426 126 -158 373 -462 391
-481 5 -6 28 -32 50 -58 70 -83 73 -83 168 -35 45 23 169 91 275 151 l194 110
81 -2 c261 -9 320 -5 370 19 52 25 93 76 100 126 15 97 19 105 72 151 61 51
92 110 101 186 6 56 3 52 108 140 29 24 57 60 69 87 21 48 29 132 16 189 -6
29 -3 39 24 70 18 20 42 45 55 55 42 34 55 75 57 178 1 53 5 101 9 107 9 15
213 132 341 195 235 117 738 317 797 317 26 0 89 -33 112 -59 26 -28 30 -100
8 -140 -21 -37 -41 -52 -172 -130 -159 -95 -181 -122 -142 -172 l19 -22 89 45
c49 25 134 69 189 98 88 45 106 51 147 47 145 -13 201 -182 92 -277 -27 -23
-271 -180 -280 -180 -2 0 -26 -15 -54 -32 -55 -37 -71 -63 -59 -95 17 -47 65
-37 206 45 86 50 138 79 184 104 79 41 174 15 209 -57 22 -45 26 -111 9 -147
-5 -13 -54 -51 -107 -85 -53 -35 -102 -67 -109 -73 -7 -5 -15 -10 -18 -10 -8
0 -83 -49 -127 -83 -30 -23 -38 -35 -38 -62 0 -70 32 -67 188 22 166 94 199
100 262 46 62 -52 71 -111 27 -186 -28 -48 -146 -187 -241 -286 -35 -36 -95
-98 -133 -138 l-68 -72 -330 -147 c-181 -81 -359 -160 -395 -177 -78 -35 -182
-81 -430 -189 -198 -86 -303 -137 -335 -162 -11 -9 -72 -55 -135 -103 -181
-136 -462 -355 -495 -385 -16 -15 -33 -28 -37 -28 -14 0 -8 -25 11 -50 16 -21
362 -454 475 -594 17 -21 47 -58 66 -80 19 -23 51 -62 70 -86 115 -143 282
-345 339 -410 150 -170 198 -198 311 -178 62 11 109 47 193 147 39 47 74 88
77 91 3 3 30 37 61 75 31 39 166 205 300 370 398 491 639 795 639 806 0 8
-208 148 -305 206 -11 6 -83 50 -160 96 -77 47 -192 114 -255 149 -105 59
-155 82 -324 150 -32 12 -59 28 -59 33 -2 12 87 55 388 185 108 47 326 156
372 186 32 21 110 89 174 151 120 115 147 133 202 133 73 0 114 -22 527 -278
63 -39 132 -78 152 -86 l37 -16 51 63 c29 34 67 80 86 102 161 192 535 666
595 755 41 60 44 69 44 130 0 49 -5 74 -22 102 -18 31 -165 223 -183 238 -3 3
-68 84 -145 180 -76 96 -144 180 -150 187 -5 7 -14 18 -20 25 -27 35 -91 114
-100 124 -5 6 -80 98 -165 204 -258 321 -551 684 -568 705 -22 26 -512 630
-616 760 -45 55 -83 102 -87 105 -3 3 -75 91 -159 195 -85 105 -157 192 -160
195 -3 3 -37 43 -75 90 -151 184 -233 272 -273 294 -49 27 -111 35 -166 21z
m-3 -1577 c28 -14 74 -67 81 -91 8 -33 3 -282 -7 -302 -16 -33 -75 -80 -105
-84 -153 -19 -227 17 -246 122 -2 15 -7 35 -10 45 -3 13 -15 115 -18 162 -4
67 34 128 94 147 45 15 185 16 211 1z m400 -3 c106 -11 157 -62 152 -150 -8
-130 -61 -175 -207 -175 -56 0 -58 -1 -59 -27 -2 -38 -7 -107 -8 -113 -2 -11
-111 2 -112 13 -6 71 7 443 16 458 7 11 78 9 218 -6z m-795 -37 c5 -7 12 -32
15 -55 3 -35 1 -43 -12 -44 -17 -1 -21 -1 -119 -20 -72 -13 -97 -31 -82 -59 8
-16 19 -17 81 -13 81 6 89 1 89 -59 0 -36 -1 -37 -51 -47 -66 -15 -89 -27 -89
-51 0 -22 37 -36 73 -26 21 5 69 12 131 19 19 2 21 -3 32 -70 6 -33 3 -35
-126 -59 -14 -3 -62 -13 -108 -24 -76 -17 -83 -17 -91 -1 -24 46 -120 426
-112 440 8 12 164 55 242 66 24 4 46 9 48 11 10 9 69 3 79 -8z m1154 -16 c4
-4 -4 -66 -17 -137 -32 -164 -34 -204 -11 -220 9 -7 46 -18 82 -25 54 -10 67
-17 74 -36 10 -25 3 -81 -10 -89 -7 -4 -192 32 -274 53 -29 8 -31 11 -29 48 2
21 10 86 18 144 8 58 17 122 20 142 8 66 26 132 36 139 12 7 100 -8 111 -19z
m445 -108 c150 -50 223 -83 223 -103 0 -14 -35 -81 -43 -81 -2 0 -49 15 -104
34 -85 29 -104 32 -119 22 -24 -18 -12 -42 33 -61 97 -42 105 -52 83 -106 -14
-34 -33 -36 -106 -14 -64 19 -74 19 -74 -4 0 -29 22 -46 99 -76 90 -34 96 -42
75 -94 -9 -23 -22 -41 -28 -41 -7 0 -77 23 -155 50 -79 28 -145 50 -148 50
-10 0 6 75 52 235 61 212 66 225 86 225 10 0 66 -16 126 -36z m-2051 -18 c38
-26 58 -74 59 -143 0 -80 -17 -103 -116 -155 l-76 -40 18 -49 c27 -69 25 -84
-15 -103 -43 -20 -49 -20 -69 2 -19 21 -136 309 -162 399 -6 22 -6 22 90 64
117 50 217 59 271 25z m749 -577 c93 -49 214 -140 215 -160 0 -4 -45 -30 -100
-58 -54 -28 -122 -65 -150 -81 -28 -17 -52 -30 -54 -30 -2 0 -46 -24 -97 -53
-204 -115 -253 -128 -364 -97 -58 16 -105 59 -105 95 0 35 25 58 191 175 176
126 359 240 385 240 12 0 47 -14 79 -31z m-823 -335 c19 -10 31 -27 38 -57 19
-74 21 -78 52 -113 52 -58 158 -103 262 -110 64 -4 81 -15 92 -61 15 -59 -72
-150 -133 -138 -71 13 -443 177 -499 220 -36 27 -63 94 -57 139 2 16 13 46 23
66 36 70 142 95 222 54z m-223 -394 c124 -46 327 -134 420 -183 91 -47 121
-83 121 -142 0 -78 -80 -150 -155 -139 -55 7 -477 149 -544 182 -66 33 -95 75
-94 141 0 50 20 98 56 132 50 47 88 49 196 9z m51 -489 c259 -87 280 -100 280
-171 0 -72 -47 -101 -150 -94 -91 6 -314 40 -383 59 -102 27 -127 58 -121 152
3 53 17 79 57 104 47 30 106 20 317 -50z m-190 -345 c25 -3 54 -8 65 -10 11
-2 62 -9 114 -16 70 -10 98 -18 112 -33 10 -12 19 -26 20 -31 0 -6 2 -19 4
-28 5 -28 -26 -57 -72 -67 -60 -13 -300 -7 -352 9 -54 17 -76 48 -68 97 10 59
57 94 117 87 8 -1 35 -5 60 -8z m992 -1335 c130 -45 154 -76 144 -190 -7 -72
-8 -79 -33 -195 -27 -130 -74 -162 -198 -137 -68 13 -163 48 -183 66 -12 11
-3 40 49 171 96 245 125 304 147 304 10 0 44 -9 74 -19z m756 -5 c39 -20 77
-66 112 -136 46 -91 76 -180 79 -235 4 -92 -65 -155 -177 -160 -72 -3 -122 16
-145 55 -24 40 -55 207 -62 330 -6 104 108 190 193 146z m-321 -61 c52 -34 73
-125 99 -422 l7 -82 -35 -6 c-66 -13 -82 -5 -90 44 -4 25 -12 48 -18 51 -11 7
-89 5 -95 -2 -2 -2 -5 -19 -8 -39 -7 -54 -14 -60 -64 -58 -50 3 -63 17 -58 64
2 17 6 65 10 108 4 43 8 88 11 100 2 12 6 38 8 57 24 163 67 217 165 205 25
-3 55 -12 68 -20z"/>
<path d="M3290 5250 c-12 -7 -15 -30 -14 -103 0 -138 19 -170 89 -157 l30 5 2
106 c2 127 -7 153 -57 157 -19 1 -42 -2 -50 -8z"/>
<path d="M3747 5243 c-4 -3 -7 -23 -7 -44 0 -35 3 -39 33 -47 28 -8 76 -7 85
3 12 12 3 70 -13 81 -19 14 -87 19 -98 7z"/>
<path d="M2430 5062 c-21 -10 -34 -24 -31 -32 2 -8 4 -19 5 -25 6 -38 38 -45
92 -19 44 21 48 64 9 82 -33 15 -34 15 -75 -6z"/>
<path d="M3106 1572 c-12 -20 -55 -163 -61 -205 -5 -32 -3 -47 7 -53 37 -24
82 -13 97 23 12 29 14 40 32 132 12 59 1 101 -25 101 -8 0 -21 3 -29 6 -8 3
-17 1 -21 -4z"/>
<path d="M3828 1568 c-10 -26 1 -122 22 -189 16 -52 27 -73 45 -81 32 -14 71
-3 78 23 7 25 -42 196 -67 233 -18 28 -70 37 -78 14z"/>
<path d="M3476 1511 c-18 -20 -25 -139 -8 -150 6 -4 29 -5 50 -3 l40 4 -4 65
c-1 35 -8 71 -14 78 -18 21 -48 24 -64 6z"/>
</g>
</svg>
