<svg xmlns="http://www.w3.org/2000/svg" viewBox="0 0 32 32">
  <path d="M27.5864 19.1209C27.3353 19.2928 27.0422 19.3943 26.738 19.4146C26.4337 19.4349 26.1296 19.3733 25.8576 19.2363C25.2191 18.8778 24.875 18.0373 24.875 16.892V13.3817C24.875 11.6967 24.2034 10.4977 23.0799 10.1723C21.1811 9.62019 19.7632 11.9315 19.216 12.8008L15.8578 18.2021V11.6101C15.8205 10.0899 15.323 9.17935 14.3819 8.90743C13.76 8.72615 12.8272 8.80031 11.9193 10.1764L4.41117 22.1532C3.41219 20.2538 2.89421 18.1411 2.90209 15.9979C2.90209 8.77971 8.70626 2.90872 15.8578 2.90872C23.0094 2.90872 28.8343 8.77971 28.8343 15.9979V16.035C28.8343 16.035 28.8343 16.0597 28.8343 16.0721C28.9048 17.4688 28.4487 18.5812 27.5906 19.1209H27.5864ZM31.7323 16.0021V15.932C31.6742 7.13583 24.5765 0 15.8578 0C7.13913 0 0 7.17703 0 15.9979C0 24.8189 7.11426 32 15.8578 32C19.868 31.9998 23.7256 30.4723 26.637 27.7317C26.9196 27.4671 27.0859 27.1025 27.0999 26.7169C27.1138 26.3313 26.9744 25.9558 26.7116 25.6717C26.5859 25.5335 26.4339 25.4214 26.2644 25.3418C26.095 25.2622 25.9113 25.2166 25.724 25.2078C25.5368 25.199 25.3496 25.2271 25.1733 25.2904C24.997 25.3538 24.8351 25.4512 24.6968 25.5769C23.4433 26.7585 21.9625 27.6762 20.3433 28.2749C18.7241 28.8736 16.9998 29.1409 15.274 29.0609C13.5482 28.9809 11.8565 28.5551 10.3004 27.8091C8.74437 27.0632 7.35602 26.0124 6.21876 24.72L12.9765 13.9256V18.9067C12.9765 21.3004 13.9093 22.0749 14.6929 22.3015C15.4764 22.5281 16.6746 22.3716 17.9308 20.3445L21.662 14.3417C21.7781 14.1481 21.89 13.9833 21.9895 13.8391V16.892C21.9895 19.1291 22.8933 20.9172 24.477 21.7989C25.1972 22.1852 26.0086 22.3719 26.8263 22.3393C27.6441 22.3066 28.4379 22.0559 29.1245 21.6135C30.8658 20.4887 31.8152 18.4535 31.7157 16.0021H31.7323Z" />
</svg>
