<svg viewBox="0 0 32 32" xmlns="http://www.w3.org/2000/svg">
	<path fill-rule="evenodd" clip-rule="evenodd" d="M4.17275 4.76382L4.18006 4.75298C4.26926 4.62091 4.35877 4.50135 4.44996 4.39485C4.63095 4.18346 4.81855 4.02353 5.0235 3.91938C5.20841 3.82539 5.40745 3.77682 5.6285 3.77682H15.7332V0H11.2803C10.6365 0 9.84818 0.111295 9.03243 0.324536C6.6806 0.939296 4.10047 2.40135 4.09766 4.48674V4.49467C4.0978 4.57395 4.10167 4.65413 4.10941 4.73519L4.11001 4.74137C4.11304 4.7723 4.11663 4.80336 4.1208 4.83455L4.1217 4.8412L4.12534 4.83558C4.13599 4.81919 4.14665 4.80298 4.15731 4.78694C4.16246 4.77919 4.1676 4.77148 4.17275 4.76382ZM15.7333 3.77682C17.3346 3.77682 18.9202 4.09299 20.3997 4.70725C21.8791 5.32155 23.2233 6.22187 24.3556 7.35691C25.4879 8.49195 26.3861 9.83938 26.9989 11.3224C27.6117 12.8054 27.9271 14.3948 27.9271 16C27.9271 17.6052 27.6117 19.1946 26.9989 20.6776C26.3861 22.1606 25.4879 23.5081 24.3556 24.6431C23.2233 25.7781 21.8791 26.6785 20.3997 27.2928C18.9202 27.907 17.3346 28.2232 15.7333 28.2232V32C17.8294 32 19.9049 31.5861 21.8415 30.7821C23.778 29.978 25.5377 28.7995 27.0198 27.3137C28.502 25.828 29.6777 24.0641 30.4798 22.1229C31.282 20.1817 31.6948 18.1012 31.6948 16C31.6948 13.8988 31.282 11.8183 30.4798 9.87708C29.6777 7.93586 28.502 6.17202 27.0198 4.68629C25.5377 3.20056 23.778 2.022 21.8415 1.21793C19.9049 0.413851 17.8294 0 15.7333 0V3.77682ZM15.1852 11.1931C15.815 11.1931 16.4385 11.3175 17.0203 11.559C17.6021 11.8006 18.1307 12.1546 18.576 12.6011C19.0214 13.0474 19.3746 13.5773 19.6156 14.1605C19.8565 14.7437 19.9806 15.3687 19.9806 16C19.9806 16.6313 19.8565 17.2563 19.6156 17.8395C19.3746 18.4227 19.0214 18.9526 18.576 19.3989C18.1307 19.8454 17.6021 20.1994 17.0203 20.441C16.4385 20.6825 15.815 20.8069 15.1852 20.8069H5.11506V24.5837H15.1852C16.3097 24.5837 17.4233 24.3617 18.4622 23.9303C19.5011 23.4989 20.4451 22.8667 21.2402 22.0696C22.0354 21.2725 22.6661 20.3262 23.0965 19.2848C23.5268 18.2434 23.7483 17.1272 23.7483 16C23.7483 14.8728 23.5268 13.7566 23.0965 12.7152C22.6661 11.6738 22.0354 10.7275 21.2402 9.93044C20.4451 9.13332 19.5011 8.50108 18.4622 8.0697C17.4233 7.63832 16.3097 7.41631 15.1852 7.41631H5.11506V11.1931H15.1852ZM4.20445 28.2343C4.91519 30.6068 9.00256 32 11.2803 32H15.7332V28.2232H5.6285C5.11606 28.2232 4.72191 27.9622 4.34775 27.4796C4.27185 27.3816 4.19677 27.2746 4.1217 27.1588C4.12167 27.159 4.12164 27.1591 4.12162 27.1593C4.07032 27.5368 4.10296 27.8956 4.20445 28.2343Z" />
	<path fill-rule="evenodd" clip-rule="evenodd" d="M4.17275 4.76382L4.18006 4.75298C4.26926 4.62091 4.35877 4.50135 4.44996 4.39485C4.63095 4.18346 4.81855 4.02353 5.0235 3.91938C5.20841 3.82539 5.40745 3.77682 5.6285 3.77682H15.7332V0H11.2803C10.6365 0 9.84818 0.111295 9.03243 0.324536C6.6806 0.939296 4.10047 2.40135 4.09766 4.48674V4.49467C4.0978 4.57395 4.10167 4.65413 4.10941 4.73519L4.11001 4.74137C4.11304 4.7723 4.11663 4.80336 4.1208 4.83455L4.1217 4.8412L4.12534 4.83558C4.13599 4.81919 4.14665 4.80298 4.15731 4.78694C4.16246 4.77919 4.1676 4.77148 4.17275 4.76382ZM15.7333 3.77682C17.3346 3.77682 18.9202 4.09299 20.3997 4.70725C21.8791 5.32155 23.2233 6.22187 24.3556 7.35691C25.4879 8.49195 26.3861 9.83938 26.9989 11.3224C27.6117 12.8054 27.9271 14.3948 27.9271 16C27.9271 17.6052 27.6117 19.1946 26.9989 20.6776C26.3861 22.1606 25.4879 23.5081 24.3556 24.6431C23.2233 25.7781 21.8791 26.6785 20.3997 27.2928C18.9202 27.907 17.3346 28.2232 15.7333 28.2232V32C17.8294 32 19.9049 31.5861 21.8415 30.7821C23.778 29.978 25.5377 28.7995 27.0198 27.3137C28.502 25.828 29.6777 24.0641 30.4798 22.1229C31.282 20.1817 31.6948 18.1012 31.6948 16C31.6948 13.8988 31.282 11.8183 30.4798 9.87708C29.6777 7.93586 28.502 6.17202 27.0198 4.68629C25.5377 3.20056 23.778 2.022 21.8415 1.21793C19.9049 0.413851 17.8294 0 15.7333 0V3.77682ZM15.1852 11.1931C15.815 11.1931 16.4385 11.3175 17.0203 11.559C17.6021 11.8006 18.1307 12.1546 18.576 12.6011C19.0214 13.0474 19.3746 13.5773 19.6156 14.1605C19.8565 14.7437 19.9806 15.3687 19.9806 16C19.9806 16.6313 19.8565 17.2563 19.6156 17.8395C19.3746 18.4227 19.0214 18.9526 18.576 19.3989C18.1307 19.8454 17.6021 20.1994 17.0203 20.441C16.4385 20.6825 15.815 20.8069 15.1852 20.8069H5.11506V24.5837H15.1852C16.3097 24.5837 17.4233 24.3617 18.4622 23.9303C19.5011 23.4989 20.4451 22.8667 21.2402 22.0696C22.0354 21.2725 22.6661 20.3262 23.0965 19.2848C23.5268 18.2434 23.7483 17.1272 23.7483 16C23.7483 14.8728 23.5268 13.7566 23.0965 12.7152C22.6661 11.6738 22.0354 10.7275 21.2402 9.93044C20.4451 9.13332 19.5011 8.50108 18.4622 8.0697C17.4233 7.63832 16.3097 7.41631 15.1852 7.41631H5.11506V11.1931H15.1852ZM4.20445 28.2343C4.91519 30.6068 9.00256 32 11.2803 32H15.7332V28.2232H5.6285C5.11606 28.2232 4.72191 27.9622 4.34775 27.4796C4.27185 27.3816 4.19677 27.2746 4.1217 27.1588C4.12167 27.159 4.12164 27.1591 4.12162 27.1593C4.07032 27.5368 4.10296 27.8956 4.20445 28.2343Z" />
	<path fill-rule="evenodd" clip-rule="evenodd" d="M4.12203 4.84804C4.13926 5.20119 4.32851 6.12307 4.59952 6.47288L12.9924 15.4949C13.1207 15.6328 13.1815 15.8096 13.1761 15.9843C13.1802 16.1573 13.1194 16.332 12.9923 16.4685L4.64172 25.445L4.65479 25.457C4.39681 25.7402 4.14072 26.7689 4.12203 27.1519C3.91933 31.3064 11.0067 31.9931 11.0067 31.9931C9.70495 31.9819 8.69354 31.9891 7.88101 31.9949C6.21347 32.0067 5.38286 32.0126 4.59635 31.841C3.37229 31.5442 2.28984 30.8287 1.53545 29.8179C0.781063 28.8071 0.401973 27.5642 0.463497 26.3032C0.524243 25.0581 1.01087 23.8726 1.84072 22.9454L1.82712 22.9327L8.29355 15.9816L1.87775 9.08498L1.87248 9.08979C1.02329 8.15753 0.525014 6.95767 0.463497 5.69676C0.401973 4.43587 0.781063 3.19295 1.53545 2.18211C2.28984 1.17127 3.37229 0.4558 4.59635 0.158962C5.38293 -0.0126169 6.21362 -0.00670893 7.88142 0.00515262C8.69396 0.0109314 9.70515 0.0181232 11.0067 0.00689353C11.0067 0.00689353 3.91933 0.693535 4.12203 4.84804Z" />
	<path fill-rule="evenodd" clip-rule="evenodd" d="M4.12203 4.84804C4.13926 5.20119 4.32851 6.12307 4.59952 6.47288L12.9924 15.4949C13.1207 15.6328 13.1815 15.8096 13.1761 15.9843C13.1802 16.1573 13.1194 16.332 12.9923 16.4685L4.64172 25.445L4.65479 25.457C4.39681 25.7402 4.14072 26.7689 4.12203 27.1519C3.91933 31.3064 11.0067 31.9931 11.0067 31.9931C9.70495 31.9819 8.69354 31.9891 7.88101 31.9949C6.21347 32.0067 5.38286 32.0126 4.59635 31.841C3.37229 31.5442 2.28984 30.8287 1.53545 29.8179C0.781063 28.8071 0.401973 27.5642 0.463497 26.3032C0.524243 25.0581 1.01087 23.8726 1.84072 22.9454L1.82712 22.9327L8.29355 15.9816L1.87775 9.08498L1.87248 9.08979C1.02329 8.15753 0.525014 6.95767 0.463497 5.69676C0.401973 4.43587 0.781063 3.19295 1.53545 2.18211C2.28984 1.17127 3.37229 0.4558 4.59635 0.158962C5.38293 -0.0126169 6.21362 -0.00670893 7.88142 0.00515262C8.69396 0.0109314 9.70515 0.0181232 11.0067 0.00689353C11.0067 0.00689353 3.91933 0.693535 4.12203 4.84804Z" />
</svg>
