<svg xmlns="http://www.w3.org/2000/svg" viewBox="0 0 32 32">
  <path d="M27.1306 5.86872C30.7446 11.182 32.5294 17.1752 31.8622 24.0747C31.8594 24.1039 31.8442 24.1307 31.8202 24.1483C29.0834 26.1578 26.4318 27.3773 23.8174 28.1861C23.7971 28.1923 23.7753 28.1919 23.7551 28.1851C23.735 28.1783 23.7175 28.1653 23.705 28.1481C23.101 27.3077 22.5522 26.4218 22.0714 25.4914C22.0438 25.4366 22.069 25.3707 22.1258 25.3491C22.9974 25.0207 23.8262 24.6271 24.6234 24.1611C24.6862 24.1243 24.6902 24.0343 24.6322 23.9911C24.463 23.8656 24.2954 23.7336 24.135 23.6016C24.105 23.5772 24.0646 23.5724 24.0306 23.5888C18.855 25.9786 13.1855 25.9786 7.94867 23.5888C7.91467 23.5736 7.87427 23.5788 7.84507 23.6028C7.68507 23.7348 7.51707 23.8656 7.34947 23.9911C7.29147 24.0343 7.29627 24.1243 7.35947 24.1611C8.15667 24.6183 8.98547 25.0207 9.85586 25.3507C9.91226 25.3723 9.93906 25.4366 9.91106 25.4914C9.44066 26.423 8.89187 27.3089 8.27667 28.1493C8.24987 28.1833 8.20587 28.1989 8.16427 28.1861C5.56227 27.3773 2.91068 26.1578 0.173881 24.1483C0.151081 24.1307 0.134681 24.1027 0.132281 24.0735C-0.425318 18.1055 0.71108 12.0627 4.85947 5.86752C4.86947 5.85112 4.88467 5.83832 4.90227 5.83073C6.94347 4.89399 9.13027 4.20483 11.4159 3.81126C11.4575 3.80486 11.4991 3.82406 11.5207 3.86085C11.8031 4.36082 12.1259 5.00198 12.3443 5.52594C14.7535 5.15797 17.2003 5.15797 19.6598 5.52594C19.8782 5.01318 20.1898 4.36082 20.471 3.86085C20.4811 3.8426 20.4966 3.82797 20.5154 3.81907C20.5342 3.81016 20.5554 3.80743 20.5758 3.81126C22.8626 4.20603 25.0494 4.89519 27.089 5.83073C27.107 5.83832 27.1218 5.85112 27.1306 5.86872V5.86872ZM13.5691 17.216C13.5943 15.4517 12.3079 13.9918 10.6931 13.9918C9.09147 13.9918 7.81747 15.4389 7.81747 17.216C7.81747 18.9927 9.11667 20.4398 10.6931 20.4398C12.2951 20.4398 13.5691 18.9927 13.5691 17.216V17.216ZM24.2018 17.216C24.227 15.4517 22.9406 13.9918 21.3262 13.9918C19.7242 13.9918 18.4503 15.4389 18.4503 17.216C18.4503 18.9927 19.7494 20.4398 21.3262 20.4398C22.9406 20.4398 24.2018 18.9927 24.2018 17.216V17.216Z" />
</svg>
