<svg xmlns="http://www.w3.org/2000/svg" viewBox="0 0 32 32">
  <path d="M6.65051 15.2304C6.65048 15.0518 6.68574 14.8749 6.75428 14.7099C6.82281 14.5449 6.92326 14.3951 7.04987 14.2691C7.17647 14.1431 7.32672 14.0433 7.492 13.9755C7.65728 13.9077 7.83433 13.8732 8.01297 13.8741L10.2718 13.8815C10.6319 13.8815 10.9774 14.0245 11.232 14.2792C11.4867 14.5339 11.6298 14.8793 11.6298 15.2395V23.7809C11.8842 23.7055 12.2106 23.6251 12.5681 23.5412C12.8163 23.4828 13.0375 23.3423 13.1959 23.1424C13.3542 22.9425 13.4404 22.695 13.4405 22.44V11.8451C13.4405 11.6667 13.4756 11.4901 13.5438 11.3253C13.6121 11.1605 13.7121 11.0108 13.8382 10.8847C13.9643 10.7585 14.114 10.6585 14.2788 10.5902C14.4436 10.5219 14.6202 10.4868 14.7986 10.4868H17.0619C17.422 10.4868 17.7674 10.6299 18.022 10.8846C18.2767 11.1392 18.4198 11.4846 18.4198 11.8448V21.6786C18.4198 21.6786 18.9863 21.4492 19.5384 21.2162C19.7435 21.1294 19.9184 20.9843 20.0415 20.7988C20.1645 20.6132 20.2303 20.3956 20.2304 20.173V8.4495C20.2304 8.27117 20.2655 8.09459 20.3338 7.92983C20.402 7.76507 20.502 7.61537 20.6281 7.48926C20.7542 7.36316 20.9039 7.26313 21.0687 7.19488C21.2334 7.12664 21.41 7.09151 21.5883 7.09151H23.8516C24.2118 7.09151 24.5572 7.23458 24.8119 7.48925C25.0666 7.74392 25.2097 8.08933 25.2097 8.4495V18.1032C27.1719 16.6811 29.1606 14.9706 30.7387 12.914C30.9677 12.6154 31.1192 12.2649 31.1797 11.8935C31.2403 11.5222 31.208 11.1417 31.0857 10.7859C30.0179 7.67396 28.0149 4.96782 25.3507 3.03747C22.6866 1.10712 19.4911 0.0467823 16.2014 0.00145002C7.33054 -0.117716 -0.000794658 7.12364 7.67584e-05 15.9956C-0.00863339 18.803 0.724088 21.5629 2.12415 23.9963C2.31723 24.3292 2.60129 24.6 2.94294 24.777C3.2846 24.954 3.66967 25.0298 4.05292 24.9955C4.48112 24.9578 5.01421 24.9046 5.64794 24.8302C5.92378 24.7988 6.17844 24.667 6.36342 24.46C6.5484 24.253 6.65077 23.9852 6.65105 23.7076V15.2304" />
  <path d="M6.60128 28.9289C8.98699 30.6644 11.8063 31.7061 14.7473 31.9388C17.6883 32.1715 20.6364 31.5861 23.2654 30.2473C25.8943 28.9086 28.1017 26.8686 29.6433 24.3532C31.1848 21.8378 32.0005 18.945 32 15.9948C32 15.6265 31.9829 15.2623 31.9583 14.9001C26.1152 23.6143 15.3267 27.6882 6.60117 28.9292" />
</svg>
