<svg xmlns="http://www.w3.org/2000/svg" viewBox="0 0 32 32">
  <path d="M16.0001 0C7.16461 0 0 7.15815 0 15.9884C0 23.0527 4.5845 29.0458 10.9419 31.1599C11.7415 31.3079 12.0351 30.8131 12.0351 30.3908C12.0351 30.0096 12.0202 28.75 12.0134 27.414C7.56202 28.3812 6.62276 25.5276 6.62276 25.5276C5.89494 23.6795 4.84626 23.1882 4.84626 23.1882C3.39464 22.1958 4.95568 22.2162 4.95568 22.2162C6.5624 22.329 7.40843 23.8638 7.40843 23.8638C8.83545 26.3082 11.1514 25.6014 12.0645 25.193C12.208 24.1595 12.6227 23.4543 13.0803 23.055C9.5265 22.6506 5.79054 21.2797 5.79054 15.1534C5.79054 13.4079 6.41559 11.9816 7.43917 10.8619C7.27303 10.4592 6.72541 8.83304 7.59415 6.63074C7.59415 6.63074 8.93772 6.20101 11.9953 8.26965C13.2715 7.91528 14.6403 7.73772 16.0001 7.7317C17.3598 7.73772 18.7296 7.91528 20.0083 8.26965C23.0623 6.20101 24.404 6.63074 24.404 6.63074C25.2748 8.83304 24.727 10.4592 24.5608 10.8619C25.5867 11.9816 26.2075 13.4078 26.2075 15.1534C26.2075 21.2943 22.4645 22.6465 18.9017 23.0423C19.4755 23.5384 19.9869 24.5115 19.9869 26.0031C19.9869 28.1423 19.9683 29.8641 19.9683 30.3908C19.9683 30.8162 20.2563 31.3148 21.0674 31.1578C27.4213 29.0413 32 23.0503 32 15.9884C32 7.15815 24.8364 0 16.0001 0Z"/>
  <path d="M5.99257 22.776C5.95743 22.8554 5.8322 22.8792 5.71838 22.8248C5.60231 22.7726 5.53705 22.6643 5.5747 22.5845C5.60921 22.5028 5.73444 22.4799 5.85027 22.5349C5.96659 22.5869 6.03285 22.6963 5.99257 22.776V22.776ZM6.77961 23.4777C6.70332 23.5484 6.55412 23.5156 6.45285 23.4039C6.34819 23.2924 6.32862 23.1434 6.40604 23.0716C6.48472 23.001 6.62941 23.0339 6.73431 23.1455C6.83897 23.2583 6.8593 23.4064 6.77949 23.4778L6.77961 23.4777ZM7.31958 24.3755C7.22145 24.4436 7.06108 24.3798 6.96207 24.2376C6.86407 24.0955 6.86407 23.925 6.9642 23.8567C7.06359 23.7883 7.22145 23.8498 7.32184 23.9908C7.41972 24.1354 7.41972 24.3059 7.31945 24.3757L7.31958 24.3755ZM8.23261 25.4154C8.1449 25.512 7.95818 25.4862 7.8214 25.3542C7.68161 25.2253 7.64258 25.0424 7.73055 24.9457C7.81926 24.8489 8.00712 24.8761 8.1449 25.0069C8.28381 25.1356 8.32623 25.3199 8.23274 25.4154H8.23261ZM9.41268 25.7665C9.37416 25.8917 9.19421 25.9486 9.01301 25.8954C8.83206 25.8406 8.7136 25.6939 8.75012 25.5674C8.78776 25.4414 8.96846 25.3821 9.15105 25.439C9.33175 25.4936 9.45045 25.6391 9.41281 25.7665H9.41268ZM10.7559 25.9154C10.7604 26.0473 10.6067 26.1566 10.4164 26.159C10.2251 26.1632 10.0704 26.0565 10.0683 25.9268C10.0683 25.7936 10.2186 25.6853 10.4098 25.6821C10.6 25.6784 10.7559 25.7843 10.7559 25.9154V25.9154ZM12.0752 25.8648C12.0981 25.9935 11.9658 26.1257 11.777 26.1608C11.5912 26.1946 11.4193 26.1153 11.3956 25.9877C11.3725 25.8558 11.5073 25.7238 11.6926 25.6895C11.8819 25.6567 12.0511 25.7341 12.0752 25.8648"/>
</svg>