<svg viewBox="0 0 32 32" xmlns="http://www.w3.org/2000/svg">
	<path d="M3.7207 12.3871C3.7207 5.54589 9.21822 0 15.9998 0C22.7814 0 28.2788 5.54589 28.2788 12.3871V30.1177C28.2788 31.1573 27.4435 32 26.4128 32H5.58665C4.55611 32 3.7207 31.1573 3.7207 30.1177V12.3871Z" />
	<path d="M26.8199 30.4624V12.4232C26.8199 6.37724 21.9756 1.47602 15.9998 1.47602C10.024 1.47602 5.1796 6.37724 5.1796 12.4232V30.4624C5.1796 30.4965 5.20682 30.524 5.24039 30.524H26.7592C26.7928 30.524 26.8199 30.4965 26.8199 30.4624ZM15.9998 0C9.21822 0 3.7207 5.56205 3.7207 12.4232V30.4624C3.7207 31.3116 4.40109 32 5.24039 32H26.7592C27.5985 32 28.2788 31.3116 28.2788 30.4624V12.4232C28.2788 5.56205 22.7814 0 15.9998 0Z" />
</svg>
