<svg xmlns="http://www.w3.org/2000/svg" viewBox="0 0 32 32">
  <path d="M32 5.74529C30.8227 6.26796 29.5573 6.61996 28.2293 6.77863C29.5853 5.96663 30.6267 4.67996 31.116 3.14663C29.848 3.89863 28.4427 4.44529 26.9467 4.73996C25.7507 3.46396 24.0427 2.66663 22.1547 2.66663C17.916 2.66663 14.8013 6.62129 15.7587 10.7266C10.304 10.4533 5.46667 7.83996 2.228 3.86796C0.508 6.81863 1.336 10.6786 4.25867 12.6333C3.184 12.5986 2.17067 12.304 1.28667 11.812C1.21467 14.8533 3.39467 17.6986 6.552 18.332C5.628 18.5826 4.616 18.6413 3.58667 18.444C4.42133 21.052 6.84533 22.9493 9.72 23.0026C6.96 25.1666 3.48267 26.1333 0 25.7226C2.90533 27.5853 6.35733 28.672 10.064 28.672C22.2533 28.672 29.14 18.3773 28.724 9.14396C30.0067 8.21729 31.12 7.06129 32 5.74529V5.74529Z" />
</svg>
