<svg width="64" height="64" viewBox="0 0 64 64" xmlns="http://www.w3.org/2000 svg">
  <path fill-rule="evenodd" clip-rule="evenodd" d="M32.2192 0.131281C32.0685 0.161769 31.7025 0.266248 31.4058 0.363705C30.6143 0.623363 29.8995 0.612743 29.3479 0.332875C28.9275 0.119634 28.7792 0.137104 28.8597 0.390596C29.0353 0.944509 30.9078 1.12041 33.3831 0.815365C34.2432 0.709344 34.5702 0.695128 34.9057 0.748738C36.6353 1.02518 37.811 1.66833 38.2157 2.55949C38.7305 3.69318 38.8783 4.60198 38.6928 5.49519C38.5972 5.95679 38.5393 5.97186 38.0913 5.65277C36.6755 4.64445 34.1133 3.84048 31.0893 3.45544C29.8321 3.29547 27.404 3.19167 26.0905 3.24169C23.8441 3.32733 21.1598 2.55178 21.5001 1.91531C21.611 1.70789 21.5886 1.68477 21.3142 1.72331C19.2275 2.01619 19.3828 3.13704 21.6453 4.11298C23.0814 4.73249 23.2526 4.77291 24.1389 4.70269C25.317 4.60934 30.0916 4.68522 30.9524 4.81111C33.3566 5.1624 33.7195 5.29103 34.42 6.0402C35.0997 6.76727 35.394 7.81858 35.3063 9.2073C35.2341 10.3523 35.168 10.5465 34.5284 11.4935C33.5853 12.8901 32.9464 13.975 32.7379 14.534C32.6295 14.8249 32.5143 14.7656 32.072 14.1915C30.579 12.2535 30.0522 10.7051 30.4711 9.48682C31.0054 7.93333 31.9855 6.81746 32.7121 6.9353C32.9072 6.96698 32.943 6.95499 32.91 6.86901C32.8879 6.81129 32.8697 6.75169 32.8697 6.73661C32.8697 6.64943 32.2839 6.4326 32.048 6.4326C31.2014 6.4326 30.2955 7.5757 29.5503 9.58411C29.2851 10.2989 29.3019 10.2875 28.6839 10.1692C26.269 9.70692 24.1322 8.32539 22.5868 6.22706C20.8607 3.88364 18.9656 3.43027 16.4061 4.74859C15.9235 4.99712 15.5714 5.30901 15.928 5.17216C17.2304 4.6722 18.7811 4.69618 19.9618 5.23451C21.0045 5.70997 22.3357 7.01357 22.5351 7.75452C23.1143 9.90645 14.0815 7.97084 12.6895 5.64472C12.4692 5.27647 12.3796 6.06966 12.5945 6.48672C13.086 7.44091 14.7604 8.16199 18.2498 8.92246C18.9463 9.07422 20.7655 9.36607 21.9476 9.51577C23.6616 9.73261 24.0144 9.83503 25.368 10.509C27.6095 11.6247 29.2124 13.4731 29.7872 15.605C30.0728 16.6632 30.0964 16.9528 30.0964 19.3812C30.0964 22.2229 30.1426 22.0569 29.2247 22.5176C28.7681 22.747 28.5076 22.94 28.0886 23.3591C27.4835 23.9646 27.5158 23.9533 26.9464 23.7604C26.2928 23.539 25.1015 23.4174 23.7609 23.435C22.3403 23.4539 22.0651 23.3744 21.778 22.8635C21.5135 22.3926 21.5189 21.1908 21.7893 20.3404C22.4581 18.2366 23.4464 16.47 24.1998 16.0317C25.6854 15.1671 26.6071 14.8989 26.9689 15.2258C27.1579 15.3966 27.2546 15.3176 27.2546 14.9924C27.2546 13.9308 25.7815 14.3658 22.8017 16.3075C21.7706 16.9792 21.7194 17.0395 20.7503 18.723C19.6721 20.5957 19.2772 21.6583 19.2772 22.6869C19.277 23.5532 19.3181 23.533 18.5202 23.0604C16.0247 21.5825 14.8532 19.9605 15.6306 19.0595C16.1565 18.45 16.8221 17.8952 17.3596 17.6182C17.6976 17.4442 17.8241 17.4288 18.6489 17.4619C19.0584 17.4783 19.0983 17.4413 18.9261 17.2048C18.4878 16.6031 17.4865 16.556 16.2467 17.0791C15.734 17.2954 15.7503 17.3218 15.7516 16.277C15.7549 13.7136 16.2873 13.0513 18.9004 12.3597C21.0247 11.7974 23.2302 12.1336 23.9851 13.1345C24.0327 13.1977 24.1454 13.3111 24.2354 13.3865L24.3991 13.5235L24.3577 13.2594C24.0285 11.1587 20.8566 10.7827 16.3614 12.3115C15.3351 12.6606 15.3379 12.6589 14.9088 13.1996C13.4467 15.0422 12.7431 17.3004 13.0309 19.2271C13.0889 19.6159 13.0045 19.7048 12.8035 19.4668C11.3847 17.7882 10.4549 15.1801 10.8988 14.1242C11.2465 13.2966 13.3191 11.4653 14.304 11.1153C14.7953 10.9406 14.7431 10.8858 14.0852 10.8858C12.5274 10.8858 10.9918 11.9746 10.0266 13.7633C9.67445 14.4157 9.61487 14.3874 9.55752 13.5406C9.47244 12.2855 9.10575 11.4649 8.51633 11.2102C7.62458 10.8248 6.68747 10.9996 6.23484 11.6357C6.02136 11.9356 6.06724 12.0014 6.36067 11.816C8.07088 10.7358 8.82978 11.8027 8.45247 14.7567C8.39478 15.2089 8.32973 15.7256 8.30816 15.905C8.2229 16.6122 8.58857 17.8315 9.11773 18.6057C9.43546 19.0705 9.42331 19.0803 8.47473 19.1294C7.22074 19.1942 6.30571 19.5282 5.23918 20.3102C4.28752 21.0082 3.73765 21.718 3.25043 22.8772C2.69765 24.1926 1.75215 26.0943 1.58233 26.2323C1.55905 26.2512 1.45359 26.4 1.34779 26.5632C1.06789 26.9952 0.528294 27.5077 0.245997 27.6099C-0.0431482 27.7144 -0.0871448 27.9204 0.16605 27.984C0.453996 28.0563 1.78108 27.0342 1.78108 26.74C1.78108 26.7215 1.84477 26.6381 1.92249 26.5548C2.04814 26.4206 2.93903 25.148 3.11639 24.8496C3.9299 23.4806 4.42807 22.7788 4.86632 22.3846C7.61157 19.9149 10.5669 19.9454 12.9006 22.4675C13.5242 23.1413 13.5408 23.043 12.6554 23.9237C9.76997 26.7941 7.6352 27.731 6.56113 26.5983C6.36734 26.394 6.02821 25.6957 6.02461 25.4939C6.02273 25.3874 6.01537 25.3881 5.94912 25.5023C5.77964 25.794 6.05594 26.927 6.38908 27.3066C7.31969 28.367 9.58115 27.8452 12.9365 25.7961C13.5965 25.3931 13.4006 25.4102 15.7847 25.5453C20.9371 25.837 24.1379 26.4449 24.4463 27.1899C24.7336 27.8836 23.6366 28.8191 21.0232 30.109C19.4559 30.8823 18.9572 31.0511 18.3931 30.9981C15.7737 30.752 13.1409 30.1224 12.4418 29.5748C12.1463 29.3432 12.052 29.366 12.1953 29.6344C12.2814 29.7958 12.9259 30.343 13.0298 30.343C13.0521 30.343 13.265 30.4317 13.503 30.5401C14.2169 30.8654 15.337 31.1934 16.5722 31.439C17.7729 31.6778 17.7955 31.7161 16.9317 32.0498C14.1525 33.1233 12.0261 33.4969 11.0448 33.0838C10.9613 33.0487 10.8018 32.8416 10.6901 32.6236C10.2337 31.7321 9.09119 30.8943 7.73141 30.4538C6.56165 30.0749 6.20129 30.1474 5.38675 30.9247C4.78329 31.5007 4.51349 31.6164 3.95421 31.5394C3.5466 31.4834 3.56509 31.5531 4.01875 31.7822C4.76977 32.1618 5.60331 32.0207 6.46766 31.3678C7.21988 30.7995 8.71149 31.4935 9.05113 32.5696C9.31802 33.4154 8.775 33.5313 6.64296 33.0841C3.70444 32.4677 2.78393 32.4439 2.57901 32.9784C2.4537 33.3049 1.28428 33.6223 0.874617 33.4411C0.341351 33.205 0.240176 32.9507 0.241375 31.8502C0.241888 31.3415 0.231788 31.0331 0.218606 31.1648C0.205595 31.2967 0.165022 31.4404 0.128558 31.4844C-0.12669 31.792 0.027041 33.0017 0.380726 33.4693C0.774127 33.9892 1.70953 34.3052 2.11371 34.0548C3.34938 33.289 3.74552 33.3844 4.45683 34.6184C5.08922 35.7158 4.56297 36.6291 3.58203 36.1361C2.68515 35.6853 1.70199 35.8047 1.35653 36.4062C0.810077 37.3572 0.861435 37.8712 1.55751 38.4203C1.93139 38.7151 2.19195 39.1232 2.19195 39.4139C2.19195 39.6888 2.30219 39.6773 2.38728 39.3933C2.54443 38.8687 2.38163 38.3615 1.87387 37.7934C1.55922 37.4413 1.53919 36.9726 1.82285 36.5975C2.14812 36.1675 2.75569 36.2153 3.87238 36.7589C5.00876 37.3121 5.82826 37.2443 6.06724 36.5775C6.30366 35.9179 6.12168 34.833 5.68172 34.2791C5.41876 33.9481 5.42304 33.8756 5.7014 33.9395C8.0387 34.4749 12.3077 34.5648 15.2368 34.1401C18.7306 33.6334 22.2385 32.324 23.9427 30.8904C26.9485 28.3618 28.9533 28.4362 28.9773 31.0771C28.9883 32.2937 28.4002 32.9202 25.6474 34.6234C21.1711 37.3933 20.1186 40.0142 21.5753 44.7646C22.3931 47.4312 22.554 48.0992 22.6757 49.3334C22.9785 52.4027 21.4455 53.6241 18.6034 52.5788C16.9897 51.9852 16.4843 51.5186 14.9097 49.1688C11.0402 43.3944 8.72981 41.9764 6.19136 43.8181C4.32604 45.1716 3.28245 44.7374 2.09437 42.1142C1.99747 41.9 1.91804 41.6914 1.91804 41.6508C1.91804 41.6102 1.88962 41.5235 1.85487 41.4581C1.82012 41.3926 1.72579 41.1232 1.64516 40.8595C1.21769 39.4596 1.21598 40.0543 1.64259 41.7844C2.33524 44.5938 3.9162 46.2816 5.72605 46.1439C7.82625 45.9841 8.2051 46.0105 8.85888 46.3624C9.61316 46.7685 9.92747 47.4177 9.98105 48.6805C10.0399 50.0718 9.99475 50.1064 9.12646 49.336C8.40848 48.699 8.16761 48.5183 7.66858 48.2417C6.97987 47.8599 5.82124 47.5484 5.82124 47.7448C5.82124 47.7825 5.84966 47.8133 5.88424 47.8133C6.16739 47.8133 8.52711 49.6159 9.1809 50.3316C10.6915 51.9853 11.002 53.831 9.66777 53.2252C8.82756 52.8438 6.44712 50.6995 5.95819 49.8839C5.58071 49.2543 5.59064 49.6268 5.97 50.3313C7.98169 54.0672 10.4772 55.744 14.3124 55.9367C16.1534 56.029 16.2025 55.7367 14.6432 53.973C13.5573 52.7449 13.1861 52.0494 13.1841 51.2389C13.1815 50.2212 13.3875 50.356 14.4836 52.0891C16.7992 55.7505 18.7352 57.2639 20.6808 56.9339C22.6418 56.6011 22.1871 57.0051 19.8195 57.6993C18.3822 58.1205 16.7983 58.4518 15.8018 58.5391C14.5264 58.6511 15.8804 58.976 17.6353 58.9791C19.454 58.9824 21.9319 58.4562 23.4425 57.7458C24.0216 57.4734 24.1089 57.6008 23.5993 57.9744C22.221 58.9843 21.4479 60.2466 21.8711 60.7962C21.9729 60.9283 22.0017 60.9074 22.6812 60.2068C23.7438 59.1112 25.6411 57.489 26.6832 56.7852C29.1103 55.1459 29.3942 55.0053 29.6516 55.3158C30.0079 55.7452 28.4642 58.1125 26.8561 59.6022C23.7794 62.453 21.0593 62.8952 18.9346 60.8906C18.425 60.4098 18.2158 60.2563 18.2148 60.363C18.213 60.5646 20.5426 62.5432 20.782 62.5432C20.8003 62.5432 21.0167 62.6666 21.2628 62.8173C21.509 62.968 21.723 63.0913 21.7386 63.0913C21.7542 63.0913 21.9616 63.1813 22.1996 63.291C25.4317 64.7827 28.3752 63.901 30.4148 60.8305C30.7211 60.3694 31.5519 58.7849 31.6587 58.4583C31.6818 58.3877 31.7496 58.2065 31.8092 58.0558C32.3435 56.7066 32.8639 54.7816 33.245 52.7461C33.4032 51.9011 33.4321 51.787 33.4891 51.787C33.6735 51.787 33.6498 55.5272 33.4585 56.6163C33.209 58.0368 32.9611 58.5403 32.0353 59.5077C31.4373 60.1325 31.2355 60.3958 31.0554 60.7852C30.6559 61.6504 30.704 62.0601 31.1313 61.4299C31.6678 60.6385 32.7761 59.2955 33.623 58.4101C33.9054 58.1149 34.1468 57.8449 34.1593 57.8103C34.3973 57.1543 34.4423 59.2389 34.2141 60.3509C33.8058 62.3415 33.0695 63.2609 31.7162 63.4705C31.121 63.5627 31.5226 63.6738 32.4453 63.6721C35.7375 63.6661 37.0871 59.9003 36.5939 52.0953C36.5439 51.3036 36.6313 51.3877 36.8717 52.3623C37.4841 54.8436 38.2186 56.2741 39.1124 56.7256C39.662 57.0031 39.9614 57.478 40.3394 58.6724C41.0836 61.0232 41.2731 61.4 41.827 61.6315C42.5657 61.9403 43.9493 60.7373 45.2959 58.6153C45.6654 58.0332 45.5685 58.0758 44.8464 58.8137C42.2263 61.4904 40.968 60.807 41.1171 56.7883C41.2455 53.3254 41.7539 53.0255 43.9257 55.1312C47.4235 58.5223 49.5833 58.6671 51.9954 55.6716C52.9508 54.4851 53.776 53.0618 52.9964 53.9451C49.6168 57.7742 45.8953 56.8318 42.4849 51.2836C41.4309 49.5688 39.7048 49.4466 38.8974 51.0299L38.7499 51.3196L38.8998 52.207C38.9823 52.6951 39.0306 53.1137 39.007 53.1372C38.9835 53.1608 38.9642 53.1389 38.9642 53.0884C38.9642 53.038 38.9214 52.9481 38.869 52.8885C38.7704 52.7766 38.2186 51.4215 38.0021 50.7593C37.4894 49.192 37.4055 47.682 37.8187 47.4609C38.0795 47.3213 39.0998 47.1318 40.0388 47.0486C43.5265 46.7396 45.9598 48.265 46.1574 50.884C46.3426 53.3413 46.8252 54.7814 47.5971 55.1807C47.9825 55.3801 48.0319 55.2675 47.7678 54.7929C47.3146 53.9793 47.0628 52.2035 47.2297 50.9991C47.3001 50.492 47.2236 49.7164 47.0435 49.1118C46.832 48.401 46.8624 48.3828 47.4911 48.8441C52.2731 52.3512 56.954 51.4864 59.6809 46.592C60.079 45.8772 60.0608 45.8635 59.4714 46.434C59.2088 46.6882 58.8089 47.0412 58.5829 47.2183C58.3569 47.3954 58.1363 47.5696 58.0926 47.6054C57.8807 47.7786 57.018 48.2743 56.5286 48.5039C52.4069 50.439 48.1206 48.9804 43.7735 44.1634C41.5478 41.6972 40.0324 40.7409 37.2295 40.0342C35.6715 39.6413 35.8529 38.436 37.6631 37.1557C37.9456 36.9559 38.377 36.5671 38.6218 36.2915C42.1405 32.3303 45.7051 29.9038 47.4679 30.27C48.7616 30.5386 51.6213 32.7344 52.2219 33.9201C52.9558 35.369 51.4229 36.4365 48.7564 36.3336C45.8162 36.2201 44.5286 36.6731 45.191 37.5879C45.5014 38.0166 45.7785 38.1844 46.6734 38.485C49.098 39.2996 51.049 40.2951 51.4305 40.9119C51.5628 41.126 51.5672 41.2027 51.4618 41.4589C51.3938 41.6239 51.6172 41.6156 51.8208 41.4457C52.2368 41.0984 51.7049 40.3915 50.3656 39.5117C49.3989 38.8766 47.8565 38.0257 47.4685 37.9133C47.3566 37.8808 47.3165 37.8249 47.3316 37.722C47.3693 37.4615 48.6748 37.2935 51.2572 37.2165L52.6966 37.1736L52.9277 37.6805C53.0549 37.9594 53.2021 38.2954 53.2549 38.4273C53.3074 38.5592 53.3761 38.7288 53.4074 38.8041C54.9146 42.4347 55.3104 45.2055 54.4414 46.0418C53.9467 46.5181 52.7382 46.4659 51.689 45.9231C51.0754 45.6056 51.5575 46.0792 52.3178 46.5407C56.0679 48.8175 57.0783 44.767 55.1027 35.3758C55.0344 35.0514 55.0135 34.6957 55.0389 34.2892C55.162 32.3165 54.3308 30.1215 52.9164 28.6835C52.6581 28.4209 52.8146 28.3277 54.2688 27.8778C57.2532 26.9544 59.1761 28.628 59.1937 32.1642L59.1992 33.2659L59.0099 33.5002C57.0259 35.9551 56.2648 38.2937 56.9189 39.9248C57.3822 41.0797 57.9521 41.7626 58.3891 41.6866C60.2106 41.3695 61.5617 41.9943 61.5617 43.1539C61.5617 43.6504 61.9597 42.9169 62.1127 42.138C62.3972 40.6909 60.8361 39.8561 58.5637 40.2403C57.8384 40.3629 57.508 39.0388 57.9779 37.8924C58.5394 36.5225 60.054 34.3852 60.4631 34.3852C61.846 34.3852 63.6382 35.4943 63.8128 36.4581L63.8656 36.7488L63.9541 36.2418C64.208 34.7885 63.3845 33.2602 62.0941 32.7895C61.9357 32.7318 61.5312 31.7956 61.2886 30.9253C61.2465 30.7746 61.147 30.4201 61.0673 30.1375C60.8676 29.4297 60.8507 28.1349 61.0373 27.8495C61.3571 27.3605 62.5058 28.2419 63.1647 29.4816C63.4559 30.0294 63.3833 29.3969 63.0632 28.596C61.5136 24.7196 58.8073 23.428 52.8062 23.7005C49.5278 23.8495 48.0143 24.1629 44.5839 25.4035C43.6107 25.7557 43.5535 25.7212 43.9973 25.0527C47.2801 20.1062 52.5987 18.7689 58.4222 21.4256C58.5973 21.5054 58.9825 21.615 59.2781 21.6691C59.7715 21.7594 60.1313 21.8521 60.7228 22.041C61.5079 22.2917 59.5881 20.6586 58.4459 20.104C55.7135 18.7775 51.4176 18.283 50.1104 19.1445C49.7172 19.4035 49.6196 19.3747 49.6689 19.014C50.04 16.3056 53.6476 15.5374 59.028 17.0213C61.2325 17.6292 61.1748 16.9367 58.8248 14.5808C57.6424 13.3954 57.3529 13.1258 56.291 12.2218C55.2262 11.3152 54.9507 10.936 54.5736 9.85815C54.3676 9.2693 54.3277 9.23796 54.2329 9.59028C53.9326 10.7063 54.2505 11.5192 55.3071 12.3365C56.0566 12.9163 57.5256 14.1293 57.881 14.4619C58.4196 14.966 58.2499 15.0986 57.5818 14.6956C56.5818 14.0921 55.5112 13.8318 54.0305 13.8318C51.8377 13.8318 49.0897 14.7081 48.922 15.4608C48.6965 16.4721 47.9112 17.6832 46.5034 19.1906C45.9949 19.7351 45.9997 19.7371 45.5342 18.78C44.95 17.5785 44.7574 16.6858 44.7551 15.1678C44.7522 13.3861 44.7906 13.2515 45.4943 12.5643C47.1339 10.9639 48.7482 10.8867 50.4704 12.3263C51.1112 12.8619 52.3172 13.1964 52.3172 12.8384C52.3172 12.7819 52.2703 12.7356 52.2132 12.7356C51.9297 12.7356 51.2296 12.0993 50.7631 11.4178C50.1246 10.4845 47.7508 9.52981 47.4162 10.0716C47.0864 10.6054 46.4532 8.89129 46.6319 7.94875C46.8021 7.05125 47.0882 6.84366 48.155 6.84366C50.1799 6.84366 51.4883 7.86362 51.906 9.76789C52.202 11.1177 52.3467 11.3063 52.4088 10.4234C52.4321 10.0937 52.4699 9.6235 52.4931 9.37858C52.5319 8.96545 52.5141 8.88136 52.2455 8.21389C51.1237 5.42497 49.1079 4.578 46.4207 5.76701C45.2749 6.27399 44.2893 8.70922 44.713 9.98678L44.8125 10.2867L44.5418 10.497C43.1235 11.5995 42.0609 13.8589 41.844 16.2333C41.6766 18.0672 41.7902 20.0005 42.1078 20.7187C42.2903 21.1317 42.2882 21.1743 42.0695 21.5236C40.8328 23.496 38.9784 24.9399 37.2596 25.2687C36.6539 25.3845 36.6281 25.3151 36.877 24.2455C37.4822 21.6448 38.3422 20.6555 40.0069 20.6452C40.4486 20.6425 40.8269 20.6233 40.8475 20.6028C41.1226 20.3275 38.439 20.142 37.6215 20.3798C37.1266 20.5236 36.5764 20.9993 36.0269 21.7582C35.6189 22.3219 35.6102 22.284 35.8807 21.1161C36.7248 17.4709 38.7529 12.3711 39.8809 11.0571C42.1758 8.38397 42.9157 5.71974 41.8883 3.82917C40.5727 1.40799 35.5022 -0.531222 32.2192 0.131281Z" />
</svg>
