<svg viewBox="0 0 406 492" xmlns="http://www.w3.org/2000/svg">
	<path d="M196.4 1.40009C194.7 2.20009 191.1 5.40009 188.3 8.60009C171.4 28.1001 3.39982 236.2 1.89982 239.5C-0.400182 244.5 -0.400182 248.4 1.79982 253.2C2.69982 255.3 15.4998 271.8 30.2998 289.9C56.6998 322.5 57.0998 322.9 59.7998 321.9C63.0998 320.7 73.7998 314.8 87.7998 306.7L98.1998 300.7L110.7 301.3C118.5 301.7 124.8 301.6 127.5 300.9C133 299.5 136.9 295.4 137.6 290.4C138.6 283 139 282.2 142.6 279.9C146.8 277.3 149.9 271.3 150 265.8C150 262.8 150.6 261.7 152.8 260.3C162.5 254.3 165.8 247.4 163.6 237.2C162.9 234.4 163.4 233.6 167.9 229.2C173.2 224.2 173.3 223.8 173.4 213.5L173.5 207.5L184 201.3C189.7 197.8 200.1 192.5 207 189.4C223.8 181.8 251.9 171 254.8 171C257.9 171 262.7 173.6 264 175.9C265.8 179.3 265.2 184.5 262.7 187.2C261.4 188.6 256 192.1 250.7 195.1C243.9 198.9 240.8 201.2 240.4 202.8C239.8 205.1 241.4 208 243.3 208C243.9 208 249.6 205.1 256 201.6C262.3 198.1 268.7 195 270.2 194.6C276.4 193.2 284 199.3 284 205.7C284 211.7 281.5 214.4 267.6 222.6C260.4 226.9 253.7 231.1 252.7 231.9C250.6 233.7 250.8 236.9 253.2 238.4C255.2 239.6 257.8 238.4 273 229.5C281.3 224.6 283 223.9 286.5 224.4C292.1 225.1 296 229.5 296 235.3C296 237.7 295.4 240.4 294.7 241.5C293.9 242.5 287.3 246.9 279.9 251.4C267.7 258.8 266.5 259.8 266.5 262.4C266.5 267.9 268.9 267.8 279.2 261.7C284.4 258.6 289.8 255.8 291.2 255.5C294.7 254.6 299.6 257.3 301.6 261.1C305 267.7 302 272.3 278.2 297.1L269 306.7L230.2 324C208.9 333.6 186.4 343.5 180.1 346.1C173.8 348.8 166.9 352.1 164.6 353.6C158 358 114 392 114 392.8C114 393.2 131.1 414.6 152 440.5C192.4 490.4 193.9 492 202.2 492C207.4 492 211.8 490 215.6 485.9C220.6 480.5 297 386 297 385.2C297 383.7 250.4 355.2 237.4 348.7C233.6 346.8 227.5 344.3 223.8 343.1C220 341.8 217 340.5 217 340.1C217 339.2 223.2 336.3 248.5 325.3C268.6 316.6 275.9 312 284.3 303C292.8 293.9 294.9 292.6 300.9 293.2C305 293.6 309 295.7 327.5 307.4C345.3 318.6 349.5 320.9 350.5 319.8C351.2 319.1 363.5 304 377.9 286.2C395.4 264.6 404.3 252.7 405.1 250.1C406.4 245.6 405.8 240.7 403.2 236.5C402.1 234.8 359.6 182 308.6 119C235.1 28.1001 215.1 4.00009 211.8 2.20009C207.1 -0.299912 201.1 -0.599912 196.4 1.40009ZM202.1 115.8C204.9 118.9 205 119.3 205 130C205 140.6 204.9 141.1 202.2 144.1C199.8 146.8 198.5 147.4 193.7 147.8C186.7 148.4 182.4 146.7 180.3 142.7C179.5 141 178.3 135.3 177.7 130C176.7 121.2 176.8 119.9 178.4 117.5C181 113.5 185.5 111.9 192.9 112.3C198.6 112.6 199.6 112.9 202.1 115.8ZM228.8 113.6C231.2 113.9 234.2 115.1 235.8 116.5C238.1 118.5 238.5 119.6 238.4 124.2C238.4 127.6 237.7 130.5 236.6 132.2C234.5 135.4 229 137.2 223.2 136.8L219.5 136.5L218.9 147.1L210.5 146.5L210.9 130C211.1 120.9 211.4 113.2 211.6 112.8C212 112.2 220.3 112.6 228.8 113.6ZM171.8 119.2C172 121.3 172 123 171.7 123C170.8 123 159.3 125.2 157.7 125.6C156.5 126 156 126.9 156.2 128.3C156.4 130.1 157 130.4 159.5 130.1C161.2 129.8 163.9 129.6 165.5 129.6C168.2 129.5 168.5 129.8 168.8 133.2C169.1 136.7 169 136.8 164.8 137.5C159.3 138.4 157.7 139.6 159 142C159.8 143.6 160.5 143.6 167.1 142.3C171.1 141.6 174.4 141.1 174.6 141.2C174.7 141.4 175.1 143.2 175.5 145.2C176.2 148.8 176.2 148.9 172.3 149.5C170.2 149.9 165 151 160.7 152L152.8 153.8L151.9 151.6C150.8 149.1 144 123 144 121.4C144 120.3 151.7 118.1 162.5 116.1C170.5 114.6 171.5 115 171.8 119.2ZM253.5 117.1C253.7 117.4 252.8 122.9 251.5 129.5C248.8 143.1 248.9 143.3 256.3 144.4C262.6 145.4 263.4 146.2 262.6 150.5C262 153.7 261.6 154.1 259.7 153.6C258.5 153.3 253.7 152.3 249 151.3C244.3 150.4 240.2 149.4 239.8 149.1C239.2 148.6 243.3 119.3 244.4 116.4C244.7 115.6 246.1 115.5 249 116C251.2 116.4 253.3 116.9 253.5 117.1ZM284.7 124.9C296.1 128.7 301 130.8 301 132C301 133.7 298.7 138 297.7 138C297.2 138 293.6 136.9 289.8 135.5C282.6 132.9 281 132.9 281 135.8C281 137 282.7 138.1 286.1 139.3C291.1 141.1 291.2 141.3 290.6 144.3C289.7 148.8 288.9 149.2 284.1 147.5C278.2 145.4 276.8 145.6 277.2 148.1C277.4 149.7 279.1 150.9 284.3 152.7C288 154.1 291 155.6 291 156.2C291 156.7 290.3 158.4 289.5 160L288 162.8L276.9 159C270.8 156.9 265.6 155 265.5 154.8C265.1 154.4 273.6 124.5 274.5 123C275.3 121.7 274.5 121.6 284.7 124.9ZM138.8 126.3C142.9 129.6 144.3 138.7 141.4 142.9C140.5 144.2 137.3 146.3 134.4 147.6C131.4 148.9 129 150.2 129 150.4C129 150.6 129.7 152.4 130.6 154.5C131.4 156.6 131.9 158.8 131.6 159.5C130.9 161.5 125.3 163.1 124.2 161.7C122.4 159.2 111.8 132.1 112.4 131.2C112.9 130.3 125.2 125.6 129.5 124.7C132.1 124.1 137.2 125 138.8 126.3ZM198.1 171.2C203.2 174.7 207.5 177.9 207.7 178.5C207.9 179 206 180.3 203.5 181.4C201 182.4 192.1 187.2 183.7 192C166.2 202 162.5 203.5 156.4 202.6C147.9 201.5 143.2 197 145.7 192.5C147.5 189.4 183.3 165 186.2 165C187.8 165 192.4 167.4 198.1 171.2ZM133.8 191.6C135.1 192.5 136 194.2 136 195.8C136 199.5 139.1 204.3 143.1 206.8C147.6 209.5 157.5 212.3 159.9 211.5C162.5 210.7 165 213.5 165 217.1C165 220.9 160.2 226 156.7 226C155.3 226 149.1 223.8 142.8 221.1C118.6 210.6 118.2 210.4 116.1 204.7C114.6 200.8 116.3 194.7 119.7 192.1C122.9 189.5 130.5 189.3 133.8 191.6ZM132.5 225.7C142.9 230.2 151.7 234.6 153.3 236.1C159.3 242.1 154.4 253 145.6 253C143 253 109.6 241.9 105 239.5C101 237.4 98.9998 234.2 98.9998 229.7C98.9998 222.3 105.1 216.4 111.5 217.5C113.1 217.8 122.6 221.5 132.5 225.7ZM122.4 254.9C130.5 257.6 138 260.6 139 261.5C141.4 263.7 141.6 269.2 139.4 271.4C136.7 274.2 133.2 274.3 117.7 272C96.3998 268.9 93.9998 267.6 93.9998 259.5C93.9998 254.9 95.2998 252.4 98.7998 250.5C102.3 248.6 104.6 249 122.4 254.9ZM117 280.6C121.7 281.4 125.8 282 126.2 282C127.7 282 130 285.3 130 287.5C130 291.8 126.7 293 114.5 293C101 293 96.2998 291.8 94.8998 288.3C93.5998 284.9 94.9998 280.8 98.0998 279.3C100.6 278 102.2 278.1 117 280.6ZM186.8 378.7C187.5 379.7 188.3 381.5 188.6 382.7C189.4 385.7 186.3 404.4 184.5 407.9C182.4 412 178.5 413.3 172.4 412C164.6 410.3 158 407.7 158 406.3C158 405.1 169.1 377.5 171.1 373.9C171.9 372.4 172.6 372.5 178.7 374.6C182.4 375.9 186.1 377.8 186.8 378.7ZM235.9 377.8C240.1 382.3 246.1 396.6 246 402C246 408.7 240.4 413 231.8 413C227.3 413 223.7 411.2 222.1 408.1C220.5 405.1 217.8 386 218.4 382.4C219.3 377.9 224.1 374 228.7 374C231.6 374 233 374.8 235.9 377.8ZM210.2 379.7C211.2 380.6 212.4 382.6 212.9 384.4C214.3 388.5 217.2 413.9 216.5 415.1C216.1 415.6 214.1 416 212 416C208.2 416 208.1 415.9 207.8 412.2C207.5 408.6 207.4 408.5 203.5 408.5C199.6 408.5 199.5 408.6 199.2 412.2C198.9 415.9 198.8 416 195 416C192.9 416 190.8 415.5 190.5 415C190.2 414.4 190.7 407.4 191.6 399.4C193.4 383.7 195.2 379.2 200 377.9C203.3 377 208.1 377.8 210.2 379.7Z" />
	<path d="M188 120.9C187 121.6 186.7 123.7 186.8 129.1C187.2 138.3 188.1 140.2 192.3 139.8L195.5 139.5L195.8 131.8C196 127.5 195.6 123.1 195 122C193.9 119.9 190.5 119.4 188 120.9Z" />
	<path d="M220.7 121.7C220.3 122 220 123.6 220 125.1C220 127.4 220.5 127.8 223.3 128.3C225 128.5 227.1 128.5 227.8 128.3C229.6 127.6 229.3 122.3 227.4 121.6C225.3 120.8 221.5 120.8 220.7 121.7Z" />
	<path d="M126.7 134.2C124.2 135.1 123.9 135.6 124.5 137.9C125.4 141.4 125.4 141.3 129.5 140.6C133.4 139.8 134.9 137.7 133.3 135.1C132 133.1 130.3 132.8 126.7 134.2Z" />
	<path d="M174.5 384.2C174.3 384.9 173 389 171.7 393.2C169 401.6 169.4 403 174.2 403C177.5 403 178.2 401.7 180.1 392.1C181.3 385.6 181.1 384.7 177.2 383.5C175.8 383.1 174.8 383.3 174.5 384.2Z" />
	<path d="M226.7 383.7C225.1 385.2 226.4 394.1 229.2 401.2C230.8 405.3 237 404.8 237 400.6C237 398 233.2 386.1 231.7 384.2C230.7 382.9 227.8 382.6 226.7 383.7Z" />
	<path d="M201.3 387.7C200.5 388 200 390.2 200 393.6V399H207V394.2C207 388.1 205.2 386.1 201.3 387.7Z" />
</svg>
