<svg viewBox="0 0 27 32" xmlns="http://www.w3.org/2000/svg">
	<path d="M12.7742 0.0912374C12.6636 0.14327 12.4295 0.3514 12.2474 0.55953C11.1482 1.82782 0.221325 15.3628 0.123764 15.5774C-0.0258297 15.9026 -0.0258297 16.1563 0.11726 16.4685C0.175796 16.6051 1.00832 17.6782 1.97092 18.8555C3.68799 20.9758 3.71401 21.0018 3.88962 20.9368C4.10425 20.8587 4.80019 20.475 5.71075 19.9481L6.38718 19.5579L7.2002 19.5969C7.70752 19.6229 8.11727 19.6164 8.29288 19.5709C8.6506 19.4799 8.90426 19.2132 8.94979 18.888C9.01483 18.4067 9.04085 18.3546 9.27499 18.2051C9.54817 18.0359 9.74979 17.6457 9.7563 17.288C9.7563 17.0929 9.79532 17.0213 9.93841 16.9303C10.5693 16.54 10.7839 16.0912 10.6408 15.4278C10.5953 15.2457 10.6278 15.1937 10.9205 14.9075C11.2652 14.5823 11.2717 14.5563 11.2782 13.8864L11.2848 13.4961L11.9677 13.0929C12.3384 12.8652 13.0148 12.5205 13.4636 12.3189C14.5563 11.8246 16.3839 11.1221 16.5726 11.1221C16.7742 11.1221 17.0864 11.2912 17.1709 11.4408C17.288 11.662 17.249 12.0002 17.0864 12.1758C17.0018 12.2668 16.6506 12.4945 16.3059 12.6896C15.8636 12.9368 15.662 13.0864 15.636 13.1904C15.5969 13.34 15.701 13.5286 15.8246 13.5286C15.8636 13.5286 16.2343 13.34 16.6506 13.1124C17.0604 12.8847 17.4766 12.6831 17.5742 12.6571C17.9774 12.566 18.4717 12.9628 18.4717 13.379C18.4717 13.7693 18.3091 13.9449 17.4051 14.4782C16.9368 14.7579 16.501 15.0311 16.436 15.0831C16.2994 15.2002 16.3124 15.4083 16.4685 15.5059C16.5986 15.5839 16.7677 15.5059 17.7563 14.927C18.2961 14.6083 18.4067 14.5628 18.6343 14.5953C18.9986 14.6408 19.2522 14.927 19.2522 15.3042C19.2522 15.4603 19.2132 15.6359 19.1677 15.7075C19.1156 15.7725 18.6864 16.0587 18.2051 16.3514C17.4116 16.8327 17.3335 16.8977 17.3335 17.0668C17.3335 17.4246 17.4896 17.4181 18.1595 17.0213C18.4978 16.8197 18.849 16.6376 18.94 16.6181C19.1677 16.5595 19.4864 16.7351 19.6165 16.9823C19.8376 17.4116 19.6425 17.7107 18.0945 19.3238L17.4961 19.9481L14.9726 21.0733C13.5872 21.6977 12.1238 22.3416 11.714 22.5107C11.3043 22.6864 10.8555 22.901 10.7059 22.9986C10.2766 23.2847 7.41483 25.4961 7.41483 25.5481C7.41483 25.5742 8.52703 26.966 9.88638 28.6506C12.514 31.8961 12.6116 32.0002 13.1514 32.0002C13.4896 32.0002 13.7758 31.8701 14.023 31.6034C14.3482 31.2522 19.3173 25.1059 19.3173 25.0538C19.3173 24.9563 16.2864 23.1026 15.4408 22.6799C15.1937 22.5563 14.7969 22.3937 14.5563 22.3156C14.3091 22.2311 14.114 22.1465 14.114 22.1205C14.114 22.062 14.5173 21.8733 16.1628 21.1579C17.4701 20.592 17.9449 20.2929 18.4913 19.7075C19.0441 19.1156 19.1807 19.0311 19.5709 19.0701C19.8376 19.0961 20.0978 19.2327 21.301 19.9937C22.4587 20.7221 22.7319 20.8717 22.7969 20.8002C22.8425 20.7546 23.6425 19.7725 24.5791 18.6148C25.7173 17.2099 26.2961 16.4359 26.3482 16.2668C26.4327 15.9742 26.3937 15.6555 26.2246 15.3823C26.153 15.2717 23.3888 11.8376 20.0717 7.74001C15.2913 1.82782 13.9904 0.260343 13.7758 0.14327C13.4701 -0.0193319 13.0799 -0.038844 12.7742 0.0912374ZM13.1449 7.53188C13.327 7.73351 13.3335 7.75952 13.3335 8.45546C13.3335 9.14489 13.327 9.17741 13.1514 9.37253C12.9953 9.54814 12.9108 9.58717 12.5986 9.61318C12.1433 9.65221 11.8636 9.54164 11.727 9.28148C11.675 9.17091 11.5969 8.80018 11.5579 8.45546C11.4929 7.8831 11.4994 7.79855 11.6034 7.64245C11.7726 7.38229 12.0652 7.27822 12.5465 7.30424C12.9173 7.32375 12.9823 7.34326 13.1449 7.53188ZM14.8815 7.38879C15.0376 7.40831 15.2327 7.48635 15.3368 7.57741C15.4864 7.70749 15.5124 7.77904 15.5059 8.07822C15.5059 8.29936 15.4604 8.48798 15.3888 8.59855C15.2522 8.80668 14.8945 8.92375 14.5173 8.89774L14.2766 8.87822L14.2376 9.56766L13.6913 9.52863L13.7173 8.45546C13.7303 7.86359 13.7498 7.36278 13.7628 7.33676C13.7888 7.29774 14.3287 7.32375 14.8815 7.38879ZM11.1742 7.75302C11.1872 7.88961 11.1872 8.00018 11.1677 8.00018C11.1091 8.00018 10.3612 8.14326 10.2571 8.16928C10.1791 8.1953 10.1465 8.25383 10.1595 8.34489C10.1726 8.46196 10.2116 8.48148 10.3742 8.46196C10.4848 8.44245 10.6604 8.42944 10.7644 8.42944C10.94 8.42294 10.9595 8.44245 10.9791 8.66359C10.9986 8.89123 10.9921 8.89774 10.7189 8.94326C10.3612 9.0018 10.2571 9.07985 10.3417 9.23595C10.3937 9.34001 10.4392 9.34001 10.8685 9.25546C11.1287 9.20993 11.3433 9.17741 11.3563 9.18392C11.3628 9.19692 11.3888 9.314 11.4148 9.44408C11.4604 9.67822 11.4604 9.68473 11.2067 9.72375C11.0701 9.74977 10.7319 9.82131 10.4522 9.88635L9.93841 10.0034L9.87987 9.86034C9.80833 9.69774 9.36605 8.00018 9.36605 7.89611C9.36605 7.82457 9.86686 7.68148 10.5693 7.55139C11.0896 7.45383 11.1547 7.47985 11.1742 7.75302ZM16.488 7.61644C16.501 7.63595 16.4425 7.99367 16.3579 8.42294C16.1823 9.30749 16.1888 9.3205 16.6701 9.39205C17.0799 9.45709 17.1319 9.50912 17.0799 9.78879C17.0408 9.99692 17.0148 10.0229 16.8913 9.99042C16.8132 9.97091 16.501 9.90587 16.1953 9.84083C15.8896 9.78229 15.623 9.71725 15.5969 9.69774C15.5579 9.66522 15.8246 7.75953 15.8961 7.57091C15.9156 7.51887 16.0067 7.51237 16.1953 7.54489C16.3384 7.57091 16.475 7.60343 16.488 7.61644ZM18.5173 8.12375C19.2587 8.37091 19.5774 8.50749 19.5774 8.58554C19.5774 8.69611 19.4278 8.97579 19.3628 8.97579C19.3303 8.97579 19.0961 8.90424 18.849 8.81318C18.3807 8.64408 18.2766 8.64408 18.2766 8.8327C18.2766 8.91074 18.3872 8.98229 18.6083 9.06034C18.9335 9.17741 18.94 9.19042 18.901 9.38554C18.8425 9.67822 18.7904 9.70424 18.4782 9.59367C18.0945 9.45709 18.0035 9.47009 18.0295 9.6327C18.0425 9.73676 18.153 9.81481 18.4913 9.93188C18.7319 10.0229 18.927 10.1205 18.927 10.1595C18.927 10.192 18.8815 10.3026 18.8295 10.4067L18.7319 10.5888L18.01 10.3416C17.6132 10.2051 17.275 10.0815 17.2685 10.0685C17.2425 10.0425 17.7953 8.09774 17.8539 8.00018C17.9059 7.91562 17.8539 7.90912 18.5173 8.12375ZM9.02784 8.21481C9.29451 8.42944 9.38556 9.02131 9.19695 9.29448C9.13841 9.37904 8.93028 9.51562 8.74166 9.60018C8.54654 9.68473 8.39044 9.76928 8.39044 9.78229C8.39044 9.7953 8.43597 9.91237 8.49451 10.049C8.54654 10.1855 8.57906 10.3286 8.55955 10.3742C8.51402 10.5042 8.14979 10.6083 8.07825 10.5172C7.96117 10.3546 7.27174 8.59204 7.31077 8.53351C7.34329 8.47497 8.14329 8.16928 8.42296 8.11074C8.59207 8.07172 8.92378 8.13026 9.02784 8.21481ZM12.8848 11.1351C13.2165 11.3628 13.4961 11.5709 13.5091 11.6099C13.5221 11.6425 13.3986 11.727 13.236 11.7985C13.0734 11.8636 12.4945 12.1758 11.9482 12.488C10.81 13.1384 10.5693 13.2359 10.1726 13.1774C9.61971 13.1059 9.31402 12.8132 9.47662 12.5205C9.59369 12.3189 11.9221 10.7319 12.1108 10.7319C12.2148 10.7319 12.514 10.888 12.8848 11.1351ZM8.70264 12.462C8.78719 12.5205 8.84573 12.6311 8.84573 12.7351C8.84573 12.9758 9.04735 13.288 9.30752 13.4506C9.6002 13.6262 10.2441 13.8083 10.4002 13.7563C10.5693 13.7042 10.7319 13.8864 10.7319 14.1205C10.7319 14.3677 10.4197 14.6994 10.1921 14.6994C10.101 14.6994 9.69776 14.5563 9.288 14.3807C7.71402 13.6977 7.688 13.6847 7.55142 13.314C7.45386 13.0603 7.56443 12.6636 7.78556 12.4945C7.99369 12.3254 8.488 12.3124 8.70264 12.462ZM8.61808 14.6799C9.29451 14.9725 9.86687 15.2587 9.97093 15.3563C10.3612 15.7465 10.0425 16.4555 9.47012 16.4555C9.30101 16.4555 7.12865 15.7335 6.82947 15.5774C6.5693 15.4408 6.43921 15.2327 6.43921 14.94C6.43921 14.4587 6.83597 14.075 7.25223 14.1465C7.3563 14.166 7.97418 14.4067 8.61808 14.6799ZM7.96117 16.579C8.488 16.7546 8.97581 16.9498 9.04085 17.0083C9.19695 17.1514 9.20995 17.5091 9.06686 17.6522C8.89125 17.8343 8.66361 17.8408 7.65548 17.6912C6.2701 17.4896 6.11401 17.4051 6.11401 16.8782C6.11401 16.579 6.19856 16.4164 6.4262 16.2929C6.65386 16.1693 6.80345 16.1953 7.96117 16.579ZM7.60995 18.2506C7.91565 18.3026 8.18231 18.3416 8.20833 18.3416C8.30589 18.3416 8.45548 18.5563 8.45548 18.6994C8.45548 18.979 8.24085 19.0571 7.44735 19.0571C6.5693 19.0571 6.2636 18.979 6.17254 18.7514C6.08799 18.5303 6.17905 18.2636 6.38067 18.166C6.54329 18.0815 6.64735 18.088 7.60995 18.2506ZM12.1498 24.6311C12.1953 24.6961 12.2474 24.8132 12.2669 24.8912C12.3189 25.0864 12.1173 26.3026 12.0002 26.5303C11.8636 26.7969 11.61 26.8815 11.2132 26.7969C10.7059 26.6864 10.2766 26.5172 10.2766 26.4262C10.2766 26.3481 10.9986 24.553 11.1287 24.3189C11.1807 24.2213 11.2262 24.2278 11.623 24.3644C11.8636 24.449 12.1043 24.5725 12.1498 24.6311ZM15.3433 24.5725C15.6165 24.8652 16.0067 25.7953 16.0002 26.1465C16.0002 26.5823 15.636 26.862 15.0766 26.862C14.7839 26.862 14.5498 26.7449 14.4457 26.5433C14.3417 26.3481 14.1661 25.1059 14.2051 24.8717C14.2636 24.579 14.5758 24.3254 14.875 24.3254C15.0636 24.3254 15.1547 24.3774 15.3433 24.5725ZM13.6717 24.6961C13.7368 24.7546 13.8148 24.8847 13.8474 25.0018C13.9384 25.2685 14.127 26.9205 14.0815 26.9986C14.0555 27.0311 13.9254 27.0571 13.7888 27.0571C13.5417 27.0571 13.5352 27.0506 13.5156 26.8099C13.4961 26.5758 13.4896 26.5693 13.236 26.5693C12.9823 26.5693 12.9758 26.5758 12.9563 26.8099C12.9368 27.0506 12.9303 27.0571 12.6831 27.0571C12.5465 27.0571 12.41 27.0246 12.3904 26.992C12.3709 26.953 12.4035 26.4977 12.462 25.9774C12.5791 24.9563 12.6961 24.6636 13.0083 24.579C13.223 24.5205 13.5352 24.5725 13.6717 24.6961Z" />
	<path d="M12.2278 7.86359C12.1628 7.90912 12.1433 8.0457 12.1498 8.39692C12.1758 8.9953 12.2343 9.11887 12.5075 9.09286L12.7156 9.07335L12.7352 8.57253C12.7482 8.29286 12.7221 8.00668 12.6831 7.93513C12.6116 7.79855 12.3904 7.76603 12.2278 7.86359Z" />
	<path d="M14.3547 7.91562C14.3287 7.93513 14.3091 8.0392 14.3091 8.13676C14.3091 8.28635 14.3417 8.31237 14.5238 8.34489C14.6343 8.3579 14.7709 8.3579 14.8165 8.34489C14.9335 8.29936 14.914 7.95465 14.7904 7.90912C14.6539 7.85709 14.4067 7.85708 14.3547 7.91562Z" />
	<path d="M8.24085 8.72863C8.07825 8.78717 8.05874 8.81969 8.09776 8.96928C8.1563 9.19692 8.1563 9.19042 8.42296 9.14489C8.67662 9.09286 8.77418 8.95627 8.67012 8.78717C8.58556 8.65709 8.47499 8.63757 8.24085 8.72863Z" />
	<path d="M11.3498 24.9888C11.3368 25.0343 11.2522 25.301 11.1677 25.5742C10.9921 26.1205 11.0181 26.2116 11.3303 26.2116C11.5449 26.2116 11.5904 26.127 11.714 25.5026C11.7921 25.0799 11.7791 25.0213 11.5254 24.9433C11.4343 24.9172 11.3693 24.9303 11.3498 24.9888Z" />
	<path d="M14.7449 24.9563C14.6408 25.0538 14.7254 25.6327 14.9075 26.0945C15.0116 26.3612 15.4148 26.3286 15.4148 26.0555C15.4148 25.8864 15.1677 25.1124 15.0701 24.9888C15.0051 24.9042 14.8165 24.8847 14.7449 24.9563Z" />
	<path d="M13.0929 25.2164C13.0408 25.2359 13.0083 25.379 13.0083 25.6002V25.9514H13.4636V25.6392C13.4636 25.2425 13.3465 25.1124 13.0929 25.2164Z" />
</svg>
