<svg viewBox="0 0 406 492" xmlns="http://www.w3.org/2000/svg">
	<path d="M196.238 1.31269C194.538 2.11269 190.938 5.31269 188.138 8.51269C171.238 28.0127 3.23771 236.113 1.73771 239.413C-0.562292 244.413 -0.562292 248.313 1.63771 253.113C2.53771 255.213 15.3377 271.713 30.1377 289.813C56.5377 322.413 56.9377 322.813 59.6377 321.813C62.9377 320.613 73.6377 314.713 87.6377 306.613L98.0377 300.613L110.538 301.213C118.338 301.613 124.638 301.513 127.338 300.813C132.838 299.413 136.738 295.313 137.438 290.313C138.438 282.913 138.838 282.113 142.438 279.813C146.638 277.213 149.738 271.213 149.838 265.713C149.838 262.713 150.438 261.613 152.638 260.213C162.338 254.213 165.638 247.313 163.438 237.113C162.738 234.313 163.238 233.513 167.738 229.113C173.038 224.113 173.138 223.713 173.238 213.413L173.338 207.413L183.838 201.213C189.538 197.713 199.938 192.413 206.838 189.313C223.638 181.713 251.738 170.913 254.638 170.913C257.738 170.913 262.538 173.513 263.838 175.813C265.638 179.213 265.038 184.413 262.538 187.113C261.238 188.513 255.838 192.013 250.538 195.013C243.738 198.813 240.638 201.113 240.238 202.713C239.638 205.013 241.238 207.913 243.138 207.913C243.738 207.913 249.438 205.013 255.838 201.513C262.138 198.013 268.538 194.913 270.038 194.513C276.238 193.113 283.838 199.213 283.838 205.613C283.838 211.613 281.338 214.313 267.438 222.513C260.238 226.813 253.538 231.013 252.538 231.813C250.438 233.613 250.638 236.813 253.038 238.313C255.038 239.513 257.638 238.313 272.838 229.413C281.138 224.513 282.838 223.813 286.338 224.313C291.938 225.013 295.838 229.413 295.838 235.213C295.838 237.613 295.238 240.313 294.538 241.413C293.738 242.413 287.138 246.813 279.738 251.313C267.538 258.713 266.338 259.713 266.338 262.313C266.338 267.813 268.738 267.713 279.038 261.613C284.238 258.513 289.638 255.713 291.038 255.413C294.538 254.513 299.438 257.213 301.438 261.013C304.838 267.613 301.838 272.213 278.038 297.013L268.838 306.613L230.038 323.913C208.738 333.513 186.238 343.413 179.938 346.013C173.638 348.713 166.738 352.013 164.438 353.513C157.838 357.913 113.838 391.913 113.838 392.713C113.838 393.113 130.938 414.513 151.838 440.413C192.238 490.313 193.738 491.913 202.038 491.913C207.238 491.913 211.638 489.913 215.438 485.813C220.438 480.413 296.838 385.913 296.838 385.113C296.838 383.613 250.238 355.113 237.238 348.613C233.438 346.713 227.338 344.213 223.638 343.013C219.838 341.713 216.838 340.413 216.838 340.013C216.838 339.113 223.038 336.213 248.338 325.213C268.438 316.513 275.738 311.913 284.138 302.913C292.638 293.813 294.738 292.513 300.738 293.113C304.838 293.513 308.838 295.613 327.338 307.313C345.138 318.513 349.338 320.813 350.338 319.713C351.038 319.013 363.338 303.913 377.738 286.113C395.238 264.513 404.138 252.613 404.938 250.013C406.238 245.513 405.638 240.613 403.038 236.413C401.938 234.713 359.438 181.913 308.438 118.913C234.938 28.0127 214.938 3.91269 211.638 2.11269C206.938 -0.387314 200.938 -0.687314 196.238 1.31269ZM197.938 171.113C203.038 174.613 207.338 177.813 207.538 178.413C207.738 178.913 205.838 180.213 203.338 181.313C200.838 182.313 191.938 187.113 183.538 191.913C166.038 201.913 162.338 203.413 156.238 202.513C147.738 201.413 143.038 196.913 145.538 192.413C147.338 189.313 183.138 164.913 186.038 164.913C187.638 164.913 192.238 167.313 197.938 171.113ZM133.638 191.513C134.938 192.413 135.838 194.113 135.838 195.713C135.838 199.413 138.938 204.213 142.938 206.713C147.438 209.413 157.338 212.213 159.738 211.413C162.338 210.613 164.838 213.413 164.838 217.013C164.838 220.813 160.038 225.913 156.538 225.913C155.138 225.913 148.938 223.713 142.638 221.013C118.438 210.513 118.038 210.313 115.938 204.613C114.438 200.713 116.138 194.613 119.538 192.013C122.738 189.413 130.338 189.213 133.638 191.513ZM132.338 225.613C142.738 230.113 151.538 234.513 153.138 236.013C159.138 242.013 154.238 252.913 145.438 252.913C142.838 252.913 109.438 241.813 104.838 239.413C100.838 237.313 98.8377 234.113 98.8377 229.613C98.8377 222.213 104.938 216.313 111.338 217.413C112.938 217.713 122.438 221.413 132.338 225.613ZM122.238 254.813C130.338 257.513 137.838 260.513 138.838 261.413C141.238 263.613 141.438 269.113 139.238 271.313C136.538 274.113 133.038 274.213 117.538 271.913C96.2377 268.813 93.8377 267.513 93.8377 259.413C93.8377 254.813 95.1377 252.313 98.6377 250.413C102.138 248.513 104.438 248.913 122.238 254.813ZM116.838 280.513C121.538 281.313 125.638 281.913 126.038 281.913C127.538 281.913 129.838 285.213 129.838 287.413C129.838 291.713 126.538 292.913 114.338 292.913C100.838 292.913 96.1377 291.713 94.7377 288.213C93.4377 284.813 94.8377 280.713 97.9377 279.213C100.438 277.913 102.038 278.013 116.838 280.513Z" />
</svg>
