<svg width="27" height="32" xmlns="http://www.w3.org/2000/svg">
	<path d="M12.7657 0.0853932C12.6551 0.137435 12.4209 0.345602 12.2388 0.553769C11.1394 1.82229 0.21062 15.3597 0.113042 15.5743C-0.0365783 15.8996 -0.0365783 16.1533 0.106537 16.4655C0.165083 16.6022 0.99775 17.6755 1.96052 18.853C3.6779 20.9737 3.70392 20.9997 3.87956 20.9346C4.09423 20.8566 4.79029 20.4728 5.70102 19.9458L6.37756 19.5555L7.19073 19.5946C7.69814 19.6206 8.10797 19.6141 8.28361 19.5685C8.6414 19.4775 8.8951 19.2107 8.94064 18.8855C9.00569 18.4041 9.03171 18.3521 9.2659 18.2024C9.53912 18.0333 9.74078 17.643 9.74728 17.2852C9.74728 17.09 9.78632 17.0185 9.92943 16.9274C10.5604 16.5371 10.7751 16.0882 10.632 15.4247C10.5865 15.2426 10.619 15.1905 10.9117 14.9043C11.2565 14.579 11.263 14.553 11.2695 13.883L11.276 13.4927L11.9591 13.0893C12.3299 12.8617 13.0064 12.5169 13.4553 12.3152C14.5481 11.8208 16.3761 11.1183 16.5647 11.1183C16.7664 11.1183 17.0787 11.2874 17.1632 11.437C17.2803 11.6582 17.2413 11.9965 17.0787 12.1721C16.9941 12.2632 16.6428 12.4909 16.298 12.686C15.8557 12.9332 15.654 13.0828 15.628 13.1869C15.589 13.3365 15.6931 13.5252 15.8167 13.5252C15.8557 13.5252 16.2265 13.3365 16.6428 13.1089C17.0526 12.8812 17.469 12.6795 17.5666 12.6535C17.9699 12.5624 18.4643 12.9592 18.4643 13.3756C18.4643 13.7659 18.3016 13.9415 17.3974 14.4749C16.929 14.7547 16.4932 15.0279 16.4281 15.0799C16.2915 15.197 16.3045 15.4052 16.4607 15.5028C16.5908 15.5808 16.7599 15.5028 17.7487 14.9238C18.2886 14.6051 18.3992 14.5595 18.6269 14.592C18.9912 14.6376 19.2449 14.9238 19.2449 15.3011C19.2449 15.4572 19.2059 15.6329 19.1603 15.7044C19.1083 15.7695 18.6789 16.0557 18.1976 16.3485C17.4039 16.8298 17.3259 16.8949 17.3259 17.064C17.3259 17.4218 17.482 17.4153 18.152 17.0185C18.4903 16.8168 18.8416 16.6347 18.9326 16.6152C19.1603 16.5566 19.4791 16.7323 19.6092 16.9795C19.8304 17.4088 19.6352 17.708 18.087 19.3213L17.4885 19.9458L14.9645 21.0712C13.5789 21.6957 12.1152 22.3398 11.7054 22.5089C11.2955 22.6845 10.8467 22.8992 10.697 22.9968C10.2677 23.283 7.40541 25.4948 7.40541 25.5468C7.40541 25.5728 8.5178 26.965 9.87739 28.6498C12.5055 31.8959 12.6031 32 13.143 32C13.4813 32 13.7675 31.8699 14.0147 31.6032C14.34 31.2519 19.31 25.1045 19.31 25.0524C19.31 24.9549 16.2785 23.1009 15.4328 22.678C15.1856 22.5544 14.7888 22.3918 14.5481 22.3137C14.3009 22.2292 14.1058 22.1446 14.1058 22.1186C14.1058 22.06 14.5091 21.8714 16.1549 21.1558C17.4625 20.5899 17.9374 20.2906 18.4838 19.7051C19.0367 19.1132 19.1733 19.0286 19.5637 19.0676C19.8304 19.0937 20.0906 19.2303 21.294 19.9914C22.452 20.72 22.7252 20.8696 22.7902 20.798C22.8358 20.7525 23.6359 19.7702 24.5727 18.6123C25.7111 17.2071 26.29 16.433 26.3421 16.2639C26.4267 15.9711 26.3876 15.6524 26.2185 15.3792C26.1469 15.2686 23.3822 11.8338 20.0646 7.73555C15.2832 1.82229 13.9822 0.254529 13.7675 0.137435C13.4618 -0.0251957 13.0714 -0.0447113 12.7657 0.0853932ZM12.8763 11.1313C13.2081 11.359 13.4878 11.5671 13.5008 11.6061C13.5138 11.6387 13.3902 11.7232 13.2276 11.7948C13.0649 11.8599 12.486 12.1721 11.9395 12.4844C10.8011 13.1349 10.5604 13.2325 10.1636 13.1739C9.61068 13.1023 9.30493 12.8096 9.46756 12.5169C9.58465 12.3152 11.9135 10.7279 12.1022 10.7279C12.2063 10.7279 12.5055 10.8841 12.8763 11.1313ZM8.69344 12.4583C8.77801 12.5169 8.83655 12.6275 8.83655 12.7316C8.83655 12.9722 9.03822 13.2845 9.29842 13.4471C9.59116 13.6228 10.2352 13.8049 10.3913 13.7529C10.5604 13.7008 10.7231 13.883 10.7231 14.1172C10.7231 14.3644 10.4108 14.6961 10.1831 14.6961C10.0921 14.6961 9.68874 14.553 9.27891 14.3774C7.70465 13.6943 7.67863 13.6813 7.54202 13.3105C7.44444 13.0568 7.55503 12.66 7.7762 12.4909C7.98437 12.3217 8.47877 12.3087 8.69344 12.4583ZM8.60887 14.6766C9.28541 14.9693 9.85787 15.2556 9.96196 15.3532C10.3523 15.7435 10.0335 16.4525 9.46106 16.4525C9.29192 16.4525 7.11918 15.7305 6.81994 15.5743C6.55973 15.4377 6.42961 15.2296 6.42961 14.9368C6.42961 14.4554 6.82644 14.0716 7.24278 14.1432C7.34686 14.1627 7.96486 14.4034 8.60887 14.6766ZM7.95184 16.5761C8.47877 16.7518 8.96666 16.9469 9.03171 17.0055C9.18784 17.1486 9.20085 17.5064 9.05773 17.6495C8.88209 17.8316 8.65441 17.8381 7.6461 17.6885C6.26047 17.4869 6.10434 17.4023 6.10434 16.8754C6.10434 16.5761 6.18891 16.4135 6.41659 16.2899C6.6443 16.1663 6.79392 16.1923 7.95184 16.5761ZM7.60056 18.248C7.90631 18.3 8.17302 18.339 8.19904 18.339C8.29662 18.339 8.44624 18.5537 8.44624 18.6968C8.44624 18.9766 8.23157 19.0546 7.43793 19.0546C6.55973 19.0546 6.25396 18.9766 6.16289 18.7489C6.07832 18.5277 6.1694 18.261 6.37106 18.1634C6.53371 18.0788 6.63779 18.0853 7.60056 18.248Z" />
</svg>
